<?xml version="1.0" encoding="UTF-8"?>
<svg id="Livello_2" data-name="Livello 2" xmlns="http://www.w3.org/2000/svg" viewBox="0 0 1909.1 763.9">
  <g id="Livello_1-2" data-name="Livello 1">
    <g>
      <path d="M1332.94,401.99c6.34,4.49,2.51,5.27,2.91,8.62.54,4.48,4.53,5.57,5.32,8.68.99,3.88-1.31,3.03-1.55,3.76-3.31,10.07,5.96,5.93,5.62,11.97-.22,3.94-2.97,3.65-3.66,4.68-.18.26.74,3.52.6,4.64-.4,3.21-.66,15.88-.95,16.67s-2.95-.26-.85,2.89l-2.01.6,1.89,1.06c-1.34,2.43-.47,5.26.56,7.65.1.23,1.54.27,1.61.87.17,1.67-2.11,6.24-2.64,8.38-.42,1.68,1.85,3.34-1.4,3.01v.97c6.85,2.16-2.14,10.46-2,14.39.13,3.64,3.75,10.54,4.74,14.33.63,2.41.23,5.22.86,7.8,1.48,6.06,4.17,5.6,2.34,13.73-.06.28-1.54,3.82-1.97,4.94-.45,1.18-2.92-.1-.98,3.75l-1.85-.88-2.95,8.71,5.86,2.78c1.3,4.66-1.63,5.31-1.82,5.87-1.02,2.98,2.73,6.01,2.45,9.14-.51,5.72-4.15,13.24-1.49,19.84.39.97,5.08,2.63,1.31,6.48l-1.49-1.99.2,5.39,13.51,12.22-1.74,5.34-1-2.98-1,2.99-2.48-2.99c-5.21,2.89-5.2,6.94-1.5,10.98l1.48-1.99c4.6,2.71,5.14,4.6,4.49,9.98-1.98-.18.1-2.8-2.85-1.2l-.64-1.8-.51,4c-1.82.4-.63-1.69-1-1.99-1.78-1.49-2.88,8.53.5,8.79,3.99.3,4.72-7.06,5.52-9.78l2.49,1.99c.81-1.89,1.23-2.35,3.5-2l-1-2.99,1.77.73c.59-2.25,3.18-2.42,5.22-2.74v3s3,0,3,0c-.62-3.24,1.11-6.43,1.04-9.45-.21-8.87-6.96-15,8.96-12.54-.76-3.97.6-4.5-2.99-6.97,3.37.4.8-2.27,1.18-3.5,1.53-4.96,4.34-11.39,5.8-17.11,1.3-5.11,4.8-13.73.12-17.79l.9-5.57,1.98,1.01c-1.61-3.76,1.76-5.19,1.85-5.5.45-1.58-1.37-5.38-1.4-6.49-.11-3.49.39-19.03,1.55-21.24.61-1.16,1.97-.36,2.02-1.24l-5.01-1.51v-1.46c2.91-2.97,1.6-6.95,2.5-9.42.98-2.65,6.35-7.35,6.44-10.59.07-2.5-4.48-10.53-4.44-13.92.05-3.87,2.09-5.92,2.5-9.04.46-3.48-3.15-8.6-3.01-11.92.01-.33,3.12-2.05,2.62-5.55-.42-2.93-3.27-4.01-3.43-4.53-.61-1.92,2.66-5.79,2.57-7.81-.03-.64-4.31-11.45-4.68-11.97-1.17-1.64-4.16-1.12-5.85-4.39-.9-1.74-1.71-8-.74-9.27,2.05-2.7,4.56,4.96,6.02,4.97,4.22-4.18-.62-13.35,3.92-17.05,2.81-2.29,3.53.47,5.34.9,3.62.86,4.38-2.76,6.53-4.15,1.95-1.26,5.05-.91,5.97-1.56,1.01-.71,1.06-2.53,2.37-2.97,1.85-.62,22.98,1.33,19.31,7.84l-2.98.04.98,1.95c-4.13.09-2.22,3.54-6.95.04-.5,1.56.27,2.06.72,2.99,1.16,2.39,7.8,2.41,9.26,4.99-3.27-.17-3.78,5.38-5.17,6.74-.15.15-3.39.21-4.24.6-3.24,1.49-7.42,14.65-.7,16.09-.68,5.28-2.12,7.5-4.87,11.53l4.98,2.52c-6.51,4.54-2.12,9.9-1.77,16.25,1.46,1.76,6.26-.07,5.77,2.71-1.23,4.31-6.76,5.29-7.77,6.71-.17.23.7,1.06.47,1.6-.18.43-2.54-.27-.6,4.6l-2.1,1.1c3.83.45,1.06,5.22,2.16,6.4.24.26,1.81-.13,2.49.39,1.21.93,2.31,3.43,4.36,4.2l-5.99,3.99,9.03,6.03c-1.42,5.41-4.25,4.19-9.05,4.47,1.58,7.1,1.87,13.23.83,20.52l-1.83.95c2.9.81,2.19,2.16,1.89,4.87-.51,4.68-1.9,3.77-3.6,6.46-1.09,1.72-.02,4.15-3.27,4.17l1.88,1.06c-1.32,8.25-.15,16.4.86,24.41-4.95,3.85-3.05,10.57-4.66,17.01-.31,1.24-2.53,2.49-2.58,4.94-.03,1.53,1.2,2.88,1.11,4-.26,3.43-8.02,5.79.37,12.47-.55.04-1.49-.15-1.78.47-.56,1.19-1.49,7.58-2.51,10.01-.33.79-2.37-.01-.69,2.51l-3.3-1.89c-5.66,1.13-7.14,5.51-3.21,9.87l6.49-6.96c.5,5.48,3.95,10.08-.67,15.01-3.16.47-4.14-1.77-6.12-1.35.33-3.83-5.33,2.49-3.19,3.3-3.55-.84-5.48,5.4-7.41,8.09-.8,1.11-2.85,1.5-3.28,2.13-1.2,1.78-2,7.41-4.79,9.79-1.34,1.14-3.78,1.5-5.28,2.61-.65.48-4.35,4.26-4.67,4.25-1.65-.1-3.41-1.71-5.95-.76-.97.36-2.09,3.45-5.09,3.15-1.16-.11-.32,1.77-.54,2.71l-1.49-2-.99,2.01c-2.18-1.22-5.22-3.87-7.28-4.78-3.34-1.48-5.3.37-8.21-2.22l1.98-1.97c-3.14,1.09-2.51-8.22-3.2-8.85-1.59-.69-3.31-1.1-5-1.49-2.49-.57-3.21,1.88-2.76-2.65,4.26.68,4.02-2.74,2.97-6.01-9.73,4.42-8.8-4.92-11.24-11.23-1.28-3.3-5.16-5.11-3.43-9.47,1.13-2.84,3.54-1.08,3.67-1.27s-.37-3.48-.65-4c-1.45-2.67-3.91-1.88-5.91-4.27-.29-.34.41-1.45-.85-2.7-1.39-1.38-4.61-3.4-6.58-4.03,3.4-1.82,2.12-3.54,2.26-3.76.26-.4,1.59-.07,2.26-2.16.91-2.8-.91-7.07-.54-10.04l-1.98,1.99c-.23-3.09-1.4-5.99-2.7-8.74-.99-2.09-3.79-1-.34-6.83l2.97.55c2.7-4.91.88-10.27,1.31-15.16.15-1.75,1.6-3.42,1.69-4.31.04-.39-1.27-.38-1.56-.85-1.23-2.03.66-3.41-4.3-2.5l-.14,2.86c-5.65-.36-5.04-4.6-2.92-8.96l4.97,2c-.21-2.26.57-3.94,3.01-4.02-2.67-3.42-5.91-6.12-4.99-10.97l2.99.99c-3.03-3.22-.94-7.07-1.02-10.48-.06-2.57-2.09-7.01-.76-9.28.45-.77,4.09-1.68,4.58-2.39.21-.3-1.84-2.17,1.18-1.83.2-.24-2.85-4.31-2.97-5.51-.05-.49,1.6-.36,1.81-.93.31-.85-1.04-5.32-.82-5.51l3.02-.5-4.01-4,1.87-.93c-1.43-3.57,1.52-6.84,1.08-11.03-.31-2.99-1.64-5.14-1.96-8.06-.76-6.98,1.86-19.29,1.42-27.58-.24-4.53-1.82-1.87-1.48-8.46.26-5.12.46-2.35.86-3.83s-1.19-4.81,2.2-4.54l-2-1.48,2.01-1.49-2-1,1.99-.99c-4.85-.56-2.36-10.08-3.11-12.33-.47-1.42-3.23-1.53-2.89-3.66l-1.1,1.83-1.82-.8c-2.32,2.92.33,7.52-.15,9.33-.33,1.23-2.67,1.09-3.45,3.57-1.05,3.32,1.92,15.65-3.97,17.02l-1.48-2-.02,3c-2.81-1.7-5.08-.87-7.98,0,1.06,5.79,11.62,3.71,9.98,10.98l-1.98-1.02c.23,1.86.13,3.35-2,3.03l1.8,1.43c-.59,1.91.56,3.91.18,5.81-.09.48-5.03,5.42-5.35,6.67-.44,1.73.43,4.63.04,6.76-.79,4.23-3.65,5.65-5.35,8.53-.34.58,1.92,2.67-4.32,2.76l.81,1.49-1.8.5,8.91,3.07.07,2.91-1.78-.73c-.29,1.84-3.73,3.46-4.2,4.43-.83,1.73-.7,4.39-1.2,5.09-.88,1.25-5.84.45-6.7,2.8l-.03,3.31,6.95,1.66c3.75,3.07-.15,6.14-.14,8.9,0,4.04,5.36,4.98-1.15,10.16-.23.19-.98-.54-1.53-.34-.41.15.52,2.57-3.22.66l.87,1.88-1.86.12,1.98,1.97c-3.12-.16-2.37,3.53-3.95,5.53,6.36,2.05,4.38,3.22,5.6,7.22,1.29,4.26,2.58,2.23,1.04,7.71-1.63,5.82-2.41,4.72-5.55,9.12-2.67,3.74-.79,9.17-1.25,13.75-.41,4.12-5.02,14.32-3.42,16.64,1.11,1.62,6.02.86,6.53,4.47l-8.04,4.13c.29,5.33,1.76,8.21-.03,13.57-.24.71-1.5.64-1.74,1.27-.93,2.47,2.82,10.91,2.55,12.78-.24,1.61-3.16,4.6-3.29,6.2-.19,2.3,3.36,5.36,2.56,6.49l-1.99-.5c.34,2.37.3,3.28-1.97,3.94l3.95,12.04c-8.09.1.12,11.18-.99,12.48-1.3-2.11-4.87-1.39-5.85.12-.18.28,1.83,3.04-1.1,6.14-1.2,1.27-2.71,1.25-4,2.3-.58.47-3.3,3.26-3.75,3.37-14.76,3.6-22.89-1.93-32.84-11.93,2.1-2.79.46-9.45-.91-12.51-1.64-3.65-17.13-17.23-2.53-14.45v-3.98c-3.4.51-4.49-.29-5.45-3.48-1.49-4.97-5.16-20.62-5.35-25.3-.11-2.76,2-3.09,1.06-6.94-1.52-6.23-2.23-3.04-3.01-3.55-2.09-1.35-1.38-2.9-1.59-3.42-.1-.24-1.45-.28-1.61-.95-1.19-5.22,1.66-5.37,1.76-5.8.78-3.47-5.3-12.44-5.81-16.48l-1.98,1.98c-.85-2.64-2.2-5.66-1.59-8.49.24-1.12,1.74-3.27,1.57-3.48-.28-.34-2.42.77-1.99-1l1.99-.5-2.99-5.05,1.69-.65-.71-1.79,3.02-.02c.07-4.08-5.87-10.26-.5-11.93l.49-1.53c-2.85-2.54-5.89-2.44-7.45-6.42-.1-.25-.59-5.18-.53-5.44.18-.73,1.79-.51,1.83-1.09.33-5.71-1.97-10.96-3.59-16.02-1.33-4.13.92-8.17,4.75-9.99-10.72-4.21-7.31-13.2-8.68-22.27-1.13-7.45-4.44-13.88-5.32-21.18l-.99,4.98c-3.02.79-3.78-1.33-4.38-3.92-1.35-5.81,2.4-11.32-.61-17.05h3.99s-.99,3.98-.99,3.98l4.89-.06.14-11.83,12.86-2.99c.75,2.89,2.66,5.43-.92,6.39,1.78,4.4,6.87,3.86,8.32,6.79.41.84,1.12,7.16-1.31,5.72v.97c.65,0,1.34-.19,1.74.5.67,1.16,2.76,13.39,2.75,15,0,1.34-2.61,5.17-2.45,5.42.05.09,1.38-.18,1.88.81,2.11,4.14,2.06,6.09-.01,10.19l-1.91-.96,2,2.5-2,1.48c5.21.93,3.69,8.69,5.23,12.2.83,1.89,2.72,3.22,3.65,5.39,1.82,4.22,2.5,11.41,7.09,13.39l-3,.99,1,3-1.98.48c.99,2.01,4.64,3.06,5.35,4.78,1.11,2.68-.49,4.17-.33,6.18.15,1.9,1.99,3.47,1.97,5.06-.02,1.78-7.25,7.28-8.93,8.92,1.05,2.74,2.37,5.85,5.65,6.34,2.47.36,3.74-2.22,5.52,1.44,1.55,3.17.66,6.47,1.19,9.23.19.97,1.35,1.53,1.56,2.01.3.7-1.49.15-1.93,1.23-2.06,5.02-1.66,6.7.95,11.24l1-1.99c2.46.48,1.93,2.53,2.47,3.74.88,1.96,4.59,6.61,5.1,8.22.99,3.08-.72,8.65-.11,12.03.74,4.09,3.04,6.92,3.56,10.92l5.86-.04c-.78-2.93,3.49-3.57,2.91-6.25-.42-1.92-6.48-6.55-4.81-10.65l1.97,1.02c-.66-2.32,2.79-5.15,2.68-6.48-.07-.9-2.12-2.03-1.62-3.89s3.91-1.96,4.72-2.8c.17-.17-.4-1.24-.09-1.78,4.55-8.11,1.24-8.18,2.38-15.47.88-5.64,3.72-12.55-1.04-18.05-.26-3.18,2.92,1.45,1.98-2.48l-2-.5,1.77-.66c-1.62-1.54.99-1.89,1.04-2.31.32-3.19-2.99-7.24,0-6.65-2.16-4.28.68-3.07,1.28-5.36.39-1.51.75-7.85.53-9.5-.19-1.43-2.04-2.75-1.61-4.45.97-3.81,6.73.75,6.99.46.98-3.76-2.53-8.01-2.58-10.5s2.49-2.47,2.47-2.91c-.12-2.54-2.61-7.03-1.94-9.86.13-.54,5.4-2.87,5.11-7.12-3.81-1.06-.81-4.41-2.04-7.57l1.99,1.02c-.97-2.16.31-4.67.07-6.49-.53-4.12-3.57-5.09.01-10.44l1.91.95c.05-1.08-.2-2.36.17-3.36.2-.54,3.62-3.82,3.68-4.14.71-3.45-.5-8.97-3.83-10.99,3.84-1.45,2.01-2.72,2.3-3.29.15-.28,1.4-.23,1.47-.69.8-4.79-.51-12.82-1.78-17.5l1.98,1.03.02-3.02,3.99,1.99c-.88-3.1-2.65-8.15-1.98-11.25.15-.69,1.49-.79,1.86-1.54.8-1.61,1.34-4.23,2.85-5.26,3.22-2.19,6.24,3.15,10.25-.93l-2-1.49c2.54-6.86,5.05-.48,5.46-.52,2.11-.21,4.59-3.11,6.52-3.6,4.98-1.26,9.43,7.83,14.74,9.41,4.93,1.47,11.12-2.16,16.22-.83l-.95-6.94,5.85-.18,1.2-3.22c-6.75-4.35-6.09-11.27,2.52-5.17Z"/>
      <path d="M1799.51,327.3c.55.73,1.99.96,2.43,2.02l5.12,11.65-6.93,8.65-1-1.99-1.16,1.69c-6.11-.26-10,6.2-11.34,11.38l-2.48-.09,2.07,6.91c1.05.34,2.13.16,3.16-.15,1.23-.37,11.89-5.59,13.47-6.49,1.75-.99,4.59-5.1,6.81-5.97.81-.32,7.09-1.36,7.87-1.22,3.31.6,4.49,3.49,5.08,3.68.67.22,13.16,1.24,14.04,1.09s.24-1.47.47-1.84l1.98,1.98.51-2.99,5.71,5.75c3.43-.16,12.18.86,14.8,2.75,3.17,2.3,6.66,7.83,9.06,9.91,2.46,2.13,9.15,4.56,11.63,6.86.49.45,7.29,9.94,7.7,10.68.33.59.56,12.7.44,13.49-.26,1.7-3.79,10.35-4.49,13.16-.34,1.38.18,4.73.61,6.26-2.93,1.32-4.38.68-6.95-.94-.23,3.1.14,4.6-2.28,6.63-.25.21-1.25-.51-1.47-.3-4.95,4.78-5,10.39-7.2,12.99-.55.65-6.08,3.16-6.78,3.92-2.97,3.25-1.41,11.61-1.28,15.72l-1.79-.72-.72,1.77c-5.18-3.95-7.72,1.07-12.23,1.78-2.7.43-4.65-2.2-4.24,1.13h-1.99s-.99-1.97-.99-1.97l.9,3.56c-4.63,1.12-.28,7.16-.08,7.92.6,2.24-3.28,6.68-2.92,8.87l10.06,10.15,5.95-2.48c.76,4.28,7.76,5.51,10.04,7.47,1.73,1.48,1.57,4.58,4.28,5.74,2.84,1.22,11.34-1.02,14.7,1.26,2.42,1.64,1.57,6.69,4.25,7.8,3.16,1.31,5.05-.06,7.33.21,1.59.19,3.58,1.91,5.88,1.41,2.02-.44,2.57-2.15,4.55-1.95-.22,4.33,2,8.63,2.64,12.63.22,1.34-.57,7.8-.41,8.18.1.23,2.69.29,2.76,3.75.11,5.17-3.26,3.67.44,12.16.14.31,1.7.03,1.58.71-.77,4.43-5.71,2.62-6.77,3.73l-1.14,3.66c12.7,5.07-4.05,13.55-9.08,8.13,4.89-2.56,7.82-1.54,5.97-8.99-4.85-1.85-6.74,4.59-9.66,4.79-1.11.08-1.97-1.25-2.79-1.32-1.47-.12-2.93.86-4.8.35-3.33-.9-9.86-10.95-13.23-12.83l-1.48,1.98-.13-1.78c-7.23,1.92-8.4-8.53-15.88-6.2.51-.87.64-1.58.08-2.49-.47-.77-6.86-6.01-7.31-6.17-.98-.35-3.98.86-5.13.61-.75-.17-.63-1.6-1.12-1.7-3.31-.68-8.17.39-11.03-2.24l-.93,1.91-2.53-.92-4.86,12.77c2.5,5.04,5.79.72,7.76,7.85,1.68,6.1-.99,5.16-1.5,6.62-.7,2.01.14,4.48-2.29,5.16l1.79,6.15-1.9.42,1.98,1.97c-2.85-.55-1.29,2.81-2,5.02l-1.98-1.01.88,2.55c-2.45.66-1.26,3.59-3.16,5.15-1.42,1.16-8.26,2.78-8.64,3.38l-.1,2.42,2.03.97c-2.31,6.29-19.35,10.45-23.98,6.99-4.31-6.98-8.55-14.12-13.06-20.96-.53-.81-.07-2-.28-2.26-.93-1.2-5.78-3.59-6.67-5.72,3.03-.81,1.99-2.71,2.01-5.48l1.98,1.99c0-2.56.55-6.07,1.29-8.46.56-1.8,3.22-6.12,4.01-7.76,4.73-9.8-3.89-10.06-4.19-15.28l3.35-4.59,2.54.14-1-2.98,3.01-1-4.94-1.61-.06-7.38-6.35.92c-3.03-1.48-.65-4.36-.6-6.89,1.95,1.86,3.97-2.93,5.94-1.01l-.83-18.49c.55-.52,2.56-2.72,2.84-3.18,1.06-1.72.17-4.67,2.98-4.33l-1.78-1.1c2.05-2.38-4.56-9.41-4.19-9.85,3.24.28,1.1-1.72,1.6-3.02,1.26-3.25,5.05-3.46,4.39-6.99l2.02.48c-3.32-3.77-5.36-7.91-10.02-9.99v-1.46c3.45-.69,9.62-14.62,7.98-17.01l-1.84.87c-6.4-7.72,1.59-11.91-.02-19.25l-4.13-.6.8-1.5-1.78-.5c.07-1.39,3.45-2.46,3.74-3.51.97-3.55-3.1-7.09-1.98-10.71-1.16-3.6-5.36-2.7-6.39-5.08-1.61-3.72-.6-7.03-5.42-9.23-.01-3.35,4.82-7.06,5.65-8.66,1.08-2.1,3.13-10.3,4.52-11.63l8.25,2.72,3.67-5.23-5.06-5.57-1.97,1.98-.16-1.77c-2.79.4-10.93.83-10.86-2.2h-.97c-2.31,7.06-11.83-.6-14.02,7.97l-1-1.99c-1.66-.42-.54,1.55-1.45,1.83s-5.08-1.12-5.53-.82c.37,2.4.97,7.65.33,9.82-.93,3.17-3.22,1.18-1.22,6.35.54,1.39,3.24.94,1.68,6.1-1.14,3.76-9.59,1.28-10.63,7.44-.36,2.15,1.52,2.99,1.79,4.79.94,6.23,1.39,13.93-.26,19.9s.03,15.78-1.99,22.95c-.16.57-1.58.47-1.71,1.22-.31,1.85.79,5.64.86,7.8l-2.85.5c-.86,2.87,1.82,5.3,1.97,7.55.27,3.93-3.69,6.65.01,11.87-4.49,1.76-.88,3.59-3.99,6.06l2.08,1.09c-.13,2.06-1.68,4.69-1.13,6.69.26.95,1.96.96,2.41,1.72.43.71.86,3.43,2.63,4.48l-3,.99c2.8.76,1.95,3.02,2.88,5.4l-1.87,1.08,1.99,2.01-2.98-1.01c-3.24,5.88,1.43,9.1,2.54,13.46.77,3.04-1.47,6.98-1.16,9.07.1.7,4.15,6.31,4.39,8.15.34,2.32-3.39,4.27-3.55,4.78-.24.76.85,12.75,1.12,13.81.63,2.44,4.14,4.87,4.39,6.29.53,3-2.82,5.06,4.15,6.49l-.79,10.19c.46,1.5,6.2,4.03,7.46,7.15.67,1.67-.28,13.82-.77,15.8-1.35,5.46-8.72,11.41-6.8,17.68l-14.5.13c-.59.2-.33,1.75-.92,1.74-1.07-.02-8.64-.5-9.11-.75-4.14-2.19-1.9-5.2-3.75-7.83-.69-.99-2.8-1.07-3.97-3.61-2.91-6.27-2.43-19.94-1.76-27.2.28-3.09,4.83-9.31-.95-10.44l1.99-1-1.99-1,2-1.98-2-.02,1.89-1.46-2.91-15,1.8.22c5.56-5.17,2.13-7.85.22-13.73,3.21,2.07,1.27-.31,2.59-1.9,2.18-2.64,3.67-2.64,3.51-7.61-.1-3.19-2.38-4.52-1.33-7.34l-1.79-.62,1.8-.62c-.19-2.48-1.72-4.64,1.2-5.36-4.26-4.34-6.29-8.95-2.98-14.48,1.7-.43.44,1.61,1.46,1.79,2.69.46,3.41-.95,5.52-1.81l-1.99-.99,2-1-1.75-1.16c-.04-5.63,6.4-3.69,2.74-10.81-1.93.82-.33,2.89-3.97,1.97,1.07-2.32-2.01-3.27-2.02-3.57-.03-.98,1.1-2.38.99-3.86-.18-2.53-3.47-5.95-1.83-9.39,6.75-.41,2.89-6.71,6.83-7.15l-3-1.48,3.01-2.48c-3.79-.35-7.24-3.59-4.99-7.3.59-.97,2.83-.38,2.02-3.2-.13-.43-1.99-.45-2.07-1.12-.2-1.67,1.54-4.33,1.06-6.39l2,.5-2.02-2.99,2.01-1.49-2.97-.03.99-8.96,1.98,1.99c-.34-4.35,1.45-11.31-2.99-13.46.66-1.63,2.98-3.72,3.64-4.78.19-.31-.57-1.16-.34-1.52.24-.38,1.58-.08,1.68-.21.29-.37-3.47-3.43-2.84-5.5l1.85-1.46-1.99-1c6.5-2.23-.06-5.09-1.4-6.99-1.44-2.04,1.5-8.44-3.11-11.01-.59,6.64-7.98,3.25-11.73,5.19-2.09,1.08-6.2,5.86-7.03,6.15-1.67.57-3.16-.29-4.64.22-2.2.76-6.05,4.02-7.72,4.2s-3.86-1.5-5.9-1.41c-1.68.08-2.43,1.63-4.51,1.26-3.24-.58-4.28-8.72-4.96-11.6-1.1-.88-3.83,4.49-4.18,4.78-.25.21-2.24-1.79-1.82,1.2-4.13-1.78-1.21-9.85,3-6.98.91-2.61-1.49-1.69-1.78-2.45-.4-1.05.03-7.88.88-8.46,11.03,2.99,12.61-9.39,14.89-17.57,3.69-3.23,9.62-3.38,13.29-5.45,1.77-1,5.41-5.46,6.97-6.69.3-.24,2.16,1.53,1.77-1.32l3.73,3.46c-.81,3.33-3.9,1.64-1.6,5.35,7.3.82,10.45,4.23,17.78-.92l-1.92-5.9c4.41-1.48,6.71-.72,9.5,2.98l1.48-1.99-.99,3.98c3.77.78,5.11-2.8,4-5.97,2.59.16,4.81,1.11,7.49,1.08,4.88-.05,13.18-3.09,13.93-3.03,1.22.1,3.07,1.52,5.09,1.47.77-.02,5.25-1.37,5.42-1.6s-1.73-3.47.72-5.01c3.19-1.56,6.86-.27,10.08-1.65,2.06-.89,4.94-5.77,5.49-5.95,5.08-1.62,8.52,1.95,12.24-5.21,2,2.62,7.67,4.62,9.5,6.45.86.86.74,2.27,1.37,3.1ZM1824.13,402.54l-3-4.4c-8.1-1.62-4.19,8.27-5.89,10.71-1.16,1.66-5.47,2.13-5.93,2.86-2.28,3.67,3.35,11.96,7.22,8.9l.61-3.08,1.81.81,4.72-5.78c.94-2.05-7.69-8.21.45-10.03ZM1832.12,400.57c-8.28,2.41-6.93,14.15,2,13.98-.62-2.15.26-8.88-.17-10.47-.1-.37-2.83-1.19-1.83-3.52ZM1810.8,524.83c-.87-.62-2.78-2.38-3.66-.92,6.32,7.12,2.04,13.08,14,6.48-1.08-5.68-3.85-4.93-8.53-5.86l-.97,1.89c-.86.18-.28-1.2-.84-1.6Z"/>
      <path d="M650.32,461.91c4.22,2.86,4.6,10.75,13.37,9.58l-.89,3.9,1.88,1.07-1.99.99,7,3.51c-2.7.72-2.18,1.88-2.02,4.49l-2.99-.99.41,1.98-3.38,1.5c4.1,1.85,4.49,8.81.99,9.5v.97c9.19,4.09,0,8.75.13,10.52l5.85,5.46-4.99.02.99,2.99-2-.5c.35,3.37,1.87,7.21-1.82,8.94l.72,12.06-1.9.97,1.98,1.11c-.78,13.61.02,27.3-.11,40.84-.02,2.27-.14,4.11-.16,6.61-.06,8.74-.96,17.46.17,26.18-.64,2.13-4.95,1.55-6.38,6.18-.12.38-.48,7.49-.43,7.88.22,1.66,1.75,2.83,2.03,5.05.42,3.34.44,17.94-5.09,16.51l1.1,3.41-2.1,1.05,2.02,3.51-3,.02,1.99,1.48c-2.12,1.3-.24,4.01-2.98,3.52l1.98,1.48c-1.88,1.35-1.72,3.47-2.3,4.98-1.96,5.1-5.26,12.12-7.46,16.98-.19.41.42,2.18-.1,2.92-.75,1.06-2.98.23-4.62,1.59-2.8,2.32-7.04,11.04-6.51,14.99l-1.98-1.01c1.24,3.46-.74,6.06-2.11,9.19-.34.76-1.63.86-1.67.98-.27.69,1.13,2.29.79,2.81-.12.19-3.12.4-3.78,1.18-.15.18.54,1.32.16,1.83-1.85,2.53-1.45,2.73-2.1,3.71-3.79,5.76-6.78,1.01-12.34,2.72-4.92,1.52-10.9,7.62-14.74,9.34-2.32,1.04-4.73.4-7.11,1.75-1.41.8-2.32,2.82-3.73,3.31-3.53,1.23-1.74-1.43-2.55-2.59-1.59-2.29-7.63-.63-9.95-.81-2-.15-5.44-2.63-7.66-1.25-.68.42-.68,3.25-2.52,2.7-2.46-.6-3.8-3.14-5.64-4.26-1.16-.7-8.37-1.24-3.01-3.13-.65-2.43-5.94-6.75-6.02-7.21-1.28-7.54,4.33-8.09-7.89-13.41-.06-3.02,3.65-3.77,1.96-5.79,5.45-.52,1.85-2.45,4.99-3.58-1.61-8.46-8.81-5.71-12.9-11.19l.88-6.28,1.98,1.01c-1.59-3.8.59-6.14.78-9.23.29-4.72-2.81-14.71-3.75-19.36-.51-2.54-3.38-13.55-2.87-14.84,1.19-3.03,8.69-3.63,4.84-10.5l-1.48,1.99-4.34-4.74c1.21-6.89-2.55-15.05-.05-21.41.36-.92,2.32-2.52,3.68-5.46.74-1.61,2.73-3.22,2.86-4.84.16-2.02-2.17-2.33-2.58-3.26-1.31-2.93-.8-6.73-1.66-9.33-.8-2.43-5.32-7.9-4.22-10.42.34-.78,4.13-.44-.17-1.92,1.19-1.99,2.13-5.81,2-8.05-.17-2.97-1.55-4.26-1.73-6.59-.42-5.58.91-5.46-1.18-10.69-3.31-8.3-3.99-17.51-7.12-25.67l1.78-.63-.76-3.84,1.98,1.99-1.99-4.5,1.99-.99c-.85-2.2-4.58-7.68-4.82-9.2-.28-1.77.95-3.82.9-5.8-.15-5.57.36-11.73-4.08-15.45,3.52-.91,6.22-3.76,9.51-5.1,1.67-.68,3.34.21,3.43.06.31-.57-.48-2.22.65-3.06,5.15-3.83,14.39.09,20.38-.9.38.4.25,7.79.51,9.5.63,4.14,3.02,11.24,2.99,14.96-.01,2.46-1.62,5.8-1.55,8.97.07,3.39,1.8,7.96,1.07,10.87-.29,1.17-2.45,0-2.02,1.63l1.86.48-.86,1.92,2.75,3.08-.58,7.33c7.57,2.7,1.2,6.51.34,11.26-.69,3.77,1.28,6.66,1.56,10.38.29,3.94-1.54,8.52-1.17,12.01.16,1.46,5.03,5.35,4.09,6.46-.91.18-4.71,1.91-4.84,2.14-.11.19.01,4.16.07,4.38.18.67,1.44.45,1.7,1.24,2.06,6.36,2.88,12.9,8.07,17.73l-7.95,3.98,4.99,6.03c.87,3.79-6.28,6.55-4.89,9.95.36.88,2.35,1.01,3.27,2.45,1.27,2,3.16,14.66-2.39,13.52.83,6.39,4.88,5.2,6.01,7.26,1.53,2.8.11,7.29.12,9.79,0,.53,1.68.3,1.87,1.11.58,2.44-1.66,7.77-.82,11.61.64,2.94,4.4,5.32,5.39,9.68.62,2.7-.79,5.83.17,7.7,1.22,2.36,4.1,3.28,4.26,4,.41,1.86-.68,4.38.46,6.31,2.85,2.91,7.08,1.5,10.62,2.41,2.01.52,3.17,4.74,6.88,3.56v-4.99s1.82.82,1.82.82c.61-3.65,4.14-2.83,5.85-4.14,4.69-3.62,4.82-6.17,6.06-11.45,1.06-4.52,2.47-15.5,5.56-19.86,1.18-1.66,6.2-4.41,6.61-5.98l-2.73-7.21,1.8-1.1-1.88-.1.9-5.91,2.99.99c-.72-1.73-1.75-2.18.99-2v-.97c-3.27.75-1.19-5.98-.21-7.75,2.54-4.61,12.74-7.27,3.19-12.82-.05-6.02,6.58-3.85,5.61-9.94-.51-3.21-7.34-3.59-7.57-7.44l5.99-.55c6.25-5.28-.86-11.95.26-17.71.56-2.85,2.11-2.36,3.04-4.01,3.01-5.31-.55-11.36-5.28-14.2,3.75-2.34,4.64-4.79,6.28-8.73.65-1.56-1.31-2.52,1.71-3.26.06-.99-1.61-.06-1.9-.97-.49-1.59,1.02-10.54.48-13.03-1.09-5.03-5.97-8.09-4.58-14.78.06-.29,2.95-2.98,3.08-4.11.33-2.8-1.29-14.85-4.03-16.02-1.96-.84-8.78,2.59-6.95-4.42l5.92-.66c4.41-3.99-.34-5.68-1.78-7.64-.19-.26.64-1.09.42-1.55-.15-.33-2.35-.09-1.58-1.55l7.08-18.48c2.64,1.72,2.1-2.66,5.8-3.77,3.3-.99,8.86,2.12,6.01-5.39,1.07.11,2.02-.79,3.1-.53.63.15,10.51,5.25,11.52,5.94Z"/>
      <path d="M789.88,426.25c.52.7,2.15.64,2.58,1.94.87,2.59-1.28,4.36,3.15,5.35-.92-8.17,8.52,3,8.82,4.28.46,1.97-1.98,4.92-1.82,7.13.11,1.57,1.69,3.05,1.65,4.05-.07,1.7-4.53,8.61-3.09,12.52l-1.04.76c-8.84-3.11-5.6,6.79-7.73,8.97-3.17,3.23-7.14-2.19-10.27-2.38-3.49-.22-5.21,3.11-5.99,3.42-1.9.76-6.29-2.25-5.51,1.19l-3.49-2.98c-.36,1.69-2.78,2.38-4.47,2.55-8.18.84-22.45-1.82-29.71,1.24-3.82,1.61-10.91,7.93-13.31,8.71-1.16.38-3.71-3.43-5.52.49-.63,1.37.69,3.29.38,5.21-.63,3.84-5.53,20.08-4.49,22.3.51,1.09,2.11,1.01,2.64,2.23.8,1.81.51,8.02,1.25,9.69.25.58,2.96,2.52,3.93,4.8.71,1.67,1.28,6.97,1.73,7.21,4.66,2.52,7.9-4.04,9.57-4.2,2.04-.2,10.05,2.94,12.03,2.44.49-.12.46-1.39.66-1.44,1.05-.3,2.04.82,4.17-.4s2.82-3.8,4.66-5.41c.66-.57,6.61-5.1,6.78-5.66.54-1.87-.05-3.88,2.21-7.09.39-.55,1.3-.84,1.99-.75l-1.99-1.48c2.44-6.72,6.92-1.08,9.04,2.94,1.53,2.89,6.04,21.3,6,24.04-.01.92-2,7.05-2.29,7.3-1.38,1.18-3.97-1.76-1.77,3.18l-1.98-1.02c-.52,5.35-8.2,7.26-8.04,14l-1.9-.95c-.29,1.1-.47,2.46-1.16,3.37-1.73,2.26-3.67,4.33-5.9,7.09-.85,1.04-.75,2.74-1.17,3.27-.17.21-4.28,1.16-5.31,1.53-3.58,1.29-9.83,1.53-14.27,3.37-1.99.82-.09,3.27-4.25,1.31l.49,2.01c-2.93-2.02-2.79,2.57-7.49.99l-1.99,2,2.99,1.48c-3.76,2.58-3.43,10.61-6.98,11.51l1.99.99c-2.72,4.62-.08,10.45-2.06,15.91l-4.99.5c-2.07,1.34-.26,4.61.07,6.55l4.98-1.98c-1.33,1.53.21,4.5-.15,5.37-.72,1.76-3.01.91-2.84,2.6l3.01.57c-.92,8.37-1.66,17.21,3.04,24.6,3.53,5.56,9.96,2.93,11.99,8.79,1.06-1.45,4.56-1.09,4.75-1.25.62-.49.74-2.25,2.14-3.15,1.9-1.22,8.07.21,10.68-3.9.94-1.48-.26-3.55,2.04-4.5s5.44.07,6.68-.24c.75-.19.58-1.51,1.15-1.65,2.5-.66,8.93-.41,8.5-3.25,2.7,2.85,3.5,4.83,7.96,2.95l-.73-1.8,1.75-.66-2.99-1.99c.21-.85,7-8.29,7.94-8.89,1.36-.86,6.98-1.36,8.58-1.82.57-.17.41-1.84.93-1.78,3.67.38,8.82,7.23,14.53,2.99-.48,2.95-1.88,3.64-1.53,7.02.49,4.73,5.37,9.57,5.55,11.53.21,2.29-1.9,4.29-2.08,6.93-.2,3.01,2.44,9.94-2.19,11.84-1.97.81-3.85-.08-5.56.3-2.92.65-8.83,3.11-9.83,3.32-3.84.79-9.56-1.88-9.32,5l2.41-1.04.78,1.76,1.7-.61c2.72,4.53-3.14,3.25-2.92,5.88h-.97c.43-2.78-1.9-2.04-4.02-2,1.11-1.77-.15-3.33-1.98-3.99-.36,5.4-8.04,10.8-12.98,10.55-3.59-.18-6.97-2.86-10.45-.49l-1.58,4.93c-.41-.77-3.54.21-3.73.35-.8.6-2.21,3.38-2.41,3.44-1.13.36-4.03-2.6-2.11.98l-1.79.84-.09,6.23-3.86.12-1.48-6.97c-1.36,1.8-3.99.89-5.04,1.22-.49.15-.4,1.3-.68,1.45-2.6,1.37-1.58,1.24-3.81,2.79-1.43.99-5.34,2.16-5.78,2.8-.5.73-.01,2.44-.25,2.65-1.87,1.73-16.46-3.1-18.61-5.27-1.1-1.1-2.16-4.33-2.51-4.54-1.01-.59-5.21,1.07-6.36.71-.91-.28.21-2.24-1.45-1.83l-.99,1.99c-1.06-2.57-3.53-5.92-3.98-8.59-.51-2.95,1.53-5.75,1.49-6.86-.13-3.83-2.13-7.17-1.87-12.6.23-4.82,1.97-8.55,2.16-12.49.2-4.19-2.5-9.29-2.42-13.9.07-4.07,1.98-7.99,1.66-13-.17-2.6-2.6-10.89-1.93-12.98.26-.81,2.2-.08,1.87-.97l-2-2.01c2.41-.56,2.19-5.33,2.43-8.04,1.15-12.8-.7-28.73-.87-41.89s1.72-28.84.5-41.01c-.37-3.74-2.49-5.08-2.68-6.88-.36-3.51,2.53-1.52,3.12-2.45,1.52-2.41,1.6-6.34-1.23-7.93-3.5-1.96-3.99,2.42-5.43-4.57-.53-2.55-.16-5.05-.83-7.58l1.98,1.02v-2s-1.98-.99-1.98-.99c3.9.41,5.19-3.87,4.62-7.01-.45-2.5-4.61-11.28-7.62-9.99l1.77-1.14c-1.35-2.29.96-1.63,1.21-2.5,1.08-3.84-2.68-3.62-3.98-6.85,1.72-1.97,5.48-2.03,5.64-4.99.1-1.92-3.86-4.8,1.38-7.05l-.9-6.31c6.92-.73,5.3-3.55,7.43-7.06,1.89-3.11,5.88-.41,8.6-.58,4.05-.25,10.64-2.4,14.36-4.18l5.08,6.7c1.59.36,2.72-2.86,4.95-3.03,2.78-.21,6.99,4.47,10.44-.45-2.56-.95-3.1-2.8-2.98-5.49,4.5,1.42,11.1-.05,14.98.39,1.27.14,7.22,2.97,7.89,2.51.43-.3.41-2.96,2.81-3.7,6.31-1.96,16.35-.95,21.61-2.21.76-.18.61-1.79,1.37-1.96,4.64-1.03,8.3.93,10.43-5.97l2.42.84.48-1.87c1.8-.32.53,1.73,1.25,2.7Z"/>
      <path d="M521.54,168.53c.32-.07.25-3.17,5.17-.13,2.62,1.61,1.84,4.67,3.72,6.55,2.77,1.9,5.2-3.27,10.39,1.35,6.26,5.59,17.42,12.89,22.95,19.98,1.66,2.13,1.8,5.77,3.51,8.48,2.14,3.39,9.68,9.94,10.91,12.08,1.37,2.4,5.51,19.15,6.1,22.93.47,3.02-.83,6.81-.15,8.99.12.39,3.66,6.44,3.9,6.76.59.81,2.98.85,3.57,2.91.56,1.94-.89,3.94-.92,5.84-.16,10.76-.58,22.02,1.95,32.98l-1.69.56.76,2.25c-3.58,1.45-.75,5.99-.95,9.05-.27,4.23-2.2,13.6-3.27,17.79-.93,3.64-7.75,12.28-8.26,14.58s2.3,11.28-2.27,9.41c-.47,2.47-3.1,1.71-4.63,2.84-2.05,1.51-5.36,7.28-5.87,7.6-2.06,1.31-4.56-.54-6.28,4.22-.62,1.71-1.2,5.7-1.75,6.79s-5.15,3.35-2.59,7.13l10.91.58.97,3.51c-4.19-1.86-8.25.98-11.5,1.09-2.01.07-4.03-1.24-5.76-.89-1.6.32-3.96,3.12-6.47,3.6-3.07.59-5.46-.7-8.25-.41s-6.41,2.41-9.65,2.53c-5.41.21-10.95-2.74-17.91-1.98s-9.03,6.37-14.42-2.44l1.99-.5c-1.4-3.93-4.38-1.66-7.29-3.1-5.14-2.55-4.82-6.99-13.47-8.69-2.32-.46-7.22.94-9.02-.39-.88-.65-1.87-6.99-3.73-8.77-1.47-1.4-3.77-1.26-5.43-2.57-5.09-3.99-8.04-12.79-12.06-17.91-2.2-2.8-10.96-9.31-11.51-10.55-.91-2.04,1.13-5.75.34-9.23-.85-3.77-4.34-3.48-5.77-7.23-2.11-5.53-.86-14.04-2.24-19.74-2.23-9.22-6.03-19.08-7.35-28.64-.8-5.77,2.11-8.03,2.19-12.52.08-4.26-1.83-10.67-2.66-14.95,11.39-2.04,4.18-10.28,5.02-14.83.12-.64,1.63-.61,2.18-2.04,1.62-4.26-.68-7.87,1.51-11.33,1.36-2.14,4.18-2.5,5.2-5.01-4.23-9.98-.29-7.69,4.14-12.75,2.03-2.32,2.39-5.69,4.93-8.06,1.8-1.69,4.71-2.23,6.09-3.9,1.48-1.8,1.99-6.61,3.62-7.61,2.24-1.37,6.56-.68,9.61-2.14,2.48-1.19,3.97-4.5,6.66-5.33,4.5-1.38,8.36.82,11.69-3.82.6-.83.22-2.37.4-2.59.09-.11,1.26.9,1.76.66,2.89-1.43,6.98-3.07,11.23-2.07,6.04,1.43,25.73,9.96,29.73,9.05ZM503.55,202.49c-4.53.49-4.72-1.47-6.74-2.07-2.99-.88-7.47.29-10.56-3.61-2.02,4.34-8.11,3.55-10.99,5.94-1.54,1.28-16.24,18.09-16.73,19.28-2.55,6.19-1.2,4.7-5.19,10.78-1.82,2.77-3.59,11.92-4.05,15.45-.35,2.7-1.69,19.87-1.52,20.91.37,2.29,2.91,3.38,3.58,5.49.94,2.97.11,6.22.67,9.32.9,5.03,7.46,20.56,9.86,26.1,1.23,2.86,5.05,5.89,5.67,8.32.76,2.97-.35,5.8.99,8.99.23.54,5.84,9.31,6.24,9.75,1.37,1.51,23.4,13.62,25.73,14.24,3.08.82,16.55,2.13,19.62,1.92,4.72-.33,8.72-5.11,12.66-6.22,2.53-.72,5.72.43,8.68-.78,1.45-.59,12.23-16.5,13.51-18.96,2.75-5.28,1.15-4.34,5.43-9.89.53-.68,3.18-14.33,3.82-16.77,2.76-10.55,1.28-5.36-.03-14.46-.13-.93-.36-11.58-.24-12.18.89-4.26,6.5-3.29,1.78-10.53-1-1.53-4.55-3.3-5.17-5.19-1.39-4.24,1.54-6.15,1.16-9.97-.22-2.21-5.39-13.32-6.97-15.09-2.62-2.92-7.83-2.89-7.03-7.92.26-1.62,2.2-2.61,1.54-3.56-7.38-1.95-9.42-8.05-17.21-9.65-1.66-.34-3.88.98-5.26.18s-2.45-3.46-4.1-4.95c-2.26-2.03-5.18-1.13-4.95-3.54l-1.48,1.98c.2-2.88-11.03-5.13-12.01-4.84-.55.16-.52,1.51-.7,1.53Z"/>
      <path d="M376.48,241.53c-.13.3-1.56.2-1.55.66.21,6.06,4.92,11.13,6.59,16.35,2.04,6.39,3.13,22.72,4.74,26.71.84,2.08,3.8,3.2,4.1,6.35.17,1.78-1.68,3.7-1.6,6.56.1,3.79,3.47,10.8,4.01,15.09l-1.94,1.41,1.87.44c-.67,1.3-.93,6.02-.63,7.06.86,2.99,3.1,4.12,2.82,9.98-.22,4.56-3.99,13.93-3.69,16.03.45,3.14,8.87,5.27,8.7,10.98-.08,2.65-2.26,2.8-1.16,5.93,3.13,8.92,11.48,9.6,10.02,22-.66,5.58-2.11,3.79-4.99,6.94s-3.74,7.03-9.45,6.65c-3.56-.24-3.73-2.65-6.13-3.95-4.38-2.39-9.4-4.15-13.47-7.59l-.53-1c.36-3.12,2.68-11.27,2.39-13.91-.17-1.54-2.4-3.68-3.04-5.83-2.48-8.24-3.93-10.58-5.14-19.72-.89-6.72-3.35-22.3-6.72-27.34-6.51-9.76-14.79-9.97-23.76-16.21-4.34-3.02-11.15-11.24-14.51-13.46-1.94-1.28-5.09-1.04-6.31-2.19-.74-.69-1.01-2.95-2.2-4.28-1.79-1.99-5.22-2.94-7.05-4.95-1.32-1.45-1.56-3.6-3.02-4.97-1.84-1.71-5.9-2.29-7.65-3.85-2.59-2.31-3.93-9.05-6.78-12.7s-7-5.65-10.58-8.42c-1.98-1.54-1.11-4.13-4.46-3.15-5.55,5.1,2.36,11.09,3.32,14.3.91,3.04-.48,11.82.76,16.36.87,3.18,2.62,4.87,3.48,7.35,3.89,11.14,2.07,24.48,2.95,36.01.77,10.1,1.16,9.36,0,19.96-.63,5.77,1.94,11.74,1.75,14.82-.13,2.09-2.03,4.21-1.84,7.18.21,3.4,3.22,4.25,3.89,7.19,1.01,4.42-.92,14.44.24,20.72.44,2.39,3.58,4.93,3.58,7.03,0,1.23-2.98,7.99-4.29,8.39l-11.34-1.38c-2.07-.99-2.59-5.84-3.95-8.04-1.52-2.47-4.17-4.53-5.25-6.74-2.32-4.75-.07-9.68-1.8-14.17-1.09-2.82-3.17-3.39-4.02-6.03l2.05-1.98c-6.58-5.39-1.37-12.55-2.51-17.97-.52-2.49-2.67-4.35-2.5-6.95s2.82-4,2.78-5.88c-.04-2.02-2.39-4.85-2.74-7.24-2.37-16.36.22-35.7-5.29-51.6-.83-2.38-3.32-4.71-3.58-6.47-.27-1.86,1-3.84.64-6.52-.55-4.19-4.43-9.26-4.6-14.54-.08-2.3,1.34-3.5,1.32-4.66-.12-6.93-4.87-32.22-7.88-37.64-1.96-3.52-12.02-14.08-12.44-15.54-.78-2.74-1.5-11.27-.09-13.67.56-.96,9.58-6.49,10.3-6.52,1.24-.06,11.52,1.02,12.63,1.37,2.25.71,3.63,3.19,5.58,4.4,1.74,1.08,4.59,1.25,5.7,2.07,1.4,1.03,9.11,17.2,12.2,21,7.01,8.61,11.12,14.15,17.61,23.36,11.08,15.72,23.53,26.56,37.27,39.66,4.08,3.89,20.61,14.19,25.81,16.16,1.25.48,2.29,1.04,3.72.77.05-3.96-2.96-6.86-4.06-10.5-3.54-11.77-7.1-25.17-8.88-36.98-.84-5.57-.33-8.67-2.27-14.71-2.41-7.49-4.01-12.94-4.97-21.09-.55-4.68-1.93-13.01-1.85-17.14.03-1.67.3-2.36,1.5-3.51.81-.78,10.69-7.31,11.55-7.51,3.56-.86,12.5,3.08,15,6.06,5.7,6.81,4.55,19.75,4.99,27.96.19,3.46-.21,7.72-.02,9.99.18,2.12,3.2,3.51,3.81,6.21s-.1,5.82.32,8.67c.61,4.2,4.17,8.65,2.54,12.37Z"/>
      <path d="M1598.46,106.71c.88.6,3.12.19,4.5.97,1.81,1.02,3.08,3.16,4.3,3.71,1.64.74,4.7.24,5.54,1.46s.3,4.93.89,7.1c.69,2.54,3.47,4.84,4.13,6.94s-.31,3.82.09,5.81c1.37,6.93,4.77,4.63.5,13.86-2.77,5.99-5.58,4.26-1.6,12.34-2.45,1.66-4.73,1.85-7.13,3.9-3.83,3.26-4.4,9.21-7.46,11.53-4.02,3.05-12.18,4.03-15.94,7.04-2.9,2.32-9.95,10.56-13.26,12.11-1.38.64-5.91-.09-9.05,1.35-.75.35-2.17,3-3.04,3.62-.97.69-2.85.41-4.75,1.78-3.89,2.8-5.59,7.01-3.58,11.34,4.58,3.37,9.41,7.94,13.2,12.17,1.34,1.5,1.59,3.58,2.89,5.1,3.11,3.65,6.82,2.17,10.04,4.03,1.72,1,.4,3.39,2.51,4.36,1.81.83,4.12.63,6.4,1.64,8.78,3.92,14.54,10.08,24.18,11.8,4.73.84,10.92-.14,15.72,2.07,1.71,3.39,7.08,4.09,8.4,7.68.22.59-1.37,11.95-1.69,12.5-.91,1.56-3.54,1.92-5.05,3.59-2.09,2.31-1.14,5.41-2.46,7.28-.6.85-1.93,0-2.25.29-2,1.77-2.95,4.91-3.21,5.09-.33.23-1.23-.31-1.75-.03-.28.15-.16,1.28-1.78,1.68-7.88,1.93-8.45-1.34-13.79-4.32-7.52-4.18-12.17-8.49-19.35-12.62-8.03-4.62-10.55-4.39-17.85-11.13-3.61-3.34-6.71-3.31-11.46-3.03-.39-3.21.14-6.63-2.5-8.99-.6-.54-8.9-5.39-9.51-5.56-3.62-1.07-4.94.9-6.38,3.67-4.27,8.22.08,7.06.16,11.59.03,1.79-2.14,2.83-2.35,4.76-.35,3.19,3.65,21.03,5.34,24.23,1.08,2.04,3.27,3.09,3.84,5.25.48,1.79-1.09,13.1-2.06,15.05-1.57,3.14-7.05,5.2-10.11,7.92-1.2,1.06-2.5,3.98-3.13,4.11-2.81.59-9.71-3.54-13.68-2.19l-7.42-10.56c.16-2.37-.88-5.75-.71-7.83.25-3.04,3.13-5.54,3.26-8.12.12-2.31-2.73-4.67-2.83-7.83-.43-15,4.16-23.16,1.13-39.99-1.1-6.1,2.52-11.46,2.97-17.87,1.12-16.25-1.34-30.1.9-47.09,1.08-8.22,1.01-8.59.04-16.86-.83-7.11,1.18-17.76,1.09-24.95-.04-3.18-.6-18.38-2.79-19.53l-15.84-2.91c-1.34-2.78-6.82-11.36-5.7-13.8.58-1.26,18.63-13.73,20.04-14.07,2.89-.7,4.87,1.57,7.36,1.32,3.41-.34,5.87-3.67,8.58-4.29,6.21-1.4,9.87.78,15.06,1.54,13.49,1.96,24.76,4.74,38.21,8.74,3.92,1.17,14.19,2.98,16.94,5.04,1.92,1.44,2.38,5.62,3.27,6.23ZM1557.54,111.62c-2.39-1.94-4.24-8.84-9.86-4.76-5.28,3.84-2.67,12.65-4.33,17.55-2.59,7.62-2.57,3.9-3.18,12.88-.81,12.03-1.57,24.19-.94,36.03.61,11.45,14.4.33,19.94-1.05,3.22-.8,6.27-.1,9.64-1.35.83-.31,14.15-7.78,15.18-8.44,5.13-3.32,6.24-10.4,8.52-15.82,1.71-4.05,5.4-5.04,2.96-10.52-.85-1.91-3.15-2.98-3.86-4.75-.38-.97.93-2.59-.3-4.02-2.16-2.5-6.24-2.7-8.61-4.44s-3.54-5.45-6.51-7.47c-5.58-3.8-13.75.13-18.67-3.85Z"/>
      <path d="M999.87,225.23l-3,1.35c-2.63,1.28-8.53,4.87-11.01,4.96-1.8.06-3.06-1.68-4.82-1.7-2.16-.03-4.55,2.64-7.1,2.93s-5.67-1.48-7.4-.56-1.81,3.74-3,5.11c-2.21,2.54-7.16,4.56-5.92,9.37l5.73,1.26c1.51,2.64-.32,5.45.18,8.26.7,3.95,5.54,4.61,8.01,7.03s3.7,7.88,5.01,8.98c2.91,2.44,10.26,3.39,15.04,8.94,1.98,2.29,2.73,6.51,4.35,7.64,1.95,1.36,4.36.62,6.54,1.45,3.91,1.5,9.37,7.12,13.65,9.33,7.46,3.84,17.24,5.96,24.32,10.66.48.32,6.3,6.05,6.54,6.44,1.42,2.32-3.04,10.03-.42,14.32-6.77,2.79-10.08,6.3-7.07,13.64-3.05-1.63-7.6,1.1-9.24.88-4.97-.68-23.71-13.9-28.25-17.84-2.39-2.07-2.57-4.48-4.21-6.06-.75-.72-15.91-11.27-16.89-11.81-1.88-1.03-4.55-.91-5.95-2.04-3.52-2.84-10.7-16.25-16.46-21.52-1.93-1.77-6.93-5.99-8.28-8.77-2.36-4.9-.23-6-8.2-7.43-5.6,3.63-1.19,7.5-.59,12.29.33,2.62.48,7.38.16,9.92-.42,3.28-3.25,4.8-3.03,7.87.14,1.96,2.16,4.79,2.69,7.36,1.43,6.95,1.93,9.33,4.26,15.78,1.19,3.29,1.15,13.23-2.22,15.06-.44.24-1.66-.75-1.73-.67-.17.22.24,1.73-.35,2.61-3.21,4.78-10.88,6.18-16.29,6.29-6.3.12-5.16-6.36-7.33-11.43-1.27-2.96-4.6-5.26-4.59-8.96,0-2.28,2.24-5.12,2.3-7.17s-2.37-4.94-2.28-7.83c.09-3.07,2.33-8.17,2.48-12.02.19-4.65-2.05-11.33-2.04-15.92,0-3.62,2.16-6.3,2.11-9.94-.08-6.58-4.45-11.47-4.81-15.26-.29-3.02,1.53-7.79,1.36-11.23-.25-4.94-3.04-12.97-3.2-17.48-.14-4.08,3.09-6.27,3.61-9.11.77-4.24-2.19-10.08-2.69-14.15-.53-4.31-.51-17.22-.38-21.72.18-6.3,4.1-8.62,1.59-17-2.91-9.72-9.11-20.21-11.27-30.15-2.04-9.38,2.94-7.07,8.34-9.2,4.46-1.76,6.63-4.71,12.15-3.74s8.09,5.06,12.37,7.07c12.65,5.96,26.1.54,40.13,6.84,2.05.92,3,3.05,5.05,3.94,14.32,6.27,23.2,8.48,34.59,20.37,2.77,2.9,13.82,16.32,14.62,19.34s-.2,19.29-1.03,22.56c-1.86,7.36-10.12,9.37-13.47,16-6.24-3.72-6.99,2.88-12.67,4.86ZM988.25,171.14c-1.07-.9-12.31-4.53-14.5-5.08-1.8-.46-3.55.7-5.73-.08-2.79-1-5.26-5.14-8.4-5.65-1.74-.28-2.85,1.59-4.39,1.35-2.15-.33-6.22-5.46-7.16-5.54-1.4-.12-5.04,3.76-8.87,2.76l-.74-1.9-1.89-.12c-2.66,6.61-4.67,17.13-2.56,24.02,2.48,8.1,2.73,10.49,2.56,19.35-.13,6.44-3.93,13.16,6.83,13.99,7.46.58,24.96-5.96,32.6-8.47,2.41-.79,11.1-2.54,12.32-3.27.42-.25,6.58-6.6,6.74-7.18,1.17-4.2-3.23-21.15-6.81-24.17Z"/>
      <path d="M1319.72,133.24c-4.34,5.23.08,4.79-.46,7.92-.27,1.61-2.25,2.93-2.66,4.46-.76,2.83.15,5.84-.29,8.69-.37,2.44-2.29,4.17-2.57,6.56-.32,2.8,2.41,14,2.28,18.9-.09,3.55-2.48,5.7-2.58,7.53-.13,2.34,2.65,5.62,2.57,7.01-.04.6-2.53,3.92-3.16,5.54-2.41,6.18.39,7.31.96,12.79.33,3.14,1.58,13.39,1.48,15.57-.19,4.04-5.8,14.57-4.47,19.03.51,1.7,2.47,2.9,2.49,5.01.04,6.02-3.49,17.33-2.94,23.88.22,2.65,3.56,6.97,4.56,10.08,2.55,7.93.51,19.49,2.88,27.52,2.54,8.57,17.6,17,15.45,28.34-1.04,5.48-11.76,20.61-17.92,19.2-2.59-.59-2.16-2.56-3.71-3.69-2.16-1.57-6.05-1.77-8.22-3.5-1.01-.81-8.47-8.07-9.06-8.94-2.32-3.42-5.56-22.89-5.97-27.98-.43-5.43.63-11.6-.1-16.88-.67-4.87-4.39-9.73-4.93-15.07-.43-4.25,1.27-9.98.55-13.98-.47-2.59-2.35-5.07-2.49-7.04-.22-3.3,2.24-9.03,2.41-11.88.31-5.04-.58-26.27-9.89-19.45-1.95,1.43-.89,4.58-4.07,4.54-4.73-4-10.36-2.16-14.98-5.62-5.21-3.9-4.65-10.99-9.9-15.07-2.06-2.33-8.13-20.67-9.24-20.93-.68-.16-4.05-.11-4.28.11.11,1.92-.81,3.75-.96,5.61-.83,10.03.66,22.24-.18,32.7-.31,3.81-2.75,11.97-2.77,16.04s3.2,10.53,2.85,16.01c-.27,4.19-3.77,5.94-3.98,9.03-.16,2.33,1.68,5.14,1.99,7.92.53,4.89-1.34,10.46-.45,14.96.38,1.91,2.23,3.64,2.41,6.15.13,1.72-.68,14.21-.99,15.84-1.34,7-10.14,10.12-16.54,8.15l-1.24-1.25c-.5-3.51-2.73-7.65-3.12-10.96-.46-3.9,1.12-6.7.9-9.78-.61-8.65-3.09-17.93-1.88-27,.49-3.7,2.56-6.72,2.95-11.03.3-3.32-1.22-43.65-2.24-45.71-1.74-3.52-5.27-4.29-3.11-9.54.55-1.34,2.51-.85,2.75-4.03-.71-22.57,1.74-45.41-2.33-67.62-.37-2-1.48-3.2-2.12-5l7.67-10.3c6.28.19,12.26-3.91,17.85.81,1.07.91,6.06,8.48,6.31,9.75.58,2.93-1.06,5.04-.83,7.66.64,7.23,5.64,15.98,7.55,22.6.83,2.89-.38,7.25,1.11,10.73.69,1.63,2.68,1.65,3.35,2.66,1.43,2.17,1.45,4.44,3.43,6.6,1.81,1.98,4.75,2.45,6.03,3.96,1.38,1.63,4.22,11.76,8.84,4.71,1.54-2.36,5.44-12.74,6.73-16.16,2.19-5.78,3.72-14.12,6.25-19.73,1.15-2.56,3.79-4.65,4.45-6.54,1-2.84.01-7.95.68-9.76,4.51-12.09,4.55-15.13,13.39-25.08,1.58-1.78,1.96-5.02,4.67-5.36,5.42-1.64,22.2,1.91,23.38,7.47.1.48-.94,9.34-1.08,9.81-.62,1.98-2.59,1.98-3.45,3.02Z"/>
      <path d="M881.38,428.75c.57.88-.17,2.76,1.18,4.29.95,1.09,4.44,2.03,5.99,2.54-2.12,5.03,1.71,3.29,2.04,7.94,8.11-1.48.71-9.63,2-11.99,7.11-.7,4.71,2.65,7.42,5.06,1.71,1.53,5.11,1.29,7.1,2.89.57.45,8.66,8.49,8.99,9.05.67,1.14-.55,2.5-.36,2.84.45.82,8.03,3.83,8.89,4.83s6.06,13.53,1.95,12.31l1.98,1.97-1.74.18c1.38,1.05-1.97,4.06-2,4.32-.56,4.76,1.74,13.55,3.76,18.01l-1.95.9.94,3.57h-3.02c2.4,2.06-2.57,3.59-2.73,4.17-.69,2.49.64,4.93-1.97,9.55-.55.97-5.82,5.3-6.65,5.27-.64-.03-4.31-1.01-4.47-1.21-.68-.88.72-3.11-1.16-2.79l-5.27,12.63-4.25-1.64-.5,1.99c-5.65-4.79-2.95,3.08-3.33,5.82-.02.14-1.2.19-1.26.42-1.08,4.36-1.98,5.05-6.39,7.25l2.99.5-1.88,1.08.88,3.9-8.99-2c.67,2.83-4.07,9.07-6.36,10.68-.88.62-2.42.16-2.63.33-.1.07.91,1.27.66,1.73-.13.25-1.33.29-1.57,1.01-1.76,5.34.3,8.1-8.09,6.21.44,3.68-4.19,8.85-2.05,12.27.31.5,8.46,5.3,9.99,6.28s3.65.96,4.74,1.75c2.02,1.48,1.31,4.39,1.5,4.53,1.35.98,4.65.23,4.92,4.07.96-.6,3.21-.64,3.69-1.17,1.04-1.14-1.25-3.57,1.98-2.07,2.45-4.45,10.25,5.09,13.94,6.08,5.41,1.45,9.89-3.19,14.89-.39,1.01.57,3.01,4.2,3.77,4.31,3.12.44,5.38-2,10.03,1.45,1.73,1.29.58,2.32.85,2.65.58.72,2.43.75,3.2,2.21.84,1.6.51,4.05,1.63,6.36,2.65,5.44,9.84,10.11,7.97,17.12-.45,1.69-1.65,1.49-1.84,2.01-.78,2.16-1.14,8.71-4.06,6.72-2.42,5.44-5.38,1.97-7.63,1.86-1.71-.08-2.88,1.13-5.64.51-2.03-.46-5.59-5.3-4.93-7.6l-1.49,2c-.74-2.68-1.94-2.16-4.51-2.01l.99-10.93-2.98-1.07-.02,3-2.99-1.98.48,2.99c-6.64.89-6.97-5.44-8.4-10.46l-6.04.06-1.04-1.57-.41,6.03-4.57.95c1.84-7.27.43-7.47-5.52-10.98-2.81,4.19-12.04,4.7-16.99,3.45-.83-.21-3.63-1.24-3.48-2.44h8.99s-.49-3.08-.49-3.08l-4.5-1.91-.21,1.62c-4.2-.96-3.05,3.58-7.08,2.17-1.04-.36-4.46-3.59-4.6-4.45s2.51-3.99.88-6.35c-6.4.42-10.51,5.26-13.98,9.98,2.39-.5,2.04,4.54,3.06,7.26,2.95,7.89,1.06,8.82,1.03,16.25,0,1.22,2.96,19.97,3.33,20.97.52,1.42,2.23,1.99,2.58,4.04.68,4.02-1.69,11.02.98,15.72.53.93,2.46,0,2,3.06-.17,1.11-5.19,12.66-5.86,13.17-3.66,2.74-12.63,2.97-15.79-.89-.83-1.01-1.21-3.37-2.47-5.03-2.26-2.98-3.95-2.44-5.59-7.42-.54-1.65-2.34-9.4.72-8.21.21-1.8-1.88-.02-2.1-2.43-.06-.65.14-9.33.26-10.08.11-.65,1.88-.25,1.88-.98-3.5-4.83-1.02-12.16.2-17.99.11-.55,1.44-.41,1.59-.97.54-2.12-3.49-7.2-3.72-10.05-.02-.26,3.51-1.85,3.5-3.92-.94-2.81-4.38-5.98-4.23-9,.09-1.66,1.98-2.72,2.41-4.29,1.44-5.17-1.48-8.9-6.79-9.21l1.99-1.98-2.94-.1-.05-2.9,2.5,2,.51-2.01,1.98,1.99,1.03-6.96-3.01-.04,1.99-1.98c-3.86.25-1.58-3.86-2.44-5-1.31-1.73-6.57-1.59-6.57-2.52.81-2.15,1.88-4.81,3.04-6.74,1.32-2.21,4.96-5.71,5.95-7.45.7-1.25.99-2.72,2.02-3.79l-1.99-1.48,3.01-.02-1.03-7.98h3.02c-2.25-5.65,3.06-11.58-1.01-16.98l1.99-.02-1.78-1.11c.22-3.99-.59-8.42-1.1-12.44-.65-5.16-.73-3.88-2.7-8.91-.38-.98,3.66-16.52-2.41-19.98l1.85-.93c.62-6.14-2.98-7.68-4.39-11.54-.78-2.12,1.09-7.03-1.47-9.98l-1.97,1.98c-.33-2.43-2.6-3.68-3.42-5.86-.29-.76-1.28-14.93-1.15-16.1.58-5.2,4.12-10.34,6.03-14.9.56-1.33-2.06-3.39,3.3-4.8,9.84-2.58,17.05.04,26.56.76l2.17-5.05c6.71,5.29,11.63,2.97,18.96,3.4,1.81.11,3.58,1.38,6.06,1.5,2.09.1,7.69-2.07,9.26.33ZM883.64,447.44c1.27-2.49-.93-3.01-3.04-3.92l-1.05,3.37c4.46,2.26,2.15,8.36-.49,11.62-3.33-.94-5.77-3.62-6.48-6.99l-1.49,2-1.49-2c-1.11,6.44-9.65,4.83-13.48,8.01s-5.92,12.05-5.53,16.96h-2.99c.24-3.19-.19-5.63-4-5.01l-1,10.99c3.59.7.39-2.89,3.96-3.55.99-.18,3.89-.02,4.1,1.19-1.26,2.65-.75,6.56-1.3,8.88-.12.5-1.25.41-1.45,1-.61,1.82.25,5.02-2.29,4.48l1.98,1.97-2.99,2.52,2.99.99c-.26,1.44-2.42,2.35-2.68,2.75-.2.31.57,1.2.4,1.52-.33.6-2.02-.03-2.31,3.23-.19,2.16,1.29,4.11,1.19,5.5-.1,1.46-1.72,2.71-1.6,4.92.12,2.34,2.63,4.45,2.87,6.32.27,2.05-1.54,2.82-1.42,4.33.08,1.09,2.1,10.59,2.56,10.9,2.7,1.84,4.26-3.52,5.63-3.9,1.2-.33,6.12,1.24,8.22.75-.15-2.84,2.32-3.36,2.84-4.07.18-.25-.59-1.26-.36-1.51,3.09-3.43,7.16-1.52,8.15-8.35h2.42s.08-2.92.08-2.92l1.81.78,3.66-3.77,3.51,3,.25-3.82,1.75-1.16h-1.99s-.01-1.5-.01-1.5l2,.5-.99-2.99,7.94,1.06c-.42,3.06,2.03,5.71,4.04,7.92,3.4-8.16-6.64-13.16-.54-20.05,1.02-1.16,3-1.65,3.36-2.1.6-.77-1.47-6.92-1.35-7.91.42-3.42,4.67-4.92,3.56-9.17-.37-1.42-7.24-4.51-6.03-7.7-1.34-.34-1.09,4.13-2.5,1s-1.38-7.19-2.24-9.71c-.5-1.47-2.35-2.44-3.19-4.85-1.1-3.15.21-7.14-2.03-9.95l1.97-1.45-2.94-.08Z"/>
      <path d="M1516.94,385.9c.45.29.78,1.68,2.04,2.43,5.28,3.14,15.69,2.05,10.87,11.36-.78,1.51-2.5,2.13-2.59,2.57-.6,3.02,1.47,6.89,0,10.3l-2.51-.87c-3.39,2.85-9.02,6.43-14.37,6.37-3.86-.05-6.71-4.12-10.74,1.42l-3.87-2.91c-2.16-.2-1.7,7.92,3.49,3.97l1.01,3.99c-3.58,1.8-13.26-2.78-14.6,1.26-.52,1.58.49,4.22-.04,5.77-1.94,5.7-2.27,1.32-2.33,9.4,0,.65-1.57.45-1.79,1.05-.85,2.34-1.97,6.23-1.25,8.5l-1.98-1.01c-1.45,2.26.57,4.16.55,5.45-.1,5.48-2.25,8.43-4.36,12.19-2.34,4.16-.66,7.37.82,11.33l1.97-1.98,1,4.98-1.49-2-1,2.02-3.49-2,2.01,1.49-2.53,2.37c2.77,4.98-.09,8.48.06,12.25.2,5.02,4.61,1.93,5.96,5.86.63-2.97,5.41-2.26,7-.01l.61-1.81c3.96,2.9,5.35-5.45,7.54-6.1l7.85,3.91c3.26-6.77,7.76.86,11.48,3.51l-3.98.49c-2.43,4.62,1.53,7.58,4.47,10.75,4.21-.62,2.48-7.18,7.82-5.62,2.95,1.1,2.55,4.72,4.23,6.81.97,1.2,2.96,1.48,3.92,3.08,2.92,4.85.5,12.52,1.53,17.94l-2.49-1.99-.5,1.99c-4.85-4.64-7.71,2.11-10.2,3.26-3.85,1.79-7.27.65-10.65-1.42-.22-.31,2.29-2.35-.61-1.83-4.04.73-.88,2.69-2.39,4.53-3.12,3.8-7.35-.09-9.62-.16-3.02-.1-4.17,3.31-7.5-1.89l1.99-1.48-5,1,1,5.98-2.83-.91c-.51,2.33-1.78,2.97-4.1,2.99l.63,1.71-1.6.63.91,3.54-3.92,1.09.94,1.92-2.89.09c1.02,3.19-1.9,4.04-2.07,4.63-2.09,7.38-.56,17.52-1.96,24.82,4.55,2.76-.94,11.49-.78,15.79.04,1.04,1.21,2.31,1.3,3.59.64,9.66,1.94,19.29,2.4,28.98l1.47-.76c1.25,2.32,2.62.04,4.03,3.75l1.47-.02.48-1.98,9.05,6.96c2.84-7.29,7-5.03,13.49-6.97l-1.01-1.97c1.21-1.47,12.82.92,10.52-2.02l-3.06-1.97-.34-2.33c.75-2.87,6.04-2.9,4.89-6.69l1.92.95c.14-2.78,2.73-4.25,1.08-6.92,3.52-1,3.1,1.88,4.19,2.72.89.69,12.14-.62,13.61,1.48.9,1.28.17,5.84,1.08,7.09,1.25,1.73,5.04.91,5.56,5.57.27,2.44-1.61,5.18-1.3,6.55.21.95,2.3,1.32,3.18,2.83s2.91,6.54,2.52,8.02c-.34,1.29-2.19,2.18-2.78,3.39-.63,1.29-.18,2.62-.45,3.07-2.46,4.08-12.25,5.87-16.44,3.91-.44-.2.45-2.11-1.16-1.67.48,5.24-2.01,10.93-8.01,8.98l1.02-4.47c-3.36-2.37-4.35,3.78-7.52,4.47l-.5-1.99-1.46,1.98-6.53-1.98,2,1.49-2.92,2.06.91,4.43-3.35.02-1.62-2.01c.46,1.12-2.89,3.44-3.53,3.74-.25.11-1.49-.89-2.47-.27-.64.4-.57,1.96-1.81,2.53-4.32,1.98-8.2-1.25-12.08-.09l-4.13-8.89c-1.44.83-1.76,4.04-3.72,4.95-8.9,4.14-5.71-4.97-7.46-6.75l-5.79-.2c-.31-5.34-1.88-11.1-1.01-15.97-3.29-.64-4.8.17-7.04-2.6,2.24-1.61.98-6.98,1.25-7.25.49-.47,2.2.53,1.78-1.13-2.41.42-1.73-2.97-3.09-5.16-1-1.62-3.94-2.98-3.91-5.83l-1,1.99c-4.32-.52-6.29-7.56-1-5.99.9-3.61-.72-4.33-2.01-6.98l-1.97,1.98c-.31-1.58-1.32-6.03-.95-7.35.21-.76,1.78-.53,1.78-1.08.03-2.76-2.24-9.21,3.14-7.53l.05-3c2.23,1.18,7.78-1.2,8.04-3.53.69-3.71-4.11-2.91-5.43-5.77-.86-1.86.27-4.02-.19-5.8-.72-2.83-2.64-6.43-3.44-9.43,2.56-1.95,4.27-6.54,6.58-10.39l-2.61-4.55,1.99-1.48-2.04-.57c-.02-3.4,2.97-8.35,3.14-10.91.38-5.62-4-10.56-8.08-14l1.83-.96c.64-3.13-4.53-9.42-1.61-11.32s3.8.96,6.8-5.66c.9-1.98,5.27-13.58,5.48-15,.63-4.25-3.35-5.4-3.51-7.01l2.51-3.48c.57-.29.35,3.89,2.01,1,3.1-5.4-1.78-11.44-2.02-16.46-.16-3.35,1.97-6.87,2.31-10.04s-2.41-8.37-.8-12.46l1.98,1.01c-.38-2.78-1.04-4.48.09-7.22.3-.73,1.55-.76,1.72-1.29.49-1.52-1.98-5.24-1.8-5.46.3-.37,2.39.81,1.99-1l-2.89-.48c0-9.2,3.02-16.86-6.09-22.98l2-5.52,1.98,1.01c-1.87-3.63,1.98-6.1,2.46-8.87.3-1.73-1.16-4.82-.35-6,.38-.56,4.89-1.19,6.18-2.06,1.14-.77,1.31-2.58,2.68-3.5,1.03-.69,14.17.81,15.53,3.44l1.48-1.99.51,3,1.49-2,.14,1.77,8.36,1.23.52-3.01,1.98,1.98.1-1.88c6.96,2.57,10.78.88,14.37-5.05,3.74,3.4,8.78.08,12.2,2.25Z"/>
      <path d="M674.67,138.89c-.1,12.39,13.17-2.63,11.01,9.99,7.25-1.28,12.85.03,17.9,5.58,5.91,6.5,1.55,16.23-6.64,18.17-12.47,2.96-24.32-.54-35.5,8.19-5.36,4.19-4.67,7.25-7.38,11.93-1.23,2.12-5.62,4.14-7.57,7.37-1.35,2.24-6.41,13.64-6.97,16.1-1.42,6.29,6.95,2.44,4.17,9.57l-1.98-1.01c.36,4.74.41,7.83,4.5,10.99s3.67.04,7.33-.47c5.63-.79,16.68,4.28,18.16-5.51,3.7,1.84,7.07,5.2,11.47,4.44.96-.17,1.87-1.41,2.03-1.39.73.05,1.1,2.14,1.78,2.63,3,2.17,17.21.06,24,4.25,1.04.64,1.87,3.1,3.75,4.5,8.29,6.14,22.03,7.85,26.39,18.57,3.94,9.68,6.89,19.6,7.52,30.44.52,8.95-.13,9.49-2.93,16.2-1.31,3.15-2.99,11.48-3.3,12.02-.27.46-3.51,1.92-4.77,3.72s-1.24,4.01-2.26,5.24c-1.48,1.78-6.53,3.04-8.2,6.33-1.04,2.05,1.64,6.11-.78,8.67s-11.03,2.16-10.78,8.22c-6.2-2.04-9.44-.33-11.03,5.96l-1.42-.73-.52,2.78c-1.68.43-.51-1.61-1.46-1.88-.82-.23-10.22,1.67-11.5,2.4-3,1.71,1.93,1.23,2,3.97.02.98-5.56,3.14-6.51,3.05-2.19-.2-3.22-1.83-6.88-1.5-5.96.54-10.87,6.52-16.66,5.4l-.84,3.4c2.53.02,3.93,1.49,4.93,3.63,2.11,4.51-3.36.53-5.04.02-4.29-1.33-5.34-.21-9-4-.97-1.01-.57-2.88-1.98-2.48.08.69.19,1.77-.67,2-6.17,1.67-4.71-3.65-5.38-7.98-9.21,2.49-6.73-4.36-9.63-6.1-2.06-1.24-4.84-.26-7.42-2.33-1.21-.97-1.82-2.98-2.91-4.08-1.33-1.34-3.45-1.98-4.39-3.46-1.65-2.61,1.76-8.12-1.62-10.55l1.74-.67-.63-1.7c5.31-.21,6.12-6.99,10.38-7.21,7.48-.38,20.11,9.11,23.61,8.82,3.13-.26,3.36-2.89,6.31-2.75,3.1.15,4.77,3.78,6.65,3.6,2.46-.23,8.25-3.53,11.67-4.34,2.73-.65,5.46.33,8.23-.77,2.43-.97,7.63-6.26,10.41-8.05,1.78-1.15,5.13-.74,6.62-3.9l-1.94-.92c.56-4.47,4.01-2.93,6.96-6.32,5.92-6.8,4.26-15.61,8.91-21.52,1.55-1.97,7.49-2.97,8.09-7.26.31-2.25-2.8-7.7-4.36-9.1-1.19-1.07-9.91-7.06-11.22-7.26-2.24-.34-4.74.36-6.77-.08-.86-.19-.25-2.57-2.52-1.2l-.17-1.76-1.97,1.98-.62-1.96-5.68-.09c-2.77,6.88-6.78,1.94-10.44,3.75-3.89,1.93-.22,6.44-9.02,9.76-.22.08-.25,1.18-.72,1.27-3.85.76-5.86-.96-9.03-1.4-3.77-.53-7.85,2.56-8.48-4.32l6.01.56,2.98-6.56c-6.43.3-13,1.07-19.36,2.08-3.13.5-4.88,3.12-8.59,1.4-.51-.24-8.22-7.01-8.49-7.5-1.42-2.5-2.57-8.55-5.53-11.45-1.71-1.68-5.94-1.48-7.09-3.2-1.4-2.1.14-5.25-.04-5.81s-1.61-.35-1.82-1.14c-.56-2.06,2.54-5.88,1.83-8.62s-5.44-4.12-6.22-5.99c-1.17-2.78.79-5.88.34-9.14-.26-1.85-1.98-3.55-1.94-5.08.04-1.9,4.09-5.62,4.73-9.22.77-4.34-.25-9.53.47-13.77.08-.5,1.27-.37,1.54-.96.17-.39-.47-1.79.13-2.79,1.32-2.2,7.09-3.79,6.18-10.11l-2.07-1.59c1.96-.4,4.39-.46,6.22-1.11.56-.2,7.19-5.59,8.31-6.85,3-3.41,6.03-7.46,5.27-12.31-.39-2.46-4.32-3.44-2.81-5.69,2.61-3.9,8.04,5.81,10.97,4.99-.69-7,3.27-4.09,7.28-5.24,5.23-1.5,4.69-1.13,9.98-1.97,1.31-.21,10.13-3.64,10.8-4.28,2.71-1.68-2.38-8.16,1.94-7.51ZM674.67,272.72c-1.35-5.08-5.57-7.1-9.98-3.97.45,4.77,6.61,4.03,9.98,3.97Z"/>
      <path d="M460.36,513.1c-1.64,3.03-.24,2.17-.98,5.34-.87,3.75-2.88,7.17-3.6,10.96l-1.98-1.99-1,2.99-1-1.99v8.98s1-1.99,1-1.99l2.98,2,1-1.99c-1.98,4.7.73,3.72.99,4.63.51,1.75-1.68,6.37-3.49,7.35l-.5-4.98c-1.66-.28-.69,1.44-1.35,2.66-.22.41-1.6.37-1.64.92-.14,2.09,1.58,9.33,3,11.39l-1.99.02,1.9,1.4c-.06,4.46-3.48,5.2-3.8,6.21-.16.52-.23,10.19-.12,10.87.12.78.23,1.52.96,1.99l4.1,1.16-.95,8.73-3.11.6.75,1.82-1.72.18,1.99,2.97-2,1,1.99,1-1.99.5c1.83,5.83,5.65,9.93,7.99,15.48l-3.99.02,1.98,2.99-4.03-.59c-5.7,9.2,3.92,5.6,5.51,7.55,4.12,5.05.84,10.94,2.18,14.78s5.82,6.27,3.29,11.21l-4.35-.85-.72-3.99-3.86-1.15-.6,5.07c4.95.94,2.47,2.02,3.5,3.44,1.67,2.31,6.01,4.02,8.61,3.28.67-.19.3-1.87.99-1.84,1.46.08,2.66,2.29,4.48,1.04-.7,1.15.13,4.34-.16,4.77-.49.72-4.42,1.83-4.55,3.71-.06.87,2.17,3.75,1.83,7.05-.22,2.17-3.44.72-1.2,4.38l-1.92.56,2.02,1-1.88.63-.1,4.37,3.96-.52,2.01,11.98c-4.99-.47-5,5.16-4.99,9l6.12.63c2.08,4.19-1.1,5.23-1.85,6.59-.65,1.18,2.2,4.37-1.27,3.78v.97c6.14.12,9.09,6.19,9.85,11.61.55,3.9-3.33,7.9-4.43,12.31-.67,2.7.01,5.2-.46,7.39-.19.88-2.89.29-.98,2.65-3.26-1.06-5.56,4.92-7.73,6.03-2.68,1.38-3.99-1.15-4.76,1.97-4.32-2.38-9.17-5.95-13.01-1l-.5-1.99c-1.82-.4-.63,1.68-1,1.99-.59.5-3.69-2.96-3.97-4.51-.8-4.34.33-9.37-1.91-14.09-1.29-2.71-5.12-2.54-2.62-7.4,1.31-2.54,4.98-.48,2.6-7.46-.59-1.74-2.05-3.01-2.66-4.98-.81-2.62,1.1-5.93.58-8.49l2.99.99c1.1-1.44-4.22-16.16-3.81-20.48.07-.68,1.87-.82,2.63-2.15,2.1-3.64,1.04-9.13-3.84-7.8l-.82-5.39,3.74-1.25c-.55-1.96-.08-4.15-.95-6.07-1.3-2.87-6.31-2.88-4.92-8.75,2.66-.09,5.13-.6,6.04-3.52l-.53-1.54c-6.61-2.28-.52-7.69-4.03-11.97l-1.49,2c-2.94-4.97,2.05-6.1,2.88-8.67.41-1.25-1.66-5.59,2.1-5.33.42-1.68-1.38-.64-1.8-1.1-.38-.41.33-10.54.75-11.17.64-.98,2.43-.15,2.06-1.68l-1.87-.44c3.07-4.53-4.7-5.67-6.12-9.06l1.99-1.48c-3.87-.34-4.97-4.26-2.49-7l2.49,1.99c.62-2.09-1.47-3.88-1.57-5.46-.12-2.08,1.48-16.21,2.27-18.28.42-1.09,1.8-1.1,2.01-1.51.82-1.64-.65-3.48,2.3-4.19-1.96-1.09-2.18-5.2-2.97-6.08-1.52-1.71-3.49.21-5.65-2.38-1.77-2.11.1-4.27-1.29-6.38-.66-1-6.1-3.25-6.79-3.9-1.15-1.07-.4-2.95-2.07-3.75-6.66-3.2-5.28,4.64-7.49,6.71-1.33,1.25-5.52.02-5.96,3l-1.77-.74c-.75,3.18,2.66.92,1.29,3.8l1.7.69c-3.19,4.87-6.1,14.97-13,14.5l1.02,1.98h-3.03s1.99,4.54,1.99,4.54l-1.97,1.44,2.04.66-2.4,17.65c-.43,2.33-4.27,4.46-4.94,5.94-1.23,2.73,2.15,11.86-6.21,6.78,1.89-10.03-7.04-.82-8.49-8.04l-1.98,1.98c-.04-.92-.01-2.23-.56-2.93-2.45-3.12-6.62-7.9-8.89-11.1-1.41-1.99-2.7-7.16-2.69-9.81-2.34-1.73-5.25.7-5.86.43-1.87-.83-7.06-8.27-8.01-10.53l-1.98,1.98c-.97-4.85,2.72-7.71-4-9.98l.99,2.99-3.87-.1c-.97-3.73-1.25-7.04-4.39-9.48-1.94-1.51-1.9,1.32-4.16-4.14-.09-.23-1.55-.24-1.58-.83-.07-1.42,2.27-6.17,2.02-6.4l-4.99-2.01-.02,2.99-1.98-1.99c-.58,2.4-.08,6.08-.99,8.24-.07.16-1.9,2.63-2.04,2.72-2.5,1.63-1.35-2.39-2.97-1.97.38,3.75,4.08,11.85-2,10.99l1.91,1.05-.85,2.79c3.44.75,3.58,3.99,4.81,6.76.87,2.65-3.12.8-3.89,1.38l2.08,10.33c-1.96,1.34-3.43,1.78-3.09,4.64l-2.98-2-1.05,3.44c0,.44,7.47,3.06,7.87,3.73.59.97-.28,3.08.29,3.72.34.38,2.15-.36,2.99.7.31.39.93,5.13.72,5.71-.47,1.36-2.22,1.38-2.88,2.4-1.53,2.37-.36,4.97-2.96,5.75l2.99,3.01-1.99.99c2.92,2.01,7.24,16.32,7.06,18.93-.07,1.08-2.52-.15-2.06,1.54l1.99.5-2.01,3.5-2.49-2-.99,1.99-2.49-3.99-.02,3.99c-1.55.45-.61-3.76-2.99-1.98-.15.12,1.07,2.62.65,3.73-1.39,3.66-6.45,1.36-6.59-.37-.16-1.99.33-13.31,2.93-12.38l-1.99-2.41c1.2-2.98.37-7.1,1.05-9.84.14-.56,4.23-3.89,4.01-7.1-2.83-1.67-4.1-5.86-8.05-3.6l-.02-2.49c3.1-.7,1.58-3.7,2.9-6.08l-1.77-.9.89-6.51,2.03.47c-1.28-1.95-2.54-8.01-3.32-9.21-.44-.68-2.65-1.01-2.7-1.75-.02-.3,2.82-2.89.98-5.49l1.98,1.98.02-3.98,2.99.99-2-2.5,2-1.48c-6.87-2.18-8.09-10.14-13.97-13.02v-1.99s1.99-.48,1.99-.48l-2-1.5,4.98-1.5-2.49-4.51-.99,1.99c-4.23-2.81-3.74-6.35-3.49-10.98l1.98,1.99c.89-3.12-1.59-4.61-2.46-6.89-.52-1.36,1.88-2.75-1.53-3.6l2.01-3.47-3.95-1.1.97-4.9,1.98,1c-.92-2.63,1.69-4.22,1.77-4.47.36-1.15-.57-3.88.74-5.55.79-1,2.63-.65,3.24-1.22.3-.28,2.92-6.78,3.09-7.49.95-3.88-5.32-2.16-2.82-7.24l5.49,3.99c.1-2.3,3.27-1.98,4.81-1.07.98.58.14,2.44,1.68,2.06l.5-1.99c3.02,2.49,7.25,3.54,7.59,7.94l6.91.05-2.04,1.5,2.05,4.48-2,1c4.86-.61,1.83,1.23,2.24,1.81.21.29,1.43.26,2.06,1.44s3.62,7.64,3.7,8.32c.44,3.61-2.26,2.2-3.01,4.41,2.28.25,4.97,1.39,6.87,2.63,2.09,1.37,5.01,5.08,6.11,5.75,1.03.63,3.07-.11,3.8.81,1.1,1.38,1.2,7.75,3.14,10.11,1.43,1.74,4.45,1.2,6.12,3.14s1.22,5.36,3.4,7.62c2.84,2.92,12.38.98,15.04,5.92l1.96-2,3.51,2.01c-.96-4.2,2.07-2.49,2.79-3.15.55-.51.26-3.27.89-4.63.49-1.07,1.82-1.21,1.94-1.46,1.83-3.98,3.77-19.02,6.65-20.05.88-.32,2.51.35,2.62.2.16-.22,0-1.54.5-2.51.22-.42,1.5-.37,1.47-.81-.17-2.8-2.26-3.43,1.39-6.2.16-.12,1.24-.63,2.74-1.73.51-.37,1.6.3,1.81.12.99-.85,2.64-8.72,3.68-8.7.94,1.51,6.27,2.46,7.05,1.04,1.22-1.84-.8-4.98-.51-6.41.12-.57,6.25-8.36,7.22-9.23.33-.29,1.9.45,2.78-.79,3.35-4.7.92-14.27,10.96-13.6l-1.01,1.98c5.19,2.75,5.62-1.96,7.62-2.78.43-.18,8.93.03,9.37.29,1.9,1.12,2.81,6.25,3.99,7.02,2,1.3,5.2-.5,7.42,3.48.59,1.06-.37,3.57.49,5.5,1.89,4.23,4.81,3.36,1.67,9.14Z"/>
      <path d="M1482.53,149.64c.77.78,2.75.77,3.74,1.73,3.33,3.22.44,9,1.05,12.91,1.02,6.5,5.48,20.81,5.85,25.99.17,2.39-1.72,6.68-1.34,9.7.34,2.66,2.96,5.24,3.06,6.34.49,5.37-4.87,15.17-5.99,20.35-.82,3.77-.09,7.87-.88,11.35-1.29,5.7-6.78,11.59-9.76,16.28-2.57,4.06-.33,6.18-1.44,10.01-2,6.89-6.99,6.88-9.93,10.53-2.1,2.62-3.09,8.58-6.07,10.91-1.48,1.16-13.73,8.46-15.26,8.71-4.31.71-7.77-.92-10.53-.55-3.54.47-14.45,6.24-18,8-7.71,3.83-7.2-2.83-11.24-3.25-2.83-1.01-3.14,2.96-4.09,3.13-4.4.79-14.8-14.92-23.36-10.06l1.5,6.98c-3.2-3.93-3-10.25-5.3-14.68-1.21-2.33-4.04-3.9-4.76-6.23-1.01-3.23.19-6.45-1.2-9.79-1.66-3.99-8.65-6.06-11.73-9.25-4.98-5.16-1.21-7.59,4.48-4.98.95-3.48,1.69-7.69.76-11.25-.41-1.57-2.51-3.6-3.25-5.74-2.62-7.59-2.9-20.24-2.49-28.44.59-11.65,10.88-24.35,10.99-36.48,6.72,2.3,8-7.96,10.79-12.67,2.6-4.4,5.52-9.21,8.22-13.56,6.07-9.77,12.02-16.65,20.02-24.4.95-.92,1.26-3.53,2.64-4.35,3.37-2.01,8.46.18,12.99-3.25.95-.72.95-2.89,2.98-3.5,1.47-.44,8.15-1.87,9.87-2.13,10.79-1.62,21.66,12.27,28.93,18.93,6.43,5.9,10.44,7.78,15.95,16.02,1.34,2,1.81,5.72,2.79,6.71ZM1442.69,147.49c-3.61-3.01-10.3-9.92-15.56-7.55-.84.38-1.11,1.68-2.05,2.26-10.88,6.71-14.07,13.43-20.34,23.57-2.21,3.57-7.54,7.26-8.46,8.78-1.09,1.79-1.31,5.44-2.66,8.03-.89,1.71-4.31,3.46-5.14,4.86-2.18,3.67-.6,8.48-1.37,12.65-1.56,8.48-6.84,14.43-5.32,25.66.56,4.19,4.65,17.77,6.15,22.13.5,1.45,7.93,13.15,8.87,13.91,2.12,1.72,5.24,1.36,7.47,2.53,2.99,1.57,5.18,6.52,9.82,7.25,3.07.49,14.67-2.27,18.19-3.37,7.7-2.41,25.56-11.73,30.04-18.19.81-1.17,7.6-14.11,7.78-14.93,2.39-10.69.57-37.79-3.48-48.04-1.1-2.79-3.56-4.54-4.12-6.94-.52-2.24.97-6.08.53-7.58-.94-3.19-5.93-3.34-7.46-4.9-.27-.28-4.43-5.63-4.59-5.98-4.05-9.16,1.06-6.35-8.29-14.13Z"/>
      <path d="M1631.22,375.59l9,1.02-1.91,1.4,3.43,10.5c.04.3-1.38,4.98-1.62,5.39-1.38,2.32-7.74,11.74-9.28,13.34-.14.14-3.07,2.23-3.26,2.26-.57.08-1.52-.98-2.18-.7-.2.08-.08,1.49-.8,1.7-.9.26-4.88-.9-6.19.24-.52.46-.3,3.43-2.22,5.27-2.72,2.6-9.19,3.25-9.72,3.82-.25.27-2.01,4.54-2.55,5.32-.62.89-2.1,1.07-3.04,2.35-1.19,1.62-.68,6.73-5.63,6.08l.82,1.78c-5.82,3.61-11.94,11.97-11.82,19.14-6.03-2.57-6,3.14-7.67,6.74-.52,1.11-1.95,1.27-2.03,1.45-.15.33.36,3.55-.84,4.85.07.49,4.47,8.32,4.84,8.65,2.66,2.38,12.84,5.04,15.75,6.8.91.55.01,2.39,1.36,3.53,2.21,1.86,16.9,2.52,21.3,4.72,2.56,1.28,2.65,3.37,4,4.26,2.11,1.38,8.61,3.75,10.01,5.2.97,1,1,3.44,1.33,3.69.14.11,1.23-.9,1.72-.63.26.14.18,1.18.72,1.38,5.81,2.23,8.1.39,11.9,6.4,1.58,2.49-.35,3.88,5.08,5.89l.92-1.96c3.99.84,5.93,3.96,4.56,7.95l-1.49-2-.96,2-4.08-1.87-1.61,2.72-1.81-.84-1.04,3.98,5.55,2c.71-2.22,1.21-1.55,3.28-1.77,1.01,5.88,5.59,7.85,7.17,12.76l-6.93.07c-.44,3.84-2.31,6.68-4.09,10.4,2.59,2.3,5.69,2.57,8.91,1.6l1.11,2.9c-1.64,1.52-6.76.75-6.94,1.06-.3.52.44,1.99-.68,3.03-1,.93-4.79,1.77-6.36,1.93-.44,1.59,1.41.62,1.69,1.22.56,1.19.15,2.64.81,3.77.7,1.21,3.4.27,2.49,2.98-.92-.12-1.75-.11-2.58.38-4.57,2.67-3.35,3-6.45,5.99-.2.19-3.47.89-3.73,1.01-.51.23.53,2.5-3.23.63,1.34,2.86-2.78,6.55-3.61,8.24s-1.12,4.92-2.78,7.34c-3.45,4.99-9.59,5.1-9.71,12.26l-6.43-.72c-3.51,1.88-.91,4.74-1.55,5.7-.91,1.4-8.58,2.76-7.08,8.94-5.14,2.19-5.19-.73-7.8-3.81l-3.44,10.06c-1.42.89-6.46-.77-8.41,2.14-1.38,2.06,3.4,4.67-.2,7.22-4.69,3.33-13.13,4.91-18.76,3.85-5.21-.98-8.59-8.06-11.61-12.22.42-6.64-.36-21.35,9.43-20.07l-.86-1.84c2.65-1.79,6.81-1.24,5.87-5.14l1.98,1.99.6-2.08c5.01,2.82,5.51-.81,6.07-.93,2.11-.46,4.24,1.08,6.85.13,3.77-1.37,4.73-6.61,9.47-4.1-2.99-6.1,3.58-9.92,8.95-7.99,1.16-6.23,6.83-9.1,10.98-13.55,1.46-1.57,4.06-.76,2.06-3.41,4.05.98,4.31-5.31,6.16-8.38,1.44-2.41,6.98-4.2,7.71-6.26,1.14-3.21-1.65-5.29-1.38-7.4.26-1.99,2.89-6.79,4.5-8.43-.76-1.42-1.31-.91-2.13-1.04-.58-.09-6.19-2.04-6.83-2.5-.12-.09.88-1.31.68-1.73-.12-.26-3.76-3.3-4.69-3.25l2.98-4.46c-5.6-4.57-13.44-3.2-7.99,4.47-3.35,2.31-6.85-5.09-8.98-6.35-2.29-1.36-11.08-.37-11.03-3.61l-1.48,1.98c-2.26-2.19-6.9-4.79-10.03-4.61s-5.08,3.94-8.85,1.52c-1.13-.72-1.4-2.38-2.34-2.99-2.82-1.82-7.61-.61-10.77-1.35-1.54-.36-2.88-1.37-4.47-1.6-1.75-2.54,4.22-5.07,4.96-6.93l-4.98-4.52,2.98-1.48c-2.65.22-2.07-3.01-3.88-4.62-2.44-2.17-7.14-.83-9.1-4.89,4.06-.87.1-5.86.32-8.01.09-.87,1.7-1.6,2.07-2.54,2.65-6.68.38-3.73-.71-6.17-1.6-3.59-1.09-10.42-1.17-13.8-.04-1.63-1.52-3.56-1.25-5.29.22-1.38,4.7-7.69,5.61-9.42,1.18-2.26,1.47-5.78,3.1-7.8,1.84-2.29,5.7.41,7.08-1.01,3.05-3.14-.07-11.33,3.45-15.42.69-.8,2.15-.17,3.01-.91,3.08-2.65,3.21-6.4,5.55-8.46,2.9-2.56,7.9-4.14,11.47-5.52,1.52-1.39-1.91-4.36-1.53-5,.07-.11,1.33.24,2.3-1.27,1.34-2.08,2.76-4.12,2.69-6.76,1.3-.04,3.97,7.01,5.5,4.01-.46-6.35,2.12-5.7,4.2-8.29,2.89-3.6.54-2.84,5.04-5.09.4-.2-.07-2.44,2.22-.62l1.2-8.8c3.17-1.08,7-.73,10.09-1.47,5.4-1.3,17.81-8.57,13.71,2.27Z"/>
      <path d="M1744.02,29.23c.4.43-.3,1.94.65,1.8l1.11-1.98h6.34s1.13,4.93,1.13,4.93c3.83-.29,8.07-1.47,11.49,1,1.03,1.48-1.41,10.82-2.5,12.35s-4.74,1.7-5.56,3.61c-.43,1.01.71,2.98.51,4.49-.55,4.2-7.93,6.43-9.71,8.86-.74,1.01-.63,2.83-1.43,4.04-3.83,5.8-6.46,3.35-10.91,5.1-1.62.63-2.77,2.09-4.26,2.74-4.85,2.11-8.15,2.03-11.12,7.86-3.79,7.44-2.07,10.95-2.62,17.35-.26,3.08-2.36,10.53-1.9,12.96s2.8,3.65,2.72,5.93-2.35,2.56-2.54,3.13c-.92,2.7,1.15,11.22-3.22,11.51-.4,1.75,1.53.63,1.9,1.07.23.27-1.58,4.65-1.47,6.88.14,2.97,2.1,6.31,2.12,8.51.02,3.11-5.83,13.43-6.05,19.35-.08,2.16,1.44,3.85,1.26,5.49s-2.32,3.04-2.73,5.17c-.44,2.3-.9,15.23-.72,17.8.24,3.36,3.47,5.07,3.5,6.96.05,2.44-2.87,2.86-3.29,3.65-1.96,3.66.79,6.19.92,8.85.19,3.74-1.07,12.15.45,15.64s5.74,11.9,8.31,14.16c.28.25,1.47-.42,1.78-.16,2.37,1.96-.34,9.9-1.07,12.71-.19.72-1.67.64-1.73,1.23-.11,1.07.88,5.89.65,7.01-.05.25-2.46,2.62-2.82,3.98-8.08,2.47-16.13.48-24.26-.44l-1.07-1.29c1.26-5.32-3-8.71-3.61-13.33-.99-7.48,1.97-15.42,1.99-20.88.01-2.99-2.31-4.78-2.84-7.22-1.19-5.48,1.15-7.55,1.71-11.91s-1.03-13.42-.58-18.96c1.01-12.38,1.4-24.23,2.22-36.48.6-9.02,2.92-14.68,1.36-25.26-.59-3.99-4.06-6.94-1.86-11.74,4-8.74.42-7.59,1.94-15.28.51-2.56,4.33-4.64,3.46-8.63-.7-3.2-4.38-3.91-5.53-5.57-2.07-3-.48-10.63-3.44-10.95-.64-.07-9.75,2.81-12.57,3.21-4.38.62-10.32-.73-14.13-.25-4.12.52-7.47,2.97-11.41,3.58-5.81.91-14.57-2.16-20.38-2.88.49,4.12-1.37,6.73-4.95,3.45s-1.09-5.74-1.6-8.58c-.72-3.99-4.4-7.61-.5-11.41,1.31-1.28,3.22-1.07,4.11-2.11,1.24-1.46,1.34-5.56,2.63-6.34,2.18-1.31,15.37-2.55,18.81-3.19,2.31-5.68,8.01.3,10.02.01,1.25-.18,1.9-3.97,4.17-4.64,1.96-.58,4,.65,6.1.19,3.14-.68,6.97-4.66,10.07-5.74,1.15-.4,10.7-1.99,11.1-1.59-.39,8.14-.29,6.2,5.99,3.98.42-1.7-1.47-.63-1.82-1.08-.17-.22.55-5.21.72-5.45,1.7-2.31,7.75-3.65,10.48-3.39,6.34.59,6.19,5.46,11.14,7.95.68-2.89,1.89-.99,2.26-1.26.8-.58.82-2.66,3.19-3.36s3.85,1.97,6.29,1.46c2.58-.55,9.79-5.12,12.72-6.35,3.86-1.62,7.53-.29,10.01-5.99.92-2.11-1.66-1.35-2.5-1.45-6.82-.76-8.96.14-15.48,1.96.64-3.83,1.28-6.48,5.44-7.03.74-.1,11.01-.16,11.4.26Z"/>
      <path d="M1852.93.25l1.07,5.33-1.88,1.46,1.99.5c-3.44,2.82.86,9.85-3,11l1.85.96,1.15,31.5-5.97-1.98c-2.17,2.34-2.7,6.37-3.97,8.28-.96,1.44-4.69,2.39-4.94,5.37-.25,2.84,7.2,3.39,6.73,6.62-.36,2.49-3.92,3.91-4.37,4.71-.28.49-.17,1.5-.99,3.23-2.87,6.08-1.6,12.28-2.72,19.24-.07.46-1.61.41-1.75,1.15-.7,3.92.6,11.36-.82,14.89-1.18,2.95-7.39,7.49-8.17,10.94-.34,1.53-1.29,10.71-1.06,11.94.6,3.14,4.33,2.43,4.93,5.99,1.08,6.47-3.95,11.52-4.46,16.44-.48,4.62.78,10.98.07,16.52s-2.73,10.51-3.02,16.57c-.35,7.19,2.5,14.62,2.61,21.4.15,9.61-3.74,17.62-4.1,26.01-.27,6.22,2.78,12.52-4.78,16.63l.73,1.71c-1,1.32-11.62,5.8-13.22,7.03-2.12,1.64-1.85,7.24-5.7,7.04l1.76-5.5c-3.93-6.13-6.57-.62-11.73-.51-.33-1.4-.59-2.91-1.29-4.2-7.91-14.49-1.24-23.43-1.29-38.89-.02-6.53.23-3.26,1.2-7.81.56-2.61-2.1-8.71-2.09-12.13.03-7.34,3.9-16.15,4.94-23.35.68-4.71-1.27-11.43-1.12-14.99.09-2.06,3.24-4.02,3.55-7.04.33-3.28-1.02-17.06-.72-17.92.19-.54,1.55-.39,1.74-1.15.49-1.91-2.15-4.84-2.01-6.79.16-2.22,3.3-3.62,4.28-5.83s-.46-8.57.4-11.48c1.35-4.57,5.9-7.04,4.13-13.46-.4-1.46-2.42-2.85-2.44-4.23-.01-1.52,2.86-3.86,3.68-6.07.97-2.63-.07-5.79.5-8.43,2.99-14.08,7.38-28.86,8.51-43.48.41-5.35-2.38-9.13,2.52-14.41,4.26-4.6,11.94-11.49,17.45-14.06l-.74-1.75c5.4-5.84,14.7-8.06,22.55-7.01Z"/>
      <path d="M972.27,415.98c3.07,2.09,3.03,6.41,6.55,8.78s6.16-.94,10.71.78l-1.01,1.98c4.82-.29,9.74,3.99,10.01,8.99,2.46-1.17-.85-3.1,3.47-2.96-.06-1.7,1.16-4.15,2.52-4.51-.25-1.1-4.65-5.49-1.5-6.51.87-.28.11,1.2.99,1.73,2.49,1.49,2.56,2.15,3.72,2.93,2.91,1.94,15.98-.5,19.08,1.34.61.36.59,1.86,1.38,2.01,2.86.53,8.88-1.36,12.54-.75,3.02.5,5.93,2.7,9.25,2.73l-.49-1.99c3.98-1.92,5.17.61,8.48,1.99l1.04-1c-1.82-3.18,9.98-4.59,12.15-4.63,2.98-.05,5.7,2.79,8.84,3.64l.48-1.99,1.98-.02c-.15,6.13,5.11,5.59,7.75,9.48-1.64,4.74-5.19,5.93-9.73,4.51l3,6.51-1.77.65.76,1.82-2.89-.87c-1.83,3.35-7.71,4.77-8.13,9.85-1.91,1.39-11.41-7.16-11.79-10.48-.19-1.71.77-3.71.81-5.45l-9.57-2-.86,1.88-2.56-.91,1.01,2.98-6,1.01c1.14-5.19-2.59-10.47-7.81-10.77-1.46,2.86-3.93,5.85-2.04,9.1,1.15,1.98,3.58.95,2.84,3.67-1.5-1.61-8.84,2.15-9.33,3.22-1.69,3.69.96,6.15,1.03,9.7.09,4.16-.68,4.81-.13,10.56.42,4.4-1.41,10.98-1.06,13.37.48,3.33,3.49,7.2-.7,10.87-.2.17-1.18-.66-1.52-.44-.61.4-.84,2.49-3.27,1.67-.6,2.77,3.12,2.63,3.83,4.65,2.26,6.39-3.54,8.92-3.79,9.99-.43,1.87,1.79,6.57-1.06,9.32l-1.98-1.99c.34,1.89-.12,4.85.22,6.51.11.53,1.68.03,1.85,1.96.49,5.48-4.39,8.77-2.08,14.5l1.96-.99,1.02,3.98-4.5-3-.66,1.74-1.81-.75c-2.8,4.79,2.66,7.81,2.83,8.55.73,3.13-2.52,5.63-2.61,5.96-.75,2.69,2.95,6.09,2.49,9.15-.38,2.47-2.08,4.07-2.34,6.33s1.85,3.91,1.24,6.02c-.88,3.08-4.26,1.54-3.26,6.77.33,1.75.72,6.06,1.12,7.64,1.21,4.73,4.25,3.78,2.2,10-.21.62-1.41.52-1.5,1.02-.24,1.27,2.03,4.87,1.71,7.28-.23,1.71-1.5,1.02-1.67,1.72-.59,2.33,1.9,5.92,2.34,7.96.36,1.68-.57,3.92-.28,4.88.65,2.19,3.13,2.16,3.53,2.84,1.33,2.24-1.48,11.02,5.26,13.37.12,4.19-4.87,3.86-5.13,5.02-.77,3.47,3.72,5.35.49,12.28-1.55,3.33-2.01,4.93-3.19,7.77s-4.4,5.12-5.35,8.24c-3.71-1.97-2.6.97-3.47,1.12-1.07.19-7.83-2.26-8.7-3-1.18-1.01-1.85-4.67-2.95-6.34-1.03-1.57-3.7-2.71-4.16-4.67-.41-1.75,1.08-3.46,1.13-5.37s-1.06-4.28-.72-5.97c.11-.55,2.88-.32,1.36-4.68-1.38-3.99-.99-2.95-1.74-6.98-.41-2.22-2.93-4.8-1.39-7.78l5.77-2.21c.28-1.98-2.17-.13-3.05-1.63-1.06-1.79-1.05-19.06.07-20.34l1.97,1c3.31-5.47-3.6-6.9-1.76-11.49.48-1.2,4.12-1.96,4.58-2.65.66-.99-2.28-11.07,1.2-12.82l-2-1,2.01-.52-.02-.98c-2.7-.74-5.07-6.76-4.96-9.05.01-.29,1.88-3.85,2.44-5.2,1.53-3.71-.05-7.79,1.75-11.55.79-1.64,3.47-1.52,2.52-4.16-1.7-4.74-.4-1.94-.1-6.84.17-2.84-1.76-5.37-1.59-5.61.11-.16,1.37.1,1.61-.26.1-.15.59-3.36.69-3.52.23-.38,2.41-1.3,2.66-2.78.09-.51-1.55-.4-1.69-.7-.31-.68,1.71-2.14-1.31-1.8l1.98-1.97c-5.43-1.02,1.94-4.57,2.1-6.52l-3.09-4.98,1.99-1.48-1.99-.5c1.82-1.78,2.1-5.46,4.98-5.51l-1.99-1c1.39-.71,2.17-9.49,1.96-10.31-.17-.67-1.58-.56-2.14-2.09-1.53-4.14.45-8.13.81-11.56.16-1.49-.81-5.29-.44-6.55.26-.89,2.24.21,1.81-1.44l-2.99-.02,1.99-1.48-3.99-3.52,1.99-1.48-2.99-3.01,1.91-.91c-1.93-4.5,1.85-10.44-2.66-14.64-1.89-1.76-4.74-.27-4.27-2.91l-1.44,1.97c-6.16-2.23-7.36-4.8-4.66-10.51l-1.87-.48,1.98-1.97h-8s1.9,6.41,1.9,6.41c-3.16,4.54-8.54.31-11.4.79-.15.03-1.06.67-2.24,1.15-.59.24.55,2.84-4.47.54-.77-.36-.81-1.86-1.43-1.94-2.72-.34-6.11,3.3-10.13-.14-.16-.14.93-2.23-1.17-3.22-3.87-1.83-7.66,1.29-10.03-6.1l1.98-1.48c-3.13-.13-3.9-9.49-3.1-12.51.11-.42,2.95-7.46,3.19-7.82.29-.44,4.3-4.58,4.62-4.65,5.36-1.1,6.96,4.62,11.32,6.35,2,.8,6.95-.49,10.71,2.07Z"/>
      <path d="M858.28,158.56c-.53.64-6.52,5.3-7.17,5.29-1.19-.01-2.27-1.4-3.51-1.61-2-.34-4.3,1.4-5.52,1.28-1.13-.11-10.04-10.89-14.45-1.94-3.71,7.53-.75,9.52-.26,15.74.41,5.18-1.36,11.37-.72,15.93.52,3.71,3.89,9.02,4.01,13.08.09,3.33.29,14.04.01,16.95-.22,2.25-2.43,4.86-1.95,7.01.59,2.61,3.43,3.84,3.49,5.96.04,1.42-1.45,3.35-1.57,5.13-.93,13.9-.8,30.8-1.04,44.81-.11,6.22.75,20.47-.47,25.98-1.54,6.96-7.52,12.36-2.52,20.45-7.31.32-7.67,5.02-7.41,11.06l-6.04,1.89-1.3-2.22c1.15-1.08-.52-6.62-1.17-7.27-1.33-1.31-3.01-1.06-3.82-1.7-2.34-1.86,2.45-14.46,2.64-18.16.15-3.02-1.83-5.44-1.97-8.06-.15-2.84,1.21-5.22,1.04-7.85-.18-2.81-2.98-6.19-2.91-8.11.06-1.75,2.42-3.47,2.49-5.98.08-3.1-2.28-8-2.16-11.84.1-3.02,1.99-5.54,2.17-7.19.28-2.53-2.94-7.3-2.14-10.43.97-3.83,3.65-5.03,3.68-9.5.02-4.3-2.8-7.09-3.09-10.09-.25-2.7,1.67-5.86,1.57-9.68-.17-6.54-3.89-14.88-4.6-21.16-.59-5.24,2-10.05,1.71-13.89-.2-2.62-2.8-4.6-2.79-7.12.01-2.15,1.58-2.99,1.91-4.28.81-3.07-6.87-14.56-9.76-16.73-3.39-2.54-7.07-2.88-10.78-.75-1.17.67-1.35,1.94-1.97,2.28-5.22,2.84-8.93-.02-13.56,2.24-4.28,2.09-6.96,9.42-13,8.57-2.18-.31-4.25-2.93-7.27-2.92-.49,0-3.87,2.44-3.94,3.1-2.68-4.48-3.38-6.75-9.51-5.98l1.01,1.98c-2.26.41-6.94-1.34-7.8-3.21-.66-1.44.85-3.45.75-5.2-.17-3.04-2.66-5.07-1.44-9.07,3.56-11.67,9.14-5.52,15.97-7,4.26-.93,10.67-3.88,15.22-4.26,12.2-1.04,29.23,2.82,41.01-3.97,1.75-1.01,2.03-2.7,2.95-3.27,3.25-2.01,5.16.19,7.75.02,2.01-.13,3.52-2.13,5.97-1.98,2.69.16,4.32,3.29,7.02,3.05,2.46-.22,3.29-3.29,5.24-3.85,3.63-1.04,11.51-.69,15.74-1.25,2.1-.27,3.59-1.95,6.02-1.99,6.34-.1,9.42,6.96,15.58,6.55l.66.97c.48,1.18-6.64,18.5-8.03,20.19Z"/>
      <path d="M99.38,174.43c5.23,7.07,4.95,17.48,6.13,26.43,1.75,13.35,7.46,26.6,9.35,40.53.27,1.99-1.15,4.39-.43,6.37.92,2.54,3.19,3.59,4.38,5.64,3.82,6.55,1.18,13.08,2.21,19.77.96,6.21,1.61,9.34,2.29,16.01,2.07,20.09,2.94,38.68,5.55,59.04.61,4.74-.59,10.28.14,14.84.62,3.91,4.21,5.11,4.85,9.13.1.6.17,7.45.11,7.84-.88,4.98-12.15,9.76-17.06,8.12-2.83-.94-7.01-9.04-7.88-12.11-1.76-6.25-3.25-20.5-3.49-27.25-.15-4.19,2.06-7.95,1.38-12.57-.48-3.27-4.06-8.57-5.2-12.79-1.49-5.51-.31-13.8-1.19-17.28-.74-2.94-2.93-4.89-3.44-9.06-.61-4.98.72-21.41-1.66-24.31-1.16-1.41-3-1.47-4.28-3.79-.26-.47-1.94-8.48-1.93-8.94.01-1.73,2.18-2.52,1.63-5.55-.63-3.49-4.91-3.82-5.68-7.46-.52-2.42.54-4.29.36-5.8-1.07-8.89-2.59-20.35-5.49-28.98-1.72-5.11-6.31-9.95-7.57-14.4-1.7-5.95-2.05-12.42-5.7-18.28-1.85-2.97-7.7-4.2-3.14-7.59,1.68-1.26,8.61-3.6,9.14-4.35,1.19-1.7-.44-5.65,2.72-5.86,2.27-.15,13.23,3.33,15.56,4.52,3.36,1.72,6.16,5.16,8.36,8.13Z"/>
      <path d="M23.74,613.54c1.2.98,1.31,5.73,1.01,7.28-.13.66-2.35-.31-1.1,3.55s4.25,3.6,2.42,6.85l1.91.07-1.78,1.14c2.06,10.1-5.09,4.77-8.18,6.35-2.95,1.83-1.45,5.19.48,7.34,4.37.13,6.82-3.21,10.47-3.86v5c-3.6-1.98-5.9,4.85-5.84,7.55.01.44,1.41.32,1.75,1.23,1.09,2.97,1.52,6.37,4.08,8.71-1.35,2.99-4.01-1.37-4,2.01.01,4.76,4.62,5,4.88,10.01-2.23,4.28-10.49-3.01-10.84-2.53l1.12,8.85c3.81-1.27,4.71,2.38,6.86,4.65l-2.5,2.5c-.69-2.72-4.16-1.8-6.43-3-2.23,4.44,1.21,6.7,3.23,10.02.47.78-.92,1.83,1.71,2.45-2.72.62-1.23,1.79-1.66,2.48-1.8,2.93-4.06,1.38-5.37,2.04-.59.3,1.13,11.21,2.06,12.94l1.84-.82,1.11,1.84.51-2.01,1.49,2c-.85-5.05-1.44-8.62.95-13.42l4-.54c1.49,2.43-.46,7.65.45,9.53.63,1.31,2.56,1.57,3.43,3.11,1.03,1.82.63,4.81,1.44,6.04.46.7,2.28.88,3.14,2.21,1.59,2.48-2.69,8.53,5.6,8.04-.42-1.43.12-3.44.42-4.89.15-.72-1.06-1.85,1.06-1.08,1.16.42,2.31,1.99,3.49,2.35,3.27.99,9-.67,12.54,3.64l1.02-2.08,6.86,2.15,1.09-2.07,3.01,2.99,1.48-1.99c-.09,5.28,3.64,2.08,4.03,5.98l1.09-1.84,1.88.85c.89-3.44-3.7-4.41-4.98-7.5,5.39-6.6,8.19,1.4,10.38,1.47,5.97.18,13.45-4.72,18.1-4.76,1.27,0,10.04.17,10.58.26,2.12.39,4.99,3.37,7.92,4.13,9.16,2.36,18.59-4.47,29.05-3.15,2.64.33,10.31,2.24,11.48,4.59.49.97-.47,2.24-.22,2.75,1.2,2.44,4.23,5.78,4.64,9.78l-1.9.85.96,3.05-1.53-.38.51,2.88-3.5-3-.51,3.02c-2.22-1.28-3.8.92-4.42-1.92l-3.56.91,1.99,1.98-3.56-.91c-.6,2.86-5.87,1.13-8.66,1.17-2.25.03-7.41.98-9.18.75-1.17-.15.13-2.43-1.57-1.99l-.54,3-2.32-.76-2.15,2.74-1.98-2.98.99,8.98h-9s.99-6.99.99-6.99c-4.37-.49-4.56,3.79-6.98,1.98l-.02,3.02c-3.91-1.62-12.04,1.47-12.99-4l-1.97,1.98-.49-2-2.52,1.01,1.02,2.41-1.72.79.72,1.79-5.53,1.79c-4.74-2.75-2.68-7.94-.48-11.76l-10.46-.03-.54,3.01-1.98-1.99,2.99,7.97c-3.75,1.18-5.57.82-7.99-2.49,2.34-.81,1.46-1.17,1.82-3.34-7.32-3.87-12.63,5.84-20.82,3.83,2.29-7.24-6.16-3.27-8.54-4.36-1.87-.85-1.69-4.11-4.45-3.62-1.04,1.24,5.12,17.54-6.99,9.96l3.5-3.95c.04-6.65-8.17-1.73-11.44-4.53-.63-.54-5.74-5.77-5.9-6.17-1.42-3.69,2.01-5.06,3.82-7.29l-4.5-3.01-.99,1.99c-5.29-3.64-1.99-4.24-1.54-7.53.04-.28-1.57-.36-2.16-1.86-1.08-2.79.34-6.04-.2-8.09-.48-1.83-3.69-2.66-1.42-6.33.8-.7,5.05.52,4.82-2.65-3.26-1.72-4.02-4.26-5.76-5.98-.52-7.16-.73-10.03,1.07-16.98s1.31-14.18.5-22.01c-.05-.5-1.55-.28-1.63-.94-.07-.55-.12-10.49-.03-11.03.11-.66,2.69.12.85-2.48l3.98,1.99c5.17-7.79-1.06-8.89-2.74-15.32.14-2.82,3.32-2.04,2.08-4.41l6.5-4.4-1.84-6.82-1,1.99-2.49-2-.99,2.01-1-2.02-.99,2.01-2.49-2.98,1.74-.18-.72-1.77,3.95-1.56-1.98-5.48c2.51-.65,4.79.78,5.49-2,1.43,2.54,5.5.79,7.25,2.22Z"/>
      <path d="M1104.47,308.7c8.77,7.12,5.22,20.63-7.37,19.63-4.08-.32-10.89-5.36-12.36-9.42-2.72-7.54-.78-11.47-1.44-17.45-.28-2.54-2.42-5.07-2.85-8.23-3.52-25.86,2.04-52.34,1.07-77.89-.16-4.28-2.87-9.34-2.92-14.07-.13-10.92,2.46-22.14,1.54-33.05-.74-8.81-2.68-16.74-6.4-24.69l2.96-8.38c22.32-11.48,29.43-3.38,26.66,20.11-.42,3.59-2.92,7.98-2.92,11.09,0,8.37,3,21.01,3.1,29.94.06,5.41-2.3,9.69-2.61,15.07s2.61,10.26,2.62,14.92c0,2.53-1.08,5.14-1.18,7.99-.55,16.67,1.15,33.94,1.14,50.98,0,2.7-2.13,4.47-2.08,7.89.02,1.24,1.04,6.66,1.57,7.52,1.05,1.73,4.96,1.68,4.55,5.52l-3.08,2.52Z"/>
      <path d="M153.76,503.67c1.68,2.53-1.88,3.99-1.83,4.25,1.11,6.79,9.04,1.72,13,3.52,1.16,1.1-9.24,10.09-11.99,8.99l4.98,4.97c-1.26-2.69,4.68-1.82,4.97-.41.56,2.68-2.84,9.31-5.95,6.42-1.35,4.31,2.61,7.74,2.51,11.5-.08,3.13-3.16,6.82-1.51,10.46l-3.01.02,1.99,1.48c-2.75,2.04-3.25,7.41-4.32,9.29-.31.55-2.41.76-2.52,1.66-.07.55,2.04,4.73,1.68,6.04-.14.5-1.37.42-1.52.7-.23.44.65,1.37.48,1.6-.5.69-7.23,4.84-8.67,3.4l-.13,1.78-2.47-1.98c-2.62,1.18.91,9.05-5.85,7.88-3.21-2.09-2.44-4.17-.67-6.87l-5.99-4.03,1.99-2.48-1.85-.94c-.25-7.07,3.1-15.82-3.14-21.03l1.98-1.48c-6.28-2.9-1.06-5.03.41-7.3.99-1.52,1.56-5.24,2.48-6.05,1.3-1.13,2.82-.31,3.8-.97,2.56-1.72,3.79-5.72,4.77-8.43.09-.25,1.44-.16,1.42-.67-.13-4.26-1.86-8.64.09-13.53-4.94-.05-8.09-6.22-3.01-9.39,1.06-.66,16.57-.33,17.86,1.61Z"/>
      <path d="M322.16,649.93c.64,1.01,3.08,2.41,3.68,4.84-4.14,1.22-3.71,6.82-2.24,10.21.85,1.96,7.46,7.53,2.26,8.26l3.98,4.97c-5.52,1-10.36,2.33-15.98,1.01v3.98s8.88,1.13,8.88,1.13c-.54,1.4.02,3.34-.53,4.62-.72,1.66-2.57.62-2.35,2.24,4.62,1.11,8.53.52,5.99-4.97l4.34-1.09c3.12,1.81.73,6.7,3.64,6.09v2s-1.98.48-1.98.48l2.01,1.5-1.99.99c3,0,2.53,4.98,4.99,7l-8.99-.98c.51,7.17-3.21,14.96,7.86,14.11,1.76,1.06,2.67,15.4,1.93,17.36-1.82,4.86-.98,6.94-2.01,10.71-.18.65-2.01,3.8-2.35,3.83-5.42-3.54-13.58-6.43-15.44-13.04l-1.97,1.98c-.07-1.92-2.03-2.04-2.37-4.11-.23-1.4.6-4.51.3-4.82-.16-.17-1.7.14-2.54-.41-2.2-1.44-2-4.75-4.39-4.64l1.77-1.11.28-11.25-4.06-2.12c2.87-.75,1.92-4.14,2.35-6.3.04-.2,1.56-.18,1.55-.61-.03-1.38-2.76-10.6-1.9-11.57l1.47.73.71-1.41,1.8.69c.33-3.48-1.43-5.01-4.07-6.65l2.56-5.01,4.52.2c1.72-1.27-.12-3.27.04-3.47.36-.46,4.21-.23,4.14-2.85l1.81.8c-1.16-4.34-5-6.54-5-11.99-3.5-.76-.76,1.86-.98,1.99-2.5,1.41-1.72-2.11-2.51-2-2.02,5.27-2.72-.28-4.5-2.51,2.91-.66.95-1.96,1.23-2.32.41-.53,2.18.53,1.77-1.14l-1.99-1c2.08.34,2.3-2.43,3.63-2.85,4.32-1.34,3.42-.22,7.6-2.77.57-.35,2.17,1.55,1.77-1.38h.98c.03.86-.15,1.93.32,2.66ZM319.84,693.19c-.6-2.36-3.76-1.95-5.4-3.07-1.47-1-1-2.98-2.57-2.91l2,8.99,4.99-1.03-.79-1.47,1.78-.51ZM315.58,701.47c-.24-.27-2.63-1.39-2.72-1.27-.22,2.97,1.3,5.58-2.03,6.49l.02,1.48,4.52,2.02.65-1.74,1.84.23c-.34-1.96-1.06-5.8-2.28-7.21Z"/>
      <path d="M17.65,503.81c1.08,2.88,4.44,1.18,5.66,3.9.63,1.4.9,6.36-1.4,6.32l1,2.97-1.92.44,1.99,2.97-1.99.5c1.76,1.54,5.07,5.73,4.95,8.01-.22,4.19-1.73.96-.25,8.28.86,4.24-.99,3.56-1.61,5s.79,2.94-2.1,3.67c4.44,4.56,2.77,6.86,0,11.49l-1.97-1.98-.99,2.5c2.96,3.38,5.94-.24,7.33,4.7.18.65.56,5.39.4,5.62-.34.48-1.91.37-2.39,1.6-.14.37-.45,7.47-.36,7.85.17.77,1.74.55,1.97,1.41.66,2.46,1.73,4.5,1.79,4.77.85,3.78.67,6.84-3.77,5.49v-5.99s-5.99,1-5.99,1c-.68-4.44,1.03-7.33,1.7-10.77l-7.7-2.22c1.02-1.77.81-5.57.02-7.33-.54-1.22-2.36-.13-3.05-1.3-1.72-2.92,1.1-6.76-1.97-9.33l6.99.99c1.94-6.89-3.25-9.02-5.49-13.46-2.56-5.06.66-16.01-3.29-24.2-.99-2.04-2.84-4.05-5.21-4.31l2.54-4.02c3.04-.93,2.44,2.33,4.07,2.9,5.04,1.76,4.98-4.36-.2-4.81l-.4-5.03,2.57.91.91-1.92,8.17,3.37Z"/>
      <path d="M22,601.32l1.98-1.99,1.93,6.52c-3.72,4.92-7.71.22-12.78,1.32l-1.14-4.84c3.56.14,6.49-1.06,8.84-1.25l1.15-1.75.02,2Z"/>
      <path d="M19,591.35l-5.51,8.97-.65-1.76-1.84.77c.63-2.02-1.13-7.08-.83-8.51.16-.72,2.61.08.81-2.47l8.01,3Z"/>
      <path d="M1849.84,480.88c.19.06,3.22,2.1,3.32,2.28.87,1.54.12,4.56-.11,6.28-6.46.83-5.69-2.91-8.92-7.48,1.05-1.06,4.41-1.48,5.7-1.08Z"/>
      <path d="M1714.02,38.16c.48,1.31-1.59,4.7-2.56,4.85-8.73,1.4-7.09-9.75,2.56-4.85Z"/>
      <path d="M1354.2,239.92l1.04,6.19c-4.57,5.23-5.22-2.38-4.88-6.34l3.84.15Z"/>
      <polygon points="1898.9 574.54 1900.09 581.34 1897.1 579.35 1896.11 581.34 1894.11 573.36 1898.9 574.54"/>
      <path d="M930.76,646.03l-1.21-4.75c7.82-1.79,9.16,8.07,1.21,4.75Z"/>
      <path d="M1349.34,237.77c-7.74-4.41.96-12.59,1.56-4.07.11,1.55-1.65,2.5-1.56,4.07Z"/>
    </g>
  </g>
</svg>