<?xml version="1.0" encoding="UTF-8"?>
<svg id="Livello_1" xmlns="http://www.w3.org/2000/svg" version="1.1" viewBox="0 0 64 64">
  <defs>
    <style>
      .st0 {
        fill: none;
        stroke: #000;
        stroke-linecap: round;
        stroke-miterlimit: 10;
        stroke-width: 3px;
      }
    </style>
  </defs>
  <polyline class="st0" points="32 4 32 28.3 16.5 39.2"/>
  <line class="st0" x1="32" y1="28.3" x2="47.6" y2="39.2"/>
  <path class="st0" d="M38,32.5v-13.8s-.5-5,5-5,16.8,15,17.7,25.5c1.2,9.8.3,18.5-4.9,18.5s-13.7-4.5-16-6.9-1.8-10.8-1.8-10.8"/>
  <path class="st0" d="M26,32.5v-13.8s.5-5-5-5S4.2,28.7,3.3,39.2c-1.2,9.8-.3,18.5,4.9,18.5s13.7-4.5,16-6.9,1.8-10.8,1.8-10.8"/>
</svg>
