<?xml version="1.0" encoding="UTF-8"?>
<svg id="Livello_2" data-name="Livello 2" xmlns="http://www.w3.org/2000/svg" viewBox="0 0 3473.98 526.44">
  <g id="Livello_1-2" data-name="Livello 1">
    <g>
      <path d="M2193.02,138.49c-1.35,1.94-4.79,5.86-6.86,8.66s-14.59,9.33-18.07,10.7c-1.08.42-.39,2.7-2.75.9-.42,3.7.34,6.93,2.54,9.93,1.43,1.95,3.4,2.41,4.46,3.8,1.48,1.94,2.46,5.97,3.96,7.75,1.6,1.9,4.67,2.48,6.04,4.22,2.22,2.81,4.95,10.26,7.54,14.17,5.01,7.59,10.2,14.1,15.13,21.77,2,3.12,6.38,4.58,5.82,10.29-.73,1.57-11.05,6.52-13.02,6.51-2.11-.01-4.56-1.87-6.97-2.06-7.13-.54-17.06,2-23.62,2-2.56,0-5.31-1.21-7.59-2.32-9.69-4.74-27.21-34.72-33.87-45.05-1.5-2.32-4.07-4.19-5.86-7.13-10.91-18.01-7.08-32.72-6.32-52.59,4.55-5.41,12.25-2.56,18.78-3.69,2.09-.36,15.45-5.81,16.66-6.83,2.55-2.14,8.54-13.82,9.01-17.44,1.61-12.26-3-17.36-12.37-24.07-18.4-5.82-38.32-1.65-57.3-2.08l-2.49,158.79c-1.62,5.7-10.53.96-13.9,1.18-5,.32-11.82,2.45-17.05,1.65-2.61-.4-4.19-2.25-6.32-2.7-2.77-.58-5.62.34-8.32-.68-5.78-3.8,1.6-37.22,2.04-44.89,1.1-19.06.74-42.83.02-62.03-1-26.75-6.06-55.99-4.07-82.85.4-5.34.86-12.33,7.52-12.46,32.43,1.63,67.95-4.43,100.03-2.02,19.51,1.46,34.2,9.64,46.96,23.99,4.7,5.28,13.29,15.96,13.93,22.83,2.12,22.65-.67,42.95-13.75,61.74ZM2156.6,51.43c1.66.69,6.13,1.8,7.73.97,8.24-12.46-3.12-7.51-8.01-10.09-1.8-.95-4.95-6.38-7.88-4.28-3.59,2.57,3.13,7.48,4.53,9.16.61.73.04,2.74,3.64,4.23ZM2130.36,47.93l-2-2.99-2,1.99v2.96s4.83.31,4.83.31l.17,1.7h1.99s.99-1.97.99-1.97c-.49,4.07,6.51-.24,9.42,1.99,1.13-2.71.9-1.71,3.59-1.01.06-5.3-3.78-3.6-6.82-4.31-.19-.05-.17-1.32-.66-1.45-3.22-.83-5.76,3.15-8.5-.22l-1,2.99ZM2177.09,49.2c-2.1-2.43-7.01-1.1-8.27,1.79-.49,1.12.52,2.45.31,2.79-.27.42-1.88.4-2.51,1.61-.71,1.37.73,5.24,1.74,6.52,1.61.43.67-1.33,1.16-1.64.83-.51,3.96-1.41,4.59-1.7.28-.13.15-1.33.71-1.45,1.23-.27,4.29,1.73,5.49-.69-1.96-1.43-2.29-6.16-3.22-7.23ZM2184.59,68.33c.37-.32,2.14.61,3.23-1.44,1.67-3.12-2.5-9.92-6.49-8.96,1.18,6.11-5.07,9.22-2.94,14.98,3.64,0,4.08-2.75,6.2-4.57ZM2163.51,78.57c-.48-.28.46-2.1-1.16-1.67-2.59,2.38,3.2,11.8,4.98,9.98,1.63-4.9-.17-3.24-.9-4.76-.4-.82-.03-2.3-.57-3.31-.49-.92-1.88.04-2.34-.24ZM2133.24,135.89c-2.52,1.19-6.65-1.33-7.89,1.88,3.25,1.82,4.7,4.06,8.99,4.01l-1.1-5.9ZM2122.34,146.78c-3.53-.93-.83,3.1-1.2,4.5-.16.62-1.6.43-1.71,1.13-.32,2.04.24,11.93,3.4,11.34,2.95-.55-.73-14.4-.5-16.97ZM2076.92,183.38c1.7-6.83,2.38-14.97,2.46-22.12.01-1.08-.04-9.5-.12-10.01-.2-1.16-.37-1.76-1.4-2.47l-.65,1.76-1.84-.77c.24,2.59.59,7.12-.24,9.5-.22.63-1.6.64-1.79,1.21-.63,1.93-.51,20.73-.7,25.13-.13,2.84,1.86,4.39.72,7.1h3.01c-.15-2.05-.97-6.85-.8-8.5.06-.6,1.28-.51,1.36-.82ZM2065.09,185.51c.62-.92.16-22.72-2.22-21.75-3.61,2.27-1.83,5.2-2.02,8.48-.34,6.02-.46,15.45.64,21.85.36,2.08.58,5.69,2.86,6.61-2.17-3.69.95-9.67.6-12.52-.12-1-1.95-1.87-1.57-2.42.08-.11,1.44.15,1.7-.24ZM2052.74,184.41c-.63-1.26.27-2.95-1.36-2.68-2.88,5.45-1.51,12.83-1,18.96,4.44,1.51,2.49-4.49,2.61-8.1.09-2.53,1.18-5.6,1.23-7.43.01-.44-1.28-.35-1.48-.75ZM2052.37,216.68c-7.82.86-3.1,5.89,1.99,6.98l-.12-4.83-2.39-.16.52-1.99Z"/>
      <path d="M2001.1,193.51c-4.92,10.24-24.36,32.23-34.99,37.35-7.62,3.67-6.97,1.6-15.02,7.46-3.94,2.87-34.13,4.77-40.99,4.8-3.46.02-9.96-2.1-13.2-2.15-2.59-.04-5.9,1.52-7.6,1.15s-15.22-9.64-17.37-11.48c-26.09-22.29-29.99-42.74-28.54-76.41.17-3.91,1.88-8.26,2.06-11.99,1.08-23.65-1.83-49.9,9.46-71.36,29.6-56.29,121.8-53.2,144.8,7.17.2,34.98,7.1,71.79,1.75,106.24-.26,1.68-.15,8.81-.35,9.22ZM1975.13,60.71c.65-1.27-1-4.06-1.68-5.34-7.16-1.53-4.82,8.08.95,7.54l-.72-1.78c.39-.26,1.35-.21,1.45-.41ZM1885.14,63.12c-.74-.99-8.11-3.69-8.72-3.19.88,4.31,3.47,5.89,7.58,6.91,2.12.52,1.26-3.55,1.13-3.72ZM1943.1,77.2c-1.02-.75-7.64-3.13-9.16-3.32-3.09-.39-23.06.41-25.82,1.22-.58.17-8.85,6.4-9.69,7.3-9.55,10.14-9.45,23.88-9.71,36.94-.34,16.86,0,33.98.77,50.88.19,4.3-2.02,8.48,1,11.96,1.8,2.08,8.98,6.7,9.9,8.28,1,1.72,1.08,4.04,2.15,5.64,1.63,2.45,17.05,5.69,20.33,5.63,6.77-.12,14.06-4.25,20.76-5.05,1.12-.47,10.68-13.13,11.28-14.95,2.66-7.99-.46-29.9-.55-39.39-.14-14.46,1.56-30.97-.09-44.91-.8-6.8-1.07-9.78-6.36-14.57-.96-.87-2.69-.67-3.3-1.13-.19-.14.49-3.06-1.51-4.52ZM1980.17,201.91l-4.68-.11.03,5.75,5.78.03-1.14-5.66ZM1958.07,214c-.58-.55-8.02-5.08-8.99-5.51-1.21-.54-2.48-.82-2.65.68s8.45,6.51,6.1,11.35c1.27.63,10.99,1.91,10.85-.37-3.16-1.09-3.59-4.51-5.31-6.16ZM1973.13,211.88c-1.44-1.47-7.03-2.19-6.47,2.13.86,6.71,10.93,2.41,6.47-2.13ZM1947.15,229.42c3.83-2.94-2.72-5.04-6.27-4.51-.42.06-.45,1.28-.71,1.37-1.6.52-4.35.83-5.75,2.87,1.78,3.49,10.71,1.82,12.73.27Z"/>
      <path d="M629.35,188.3c-10.59,12.26-31.82,25.59-48.03,28.4-2.97.51-32.58,1.09-35.05.52-1.32-.3-2.23-2.16-3.9-2.63-3.08-.87-6.69-.83-9.26-1.73-22.09-7.8-38.23-24.71-45.35-46.57-5.67-17.41.37-42.04,2.03-59.95,1.57-16.83.75-36.63,6.28-52.63,12.31-35.6,62.28-47.7,95.7-39.21,21.63,5.49,39.23,18.15,51.42,36.5,10.01,15.07,4.95,29.52,3.72,46.51-1.38,19.1-2.39,38.56-4.21,57.71-.45,4.68-4.53,22.75-6.46,26.49-.24.46-5.36,4.81-6.9,6.59ZM584.23,171.2c16.38-11.51,13.49-39.78,15.11-57.81.7-7.77,3.2-17.22,3.49-25.97.19-5.95,1.13-12.62-2.52-17.53-1.16-1.56-14.45-14.2-15.46-14.51-.86-.26-16.26-2.24-17.79-2.21-7.33.16-17.9,2.07-22.65,8.05-1.8,2.26-7.08,14.34-7.54,17.24-1.28,8.18-.36,18.56-1.07,26.88-1.07,12.45-3.16,25.06-3.67,37.61-.21,5.2-1.01,11.62,2.33,15.9l6.34-2.07c-.65,14.19,6.74,16.42,19.02,17.56,4.72.44,19.41-.05,23.17-1.64.89-.38.91-1.25,1.25-1.48Z"/>
      <path d="M2742.84,41.28c5.84,5.85,21.64,29.38,22.29,37.22.59,7.02-1.16,17.35-1.02,24.87.45,23.73,2.84,50.25,1.49,73.84-.07,1.26-3.42,14.53-3.77,15.27-.15.31-3.93,3.99-4.6,4.99-3.11,4.61-3.95,11.32-10.79,8.57-3.7-1.49-2.82-9.98-3.5-12.87-.08-.36-3.22-3.47-3.62-4.15-1.25-2.13.91-4.8-2.13-4.32.97-2.54,5.8-1.11,7.9-1.94l2.6,6.93c2.62.34.47-3.14,3.47-.98.02-1.16.11-2.33.01-3.5-.52-6.2-1.69-3.31-3.68-4.25-4.4-2.07-2.04-3.72-2.43-4.57-.35-.76-1.3-.58-1.78-1.47s.07-2.37-1.08-3.7c-1.23-1.42-5.27-1.57-6.03-3.25-.83-1.84-.5-10.97.21-12.72.56-1.4,5.31-1.78.88-2.9,2.25-3.1-.13-7.7-3.06-8.62,3.62-4.15.81-8.04.39-11.91-.32-2.93.87-6.05-1.28-9.54l1.86-.48-1.98-1.97,1.97-.47-1.34-4.61c.85-.86-2-1.89-2.15-1.9-2.29-.07.5,11.46-1.23,12.77l.59,2.74-1.84.46c2.56,2.55.13,5.74.01,9.51-.34,10.99-.77,18.05-1.76,28.92-.51,5.58,1.81,11-1.85,15.54l-4.42-.07c-1.27,6.27,4.63,8.97,7.45,13.06,1.28,1.86,2.26,7.58,2.64,7.81.41.25,1.76-.14,2.54.41,2.21,1.57,6.69,3.46,7.14,3.9.67.66,3.04,5.55,4.21,6.71-5.19,1.53-9.23,6.38-13.92,8.6-7.07,3.34-35.24,13.72-41.55,13.06-1.05-.11-1.83-1.98-2.49-1.63-.17.09.47,2.18-2.52,1.98-1.48,1.66,2.3,1.03,3.06,1,7.25-.26,12.32.27,17.92.81,4.32.42,12.45-2.54,12.5,4.1-1.28,1.01-29.02,2.73-32.53,2.58-4.4-.18-14.81-2.75-18.48-4.8-.54-.3-1.66.24-1.8.1-.82-.84-.61-3.8-2.16-5.29s-11.55-4.86-14.92-7.06c-11.09-7.23-21.94-19.5-31.82-28.41-2.42-2.18-6.47-2.19-7.55-5.94-.64-2.25.63-5.62.3-7.33-.11-.56-4.88-5.84-5.55-8.6-.83-3.42-1.19-10.54-1.43-14.48-1.59-26.09-1.12-58.81-.04-84.98.16-3.93.46-13.65,1.08-16.71.16-.79,5.4-4.25,6.43-5.74,7.01-10.23,8.26-13.85,19.6-21.35,2.58-1.71,17.07-10.55,18.86-11.12,2.45-.78,17.59-2.77,21.67-3.32,23.95-3.24,55.52,3.66,73.03,21.18ZM2681.19,55.93c6.55-.65,9.42-.4,14.95-5.03,1.16-3.5-4.37-1.36-3.96-4.45l1.86.36c1.77-5.6,13.05-4.49,18.14-3.87l-6.52-3.99-.49,2-2.49-1.99c-.35-.13-.89,5.21-2.49-.98l2.88-2.38c-1.01-7.21-17.5-4.89-22.41-2.72l-1.49-1.9,2.99-.79c-1.19-1.3,3.62-2.79,1.03-3.73-4.3-1.55-8.72.92-13.01-.47,1.7,4.84,5.14,6.4,10,6.99l-1.01,2.98-5.53-3-.95,2c-4.51-5.06-12.05-.79-15.97-1.52-2.62-.49-4.78-2.4-7.53-2.46,1.59,4.05-4.46,5.04-6,7.97l2.8.16c-.97,8.82,8.24,5.93,9.16,6.88.29.3-.3,2.66.55,3.97.97,1.49,3.54-.3,1.5,3.98l1.84-.86c.96,3.7,3.07,3.36,6.15,1.86,1.22,4.56-.06,5.2-1.19,8.31-.35.97.1,2.23-.08,2.47-.73,1.01-5.73,3.47-7.35,5.17-1.21,1.26-.45,2.42-.7,2.79-.42.61-1.98.76-2.92,2.48-4.3,7.91-3.14,51.19-1.54,61.19.34,2.14,2.15,3.49.81,6.45,3.78-2.04,4.09-19.69,7.49-19.95,1.58,3.14,2.47,8.33,2.92,11.81,1.41,10.89.23,26.25-.92,37.56-.18,1.82-2.2,3.63-1.41,5.84l13.6,8.46c14.3,5.49,27.29-.04,39.56-6.82.69-.38.75-1.73.86-1.77,1.98-.7,4.03,3.31,6.34-4.71,3.29-11.41.72-33.26.5-45.83-.28-16.1.35-33.21-.55-49.04-.54-9.46-12.96-2.42-12.48-11.84l2.04-1.09c-7.04-8.69-19.55-5.69-28.92-8.57-.18-.62-.1-1.28-.07-1.92-2.13.21-7.17,1.79-9.55.81-.76-.31-.38-4.15-1.94.19l-1.5-2.98c1.91-.66,4.5-1.24,6.23-2.08.88-.43.74-2.01,1.23-1.92.53.1,5.12,2.86,5.64,3.47,1.2,1.41-.08,1.91-.11,2.52ZM2732.18,84.87l-2.99-2.99v10.98s2.65-1.49,2.65-1.49l-1.66-4.48,2-1-2-.02,2-1ZM2654.46,157.61c-.28-.63,1.46-7.84-2.25-8.83,1.43,3.11-.74,5.74-.74,7.87,0,1.32,1.02,11.02,3.73,9.09-1.85-2.57.82-1.75.99-2.62.04-.24-.04-4.64-.12-4.87-.19-.55-1.51-.42-1.61-.64Z"/>
      <path d="M2360.67,64.54c.39.74,2.69,1.54,3.06,4.24.31,2.23-1,3.99.21,6.88.7,1.69,3.64,1.99,4.62,4.5.7,1.79-.76,3.72.45,6.45,1.14,2.59,3.32,2.56,4.05,3.46.18.22-.67,1.09-.44,1.58.13.28,1.42.16,1.48.7.53,4.97-2.15,8.96,1.2,14.77,11.32,19.63,16.93,42.76,24.68,64.37,4.39,12.23,7.4,28.07,15.91,38.6.98,2.57,2.27,15.51,2.87,16.52,1.6,2.67,4.3,1.33,5.59,2.68,2.03,2.12,1.54,8.69,3.9,11.33-14.09,3.62-2.95-4.86-8.06-11.94-.8-.59-8.66,3.53-10.44,3.5-3.71-.06-10.6-3-15-2.62-1.81.16-1.48,1.54-1.75,1.67-.54.25-4.31.68-2.46,3.19,1.27,1.73,4.97,2.22,5.51,2.58.45.3.55,1.52,1.22,2s2.39-1.06,3,2.61c-2.88.4-3.46,2.47-6.32.92-5.8-3.14-5.82-9.66-6.61-10.3-1.02-.82-7.19-1.31-9.05-2.08-7.75-3.19-6.68-9.69-9.54-16.47-1.5-3.55-3.73-6.39-5.31-9.76-.98-2.1-.35-7.35-3.78-8-.38-.07-7.01.62-7.72.79-.81.19-.63,1.9-1.1,1.87-16.31-.87-30.8.28-47.06.55-3.86.06-14.57-2.15-16.95.52-.9,1.01-3.3,16.38-4.37,19.68-.57,1.77-5.74,13.58-6.36,14.04-7.36,1.45-14.05.52-21.25.52s-6.49.37-14.05-.81c-3.21-.5-7.84,2.03-11.25-.68-.89-1.19-1.2-2.52-1.04-4,.33-2.93,4.47-13.52,5.76-17.26,18.17-52.61,38.68-104.12,57.06-156.67,2.86-8.17,4.48-22.28,11.51-28.44,3.88-3.41,6.35-.78,9.9-1.01,7.2-.47,21.31-3.23,27.91.09,7.93,3.98,15.51,30.92,20.01,39.44ZM2312.54,152.23c4.07-1.75,7.62,2.19,10.34,2.53s5.96-1.36,8.9-1.44c3.68-.1,15.93,3.49,17.39-2.25.45-1.76-7.19-14.96-8.35-18.3-2.01-5.77-2.26-13.64-4.45-18.51-1.19-2.66-3.54-4.15-4.96-7.03-1.76-3.56-5.25-20.8-7.62-21.36-1.69-.4-2.02,1.35-2.48,2.5-1.86,4.69-2.02,13.97-3.47,19.5-.89,3.37-2.66,8.57-3.78,12.2-3.04,9.89-7.86,19.46-10.29,29.61.61,3.29,2.57,5.17,5.87,5.01l2.9-2.47Z"/>
      <path d="M419.14,65.6c-1.72-1.27-2.06-5.32-3.27-7.21-2.39-3.74-7.33-5.84-8.01-12.03-5.92,1.27-5.3-2.1-8.25-3.65-8.46-4.46-21.49.37-30.72-.27-1.81,6.96-13.58,10.94-6.59,18.53,1.31,1.42,3.34,2.07,4.55,3.45,2.35,2.69,3.76,7.66,6.62,9.36,5.12,3.04,20.65,8.19,27.21,10.76,4.01,1.57,8.15,1.71,11.86,3.14s24.9,13,27.64,15.32c5.6,4.75,12.33,12.91,15.36,19.6,5.21,11.5,2.85,13.51,1.42,24.74-1.3,10.2-2.24,25.13-9.59,33.41-.79.89-2.6,1.37-3.59,2.42-20.1,21.32-49.88,22.82-77.77,19.15-7.3-.96-16.32-2.52-23.66-4.77-2.53-.78-13.62-7.82-16.19-10.14-4.46-4.01-9.61-12.57-13.29-16.18-6.04-5.92-5.06-.19-7.1-10.92-1.11-5.82.08-6.36-.23-10.91-.18-2.73-2.44-7.91-2.55-11.17-.02-.47,1.7-.32,1.87-1.09.45-2.02-.09-12.26,1.05-13.29,4.24-1.38,3.77,1.8,5.54,2.83,5.51,3.23,8.19,1,12.88,1.66,5.38.75,14.99,5.4,19.81.51,1.09-1.1,1.03-2.9,2.12-4.12,2.98-3.32,15.21-4.5,13.6,3.07l-9.44,1c.92,2.13-1.42,1.95-1.55,2.68-.31,1.76,1.18,10,1.92,11.88,1.5,3.81,4.76,4.18,5.81,5.61.15.2-.34,2.5.44,4.04,4.07,8,15.95,10.11,24.33,10.73,6.08.45,22.87-.44,26.34-5.61,4.09-6.09,5.62-14.8,2.05-21.54s-8.79-5.2-14.11-6.85-9.89-4.53-14.64-6.65c-5.98-2.67-6.85-1.72-12.65.58l-1.02-.82c2.33-3.95-10.46-9.6-13.04-9.99-9.98-1.51-7.43,6.83-13.98,7.9-2.5.41-13.97.39-15.99-.4-3.39-1.33-9.63-10.59-13.19-11.34-1.11-.23-2.37.75-3.09.57-.32-.08-3.94-4.87-3.16-5.74,3.09-1.57,7.01,1.2,9.52.57,2.64-.67,4.3-3.62,5.99-3.63,1.53,0,3.51,2.97,3.45,3.57-.05.47-6.73,3.96-4.52,7.51.93,1.5,21.4,6.04,24.55,2.92l-.82-1.8,2.77-1.77c.47-5.96-6.6-6.22-11-5.82-2.06-3.79-.73-7.16-4.21-10.17-.34-.29-6.38-1.76-7.49-3.64-.51-.87.07-2.33-.62-3.42-3.33-5.27-5.51-10.13-6.69-16.8-15.25-86.34,118.61-93.58,145.1-25.93-2.78,8.41,4.03,20.49-6.4,24.72-2.31.87-3.37-1.83-6.27-2.24-3.68-.53-11.4,1.3-14.8.98-1.64-.16-2.98-1.58-4.31-1.78-2.76-.4-7.82.06-9.96-1.53ZM316.78,137.83c-4.02.23-4.61.28-5.82,4.49l2.09,2.22,3.92-1.42-.19-5.29ZM330.86,163.76l-5.86,1.15c-1.89,2.91-.25,4.97.44,7.87l3.41.95,2.01-9.97ZM337.21,178.08c5.69-2.72,11.28-.9,1.15-8.31-1.96,1.77-2.69,4.57-1.52,6.91l-3.97,1.57c1.32,5.13,3.53.22,4.34-.17Z"/>
      <path d="M1610.82,123.56c1.27,1.14,2.61-.86,4.09,4.17.25.84-.47,1.95-.33,2.43,2.79,10.09,3.71,22.72,6.98,34.03,3.85,13.29,9.51,27.09,13.59,39.72,1.31,4.06,1.57,11.59,3.17,15.31.51,1.18,3.95,4.7,4.1,5.18.34,1.14,1.17,13.28,1.06,14.62-.69,8-7.09,3.71-10.5,3.51-4.96-.3-12.39,1.41-18.01,1.14-2.43-.12-12.35-1.18-13.76-2-3.78-2.2-5.49-14.22-7.41-18.78-.53-1.26-2.21-1.17-2.33-1.9-.37-2.3,1.67-4.76.88-7.59-1.73-6.17-7.81-2.31-11.31-2.24-8.58.17-28.31-3.18-35.85-1.51-1.9.42,1.53.97-5.11.96-4.66,0-20.64-1.19-22.85,3.33-1.19,2.44.27,5.58-.51,8.4-1.72,6.26-8.17,12.61-9.19,19.8-1.54,1.35-16.5,1.68-19.49,1.82-3.34.15-6.79,1.12-11.01.44-.59-.1-.43-1.6-1.16-1.75-4.01-.83-10.02,2.12-10.42-4.51-.28-4.73,2.57-5.26,3.85-8.23,18.93-43.81,42.41-91.38,57.68-136.09,4.43-12.96,7.1-29.04,12.47-41.46.44-1.02,3.47-5.58,4.07-5.92.72-.4,14.09-1.45,16.44-1.54,3.64-.14,11.44-.27,14.89.1,10.4,1.13,13.18,15.4,19.18,22.86,1.48,1.84,4.73,2.76,5.32,4.73.7,2.34-1.03,5.93-.62,9.49.51,4.4,7.34,15.61,9.07,20.76,1.9,5.63-.53,17.53,3.01,20.71ZM1561.09,106.88c-1.26.39-1.79,2.69-2.12,3.91-3.31,12.31-7.45,24.52-12.26,36.69-3.14,7.95-11.19,16.81-6.68,25.26,1.57.28,3.8-3.68,7.07-3.99,2.84-.27,4.67,1.42,6.87,1.5,5.01.18,17.77.83,22.2.22,9.09-1.25-.07-16.25-1.41-22.44-2.31-10.68-3-13.84-6.57-24.4-1.21-3.58-1.97-14.14-4.11-15.87-.93-.75-1.76-1.2-3-.89ZM1488.82,210.96c.38-.59,1.94-.87,2.62-1.89,1.81-2.71.54-8.8-1.85-4.74-.92,1.57-1.18,6.92-2.2,8.2-.1.13-1.48-.67-2.38.04-1.48,1.16-3.77,5.33-.97,6.08,4.54,1.22,3.62-5.88,4.78-7.7ZM1605.74,223.9c-2.11,2.42-1.49,6.04,1.26,7.72,3.75-2.32,2.68-12.24-1.26-7.72Z"/>
      <path d="M1005.41,193.51c-.51.65-2.36.84-3.62,2.81-1.57,2.45-9.83,19.74-10.76,20.43-3.41,2.52-11.58,7.25-15.82,9.92-20.49,12.88-35.23,13.45-58.94,13.35-3.19-.01-7.59-1.49-10.53-.98-2.35.4-5.14,2.37-6.58,2.55-.4.05-.46-1.62-1.69-2.27-2.38-1.25-10.69-3.37-11.54-4.01-11.42-8.77-26.62-23.11-32.7-36.63-10.32-22.96-4.84-33.32-2.52-56.4,2.67-26.54.62-65.4,22.48-84.38.6-.52,12.52-8.4,13.24-8.75,3.56-1.71,7.42-2.09,12-4.19,20.28-9.32,55.17-4.9,76.31,1.42,4.5,1.35,22.34,14.19,25.97,18,5,5.24,17.13,22.16,17.07,29.01-.02,2.74-1.55,4-1.75,5.93-1.73,17.08-3.35,33.94-5.35,50.97-.66,5.63-3.93,41.5-5.27,43.23ZM975.67,57.92c.56-8.1-12.27-3.11-17.06-4.59-3.47-1.07-5.34-3.87-8.62-5.19-11.28-4.53-22.07-3.13-33.03,1.2-.21.08-1.08,2.02-3.55,2.78-3.52,1.08-3.26-.04-7.48,1.74-4.87,2.05-7.54.13-4.64,8.08l4.35-.04.06-2.99,1.99,1.03v-3.03c4.77,2.15,8.45-4.86,12.98,0-.23-3.68,4.84-1.86,6.55-2.19.63-.12.33-1.58.93-1.63,2.1-.17,15.36,1.1,17.22,1.67,1.1.34,2.07,1.22,3.32,1.18-.36,1.43-1.57,2.22-2.93,2.59-1.64.44-19.56,1.49-21.43,1.13-.95-.18-2.2-2.19-2.62-1.73l1,2.98-3.02.02c-.79.6,4.21,4.69,4.54,4.79.64.18,2.56-.89,3.24-.52.82.44,2.01,3.3,5.76,2.55l.96-1.83c1.44,3.13,4.55.95,5.32,1.26.14.06.13,1.51.91,1.68,4.52.98,14.88-1.26,12.27,6.03l8.45-1,.57,2.51-1.92.94.4,2.54c-1.69-3.38-9.8-2.98-10.28-3.25-1.64-.93-.38-.9-3.99-2.12-.2-.07-.2-1.64-.74-1.66-1.71-.05-5.09,3.27-8.43,3.61s-5.8.42-9.5.93c-2.5.34-5.78.06-7.85.53-.97.22-11.79,10.23-12.67,11.43-9.44,12.89-7.12,32.6-10.42,48.3-.24,1.15.31,2.05.4,3.13-4.93,1.05-4.32-6.21-5.8-9.67-.97-2.27-4.23-6.2-4.86-7.5-.25-.52.42-1.26.67-1.78h-3s-.59,2.85-.59,2.85c-2.79-1.13-3.89,2.61-8.41,1.14l1.01,1.96c-3.09-.1-4.41,3.38-6.5.03l-1.48,1.99,1.99-3.48c-3.16-1.48-.93-4.5-1.27-5.35-.08-.2-1.54-.02-1.58-.59-.44-6.16,2.43-14.04.84-20.51l4.02-.02-.78-1.8c5.26-2.59,2.61-7.71,1.76-12.17l-4,1.03c.96,4.55.56,11.84-4.94,13.08l.81,2.38c-3.65,1.14-1.04,3.65-1.34,6-.25,1.98-2.41,4-2.58,7.96-.14,3.2.43,6.33,1.79,9.22,1.45,3.07,6.86,3.43,4.28,9.26l1.98-1.99c-.72,4.9-4.2,10.23,1.28,13.25,1.5.83,4.48.94,5.51,1.96.66.65.6,2.18,1.24,3.03.44.58,1.46.77,1.56.99,1.03,2.18.86,6.41,2.69,8.83,1.44,1.89,2.55,3.61,5.19,3.92,1.18.01,5.12-14.69,3.58-16.94l4.96-.06c-1.77,5.08.16,10.59.39,15.84.27,6.29-3.11,23.19,7.58,19.1-.97,2.23,1.8,3.16,1.83,3.48.22,2.3-1.04,4.61,1.16,7.78,3.84,5.52,27.17,6.13,33.59,5.76,1.85-.11,2.92-1.43,3.93-1.55,1.6-.2,3.64.91,5.8.5.67-.13,8.85-8.67,9.55-9.6,5.76-7.62,6.24-20.14,7.15-29.84.36-3.88-.26-7.94.14-11.91,1.32-12.94,7.12-40.21,3.1-51.2-1.48-4.06-10.64-8.9-6.92-13.94,1.64-2.22,8.52-1.88,10.99-1.33,1.4.31,2.08,6.37,5.72,2.33l-3.18-15.14c-3.71-1.16-11.03-.25-14.29-2.06-.43-.24-.16-3.15-1.55-4.07,4.75-1.68,10.54-4.21,15.99-4ZM883.85,66.14c.3-.23,2.4.93,4.08.61,4.56-.88,10.62-4.99,3.03-6.63-5.54-1.2-6.65,1.4-10.29,4.36-.26,1.3.34,2.94,1.54,3.42,1.87.75,1.39-1.57,1.63-1.76ZM902.29,76.67c.47-2.75-.58-5.94-.05-8.77-2.74-2.8-2.51.49-2.76.61-.65.32-1.71-.3-2.32.28-2.83,2.73-3.31,13.88.04,17.08l.65-1.75,1.83.76c.44-.29,1.14-6.79,1.36-7.81.04-.19,1.22-.26,1.25-.41ZM880.23,82.29c.87.98,1.5,2.9,2.96,2.58,2.08-1.34,2.66-3.68,2.09-6l-6.58-.97c.81,3-.16,2.48,1.53,4.39ZM980.66,96.86c-1.71-1.4-1.68-.16-1.85,1.39-.45,4.11.9,9.35-.14,13.57l4-3.71-2.01-11.25ZM958.95,201.88c.34-.48,1.68-.67,2.24-1.17.95-3.58-10.1-.37-10.46.1-1.95,2.58,3.23,8.52,6.94,7.86-1.93-4.07.3-2.42,1.06-3.68.7-1.16-.07-2.73.21-3.12Z"/>
      <path d="M1825.29,39.1c.68,1.28,1.04,2.61.92,4.08-.68,8.29-5.62,19.84-8.06,27.93-8.14,26.94-19.32,52.44-29.19,78.69-1.26,3.35-5.13,19.85-5.8,20.73-9.52,12.52-14.58,40.81-20.18,56.14-1.76,4.81-3.84,9.74-4.76,14.77-1.51.16-2.99,1.43-4.3,1.63-2.77.43-29.26.55-31.91,0-8.83-1.8-11.55-7.29-14.22-15.26-8.16-24.34-13.95-50.93-21.03-75.84-8.12-28.58-16.04-56.97-25.8-85.05-2.07-5.95-13.57-23.99-2.63-24.41,11.34,1.88,25.56-2.63,36.61-.54,4.57.86,8.46,11.24,10.55,15.21,2.87,5.48,3.98,14.15,6.04,17.09,4.46,6.34,1.97,3.4,2.9,11.13.74,6.13,4.5,21.47,7.01,26.17s1.34,8.36,2.2,12.46c2.46,11.67,6.01,23.07,8.52,34.52,1.19,5.44,1.25,10.95,2.86,16.22l4.77-2.26,43.12-131.59,42.37-1.82Z"/>
      <path d="M3084.75,55.71c-.11.21-3.18,3.2-3.4,3.25-1.85.44-4.34-.79-6.25-.63-2.61.21-12.42,1.17-13.69,2.9-3.18,4.35.25,4.59.33,4.88,1.8,6.08-.82,10.19-.44,15.22s2.82,11.76,3.24,17.02c1.41,17.55,2.16,35.38,3.84,52.89.62,6.5.79,17.38,8.19,8.76l2.72,2.5,1.79-.75c-.08,3.11-.04,4.56-2.17,6.74l-6.81-1.74c.28,4.47.77,7.73-1.01,11.97,4.31,2.66,6.29-2.7,9.57-3,2.25-.21,3.91,1.69,6.01,1.99,3.49.5,6.84-1.64,10.16.29l5.24,17.23c2.51,1.87,3.03-3.06,4.48-3.29,4.35-.7,6.25,5.94,7.04,9.2,1.14,4.74,2.74,20.77.36,24.82-1.83,3.11-4.1,1.21-6.85.68,2.74-4.18.78-5.68.5-9.42-.31-4.09,2.19-8.76-3.49-11.53-2.31,2.97,1.56,9.43.75,11.35-1.76,4.2-5.85,2.9-9.15,3.74-9.75,2.48-20.13,3.63-30.03,4.4-8.7.67-17.2-.23-25.8.77-4.77.55-14.96,4.22-19.26,4.22-.9,0-4.62-1.81-6.44-2.06-5.91-.79-9.79,1.25-14.76-3.65-2.37-10.17-1.88-21.22-.81-31.76,3.41-7.15,23.72-.32,28.26-7.43-4.51-10.32-2.76-22.71-3.76-33.98-1.64-18.51-3.11-52.61-7.75-69.15-2.79-9.94-4.93-4.38-10.94-6.95-4.31-1.84-6.63-8.77-14.18-5.36-3.76-8.08-2.34-17.64-2.5-26.2-.07-3.95-2.29-8.8-.08-12.61,1.67-2.87,4.79-1.68,7.5-2.5,17.38-5.24,33.66-5.7,51.34-8.63,9.94-1.65,19.75-4.76,29.86-5.74,2.74.73,7.49,11.87,8.1,14.77.79,3.76-.79,9.16.05,14.08.36,2.11,2.2,4.22,2.21,5.45,0,.38-1.8,6.93-1.96,7.27Z"/>
      <path d="M725.85,181.61c2.98,2.1,6.77-2.61,7.38-2.66,1.05-.09,4.38,3.28,7.07,3.71,5.26.85,12.31-.32,17.93.06,18.9,1.28,37.75,3.98,56.58,4.51,6.68,2.88,2.07,12.02,6,17.4l6.9-1.97c.35,3.9,3.24,9.65,2.82,13.45-.25,2.23-1.56,4.09-1.73,6.1-.52,6.05-.33,12.31-1.09,18.33-3.28,1.66-5.95-.79-8.56-.88-2.76-.09-5.23,1.4-8.86.89-3.11-.43-7.84-2.95-11.55-2.96l10.58-1.79c1.66-.42,1-2.62,3.21-1.5.51-4.19,4.93,4.47,8.68-.71,3.18-4.4,1.76-8.74,2.05-13.11.09-1.28,1.34-2.79,1.41-4.42.08-1.84-1.76-9-3.45-9.41-6.55-1.58.44,22.87-7.96,22.94-1.48.01-2.94-1.54-4.52-1.61-13.64-.55-27.67-.42-41.46-1.39-24.42-1.73-53.6-2.94-79.3-7.77-4.14-.78-11.34,1.77-11.71-5.66,1.99-33.6,4.67-67.17,7.63-100.74,2.26-25.6,4.76-51.61,7.78-77.18.3-2.54-1.49-10.09,1.71-11.18,2.24-.76,18.34-.39,21.91-.17,3.08.19,16.3,1.77,18.03,2.96.89.61,1.97,2.68,2.21,3.78,2.07,9.65.09,23.09-.45,32.75-1.86,33.06-6.17,66.56-8.31,99.87-.2,3.12-2.69,17.06-.91,18.31Z"/>
      <path d="M2575.93,65.62c-3.27,5.02-9.84,1.27-13.37.68-4.74-.79-13.93.3-19.45,0-3.31-.18-21.7-2.6-22.91-1.79-4.81,3.24-1.57,7.8-1.51,11.23.67,36.89,2.82,73.45,3.6,110.43.17,7.82,3.35,36.52-1.53,41.51-2.84,2.9-6.88-.36-9.82-.73-3.95-.5-8.42,1.9-12.17,1.75-2.41-.09-4.36-1.63-6.29-1.77-9.67-.74-11.7,3.6-12.66-9.76-2.51-34.97-.39-70.7-1.53-105.87-.43-13.28-.14-27.38-4.78-38.58-.17-.42.54-6.83-1.27-8.8-5.35,3.37-12.95,2.65-19.39,2.84-2.88.08-6.07-2.38-7.06.99-3.69-1.08-18.34-1.25-20.13-2.72-2.91-2.39-1.32-26.31-1.35-31.59-.02-3.9-3.3-9.73,3.39-10.5,45.36.14,90.71-.01,136.06.11,3.4,0,6.52-2.07,9.41.49,1.63,1.45,3.41,12.2,3.66,15.15.22,2.51-.77,5.03-.61,7.77.34,5.72,3.13,13.9-.31,19.19Z"/>
      <path d="M1217.31,83.68c-.61,1.37-5.95,5.14-7.9,5.5-4.41.82-17.03-3.96-19.3.68-1.03,2.1-1.25,17.86-1.75,22.18-2.27,19.66-3.71,38.1-5.35,57.82-.46,5.49-5.03,26.45-2.15,29.6l1.65.77c5.45-3.47,7.32.82,10.82,1.26,2.74.34,4.75-2.1,7.86.12s1.1,7.29,1.74,10.79c.51,2.76,2.83,4.48,2.19,8.15-.33,1.93-1.77,3.31-2.02,5.06-.41,2.87.29,9.77-.86,11.77-.36.62-5.27,4.72-6.11,4.8-1.39.13-3.45-1.06-5.18-1.14-20.77-.94-42.53.85-62.78.04-3.97-.16-18.05-1.23-20.36-3.59-.23-.23-1.2-5.99-1.2-6.32-.04-3.99,1.51-16.39,2.13-20.91,2.18-16.11,15.52-6.88,24.29-7.86,6.46-.73,4.13-11.2,4.62-16.18,2.22-22.55,6.17-46.99,7.9-69.07.4-5.09-.77-12.07-.41-16.83.2-2.69,2.49-5.76,2.12-8.45-.57-4.21-3.87-6.45-6.75-2.53-1.41,1.92,1.29,3.32-1.77,3.96l.45,4.6-3.54.96c.05-3.85,2.09-7.15-.15-10.83l-8.39.45c-2.46-.38-2.8-4.96-2.89-7.09-.17-3.81.61-11.46,1.04-15.6.5-4.78.79-9.59,2.31-14.2,5.3-4.04,11.35-1.41,16.55-1.59,10.23-.36,18.93-.13,28.99-.02,14.28.16,28.58-.35,42.86.12,3.51,1.18,3.25,14.97,2.62,18.26-.44,2.3-2.86,3.72-2.87,6.01-.01,1.87,2.58,7.15,1.62,9.31Z"/>
      <path d="M1450.34,203.9c-.03,4.39,1.81,10.23,1.68,14.28-.07,2.31-1.32,4.58-1.48,6.99-.4,5.96,1.45,10.49-2.55,16.38-3.15,4.63-5.18,1.54-8.75,1.38-7.65-.32-15.59,1.82-23.25-.2l-.92,1.88c-.52-.55-1.21-1.51-1.95-1.56-24.22-1.43-48.81.54-73.04.02-6.9-.15-8.91-.47-15.48-2.06-2.79-.67-5.93,1.39-8.06-1.13-1.93-2.11-1.22-11.37-.93-14.72,1.66-18.98,5.76-37.99,7.97-56.93,4.21-36.17,6.84-72.57,12.12-108.7,1.62-11.09,4.26-6.23,11.33-6.56,3.56-.17,8.6-1.83,12.16-1.93,4.23-.12,10.13,1.87,14.89.9l2.02.97c2.3,3.08,1.15,6.92,1.55,10.43.96,8.58.2,4.27-1.02,11.12-1.81,10.13-1.41,24.27-2.62,34.91-3.01,26.39-7.06,52.79-9.96,79.05-.29,2.66-.84,11.07.47,12.86l85.84,2.64Z"/>
      <path d="M2878.14,40.96c1.13,1.51-11.61,7.1-12.92,7.1.05,3.23,2.45,4.52,4.81,6.32-.89,1.94-2.25,9.06-1.86,10.89.16.73,1.59.6,1.71,1.14.79,3.55,1.49,6.18-.92,9.28l-3.33-.67-.91,1.77c-3.69-2.2-7.24.61-11.06.67-3.04.05-13.51-3.62-14.49,1.18-.56,2.73,1.42,5.65,1.49,7.67,1.64,47.73,1.47,95.98,4.1,143.84l-4.7,6.41c-4.54-3.05-10.1-.22-14.33-.94-2-.34-3.21-2.22-5.3-2.74-4.16-1.06-13.32,1.53-15.79-4.69-.53-1.34-1.37-13.28-1.51-15.98-2.26-42.79-2-86.16-3.1-128.83-.42-16.17-1.06-32.53-1.68-48.7l1.83-2.25c21.77,2.23,44.56,2.46,66.34,5.66,4,.59,7.87,1.36,11.62,2.88Z"/>
      <path d="M3427.75,283.32l-38.61,5.37c-.44.71-.33,5.9-.1,7.17.12.67,1.42.71,1.54.95.26.51-.26,1.46,0,1.73,4.01,4.11,24.6-1.38,30.82-1.98,9.93,1.63,10.36,14.46,1.65,18.51l-29.9,2.59c-.72,8.49-1.1,17.73,9.95,12.31l31.18-2.27c7.13,1.58,9.61,16.88.16,17.71-15.68,1.11-33.47.8-48.71,4.11-.84.18-.72,1.82-1.16,1.81-4.23-.12-7.76-1.98-8.51-6.41-1.68-9.89-1.26-21.29-2.58-31.4-1.31-10.04-5.46-23.92-5.44-33.44,0-3.31-.72-6.69,3.49-7.46l37.83-3.15c6.32-.05,12.41-5.77,17.54-.29,3.16,3.37,2.7,10.1.84,14.16Z"/>
      <path d="M2248.32,520.67c-.73,4.99-4.39,4.37-8.5,4.56-4.48.2-8.87.12-10.32-4.79-.72-2.43.83-5.11.88-7.71.39-20.79-.86-41.87.41-62.49.53-.73,10.6-2.08,12.07-1.96,6.1.51,6.57,6.79,9.66,11.31,3.63,5.28,8.08,10.1,11.21,15.76,2.46,4.44,2.18,10.59,8.1,12.86,3.25-.16.44-12.03.42-14.44-.06-6.9.48-13.35.32-20.75s14.32-6.13,16.81-3.01c3.74,4.68.91,9.93.99,14.7.25,15.18,1.59,30.63,1,46.02-.07,1.85-.69,11.89-1.65,12.55-17.25,6.36-19.48-7.05-26.56-18.4-1.56-2.5-4.08-4.83-5.64-7.34-2.12-3.4-5.4-15.36-9.18-10.8-1.1,10.49,1.48,23.84,0,33.94Z"/>
      <path d="M1582.25,475.98c1-1.03,2.28-5.17,3.45-7.02,2.17-3.44,11.44-19.45,13.23-20.72,1.65-1.18,13.57-2.44,14.41-1.73,5.13,4.31-.99,20.95-1.83,27.26-1.32,9.93-1.44,20.83-2.05,30.9-.53,8.79,4.07,17.59-8.48,17.58-2.16,0-6.94-.28-7.81-2.27-.86-5.04-1.09-11.17-.65-16.25.48-5.57,7.22-21.14-1.91-19.37-1.6,4.74-6.92,17.65-12.57,17.75-9.77.17-7.59-14.28-14.02-18.84-4.44,2.87-1.24,8.42-1.47,12.42-.17,3.1-2.21,21.05-3.22,22.81-1.91,3.31-12.33,3.26-14.77,1.15s-2.18-5.96-2.02-8.92c.7-13.43,4.08-26.9,5.92-40,.62-4.41.43-21.52,2.54-23.44,1.97-1.78,12.99-1.48,14.53-.38,1.33.95,7.92,15.78,9.18,18.68,1.64,3.78,1.3,8.99,5.29,11.42.73-.25,1.74-.48,2.26-1.02Z"/>
      <path d="M2830.8,449.64c3.73,4.4,13.77,29.59,18.84,29.64,4.82-1.09,3.28-6.68,4.7-10.23.75-1.87,3.19-6.52,4.3-8.77,2.8-5.65,4.37-11.75,10.97-11.98,18.23-.62,11.97,15.3,12.48,27.49.34,7.99,3.32,27.74,1.57,34.44-.62,2.35-3.17,5.1-3.69,7.78-7.15,1.67-12.31-2.37-16.83-7.33-.33-.8,1.48-.07,1.94-1.23.76-1.9,3.05-19.07,3.1-21.79s-1.09-5.24-2.56-7.46l-4.43,2.76c.73,6.65-3.66,12.97-2.04,19.22l-11.98,1.53c-4.26-1.75-9.95-15.69-12.53-15.48-5.98,4.53,9.43,16.93,8.05,19.96-5.94,7.44-10.64,8.18-18.94,3.87s-4.23-11.31-5.81-18.16c-.56-2.42-2.68-3.46-3.52-5.47-.47-1.13-4.99-17.73-4.93-18.7.05-.83,2.21-2.68,2.61-5.05.95-5.65-2.1-12.57.63-17.37,1.8-3.15,4.92-.59,8.03-.15,3.88.55,6.65-.81,10.04,2.44Z"/>
      <path d="M3023.44,512.85c-1.65-2.01-3.52-7.61-5.35-10.13-4.19-5.74-9.55-11.28-13.82-17.15-1.56-2.15-7.11-14.37-8.2-4.88-.64,5.55.58,15.03,1.05,21,.39,5.05,3.49,10.33.46,15.45-2.41,4.07-15.91,3.07-17.93-1.98-.13-11.4-.01-22.85-.63-34.24-.53-9.83-3.33-22.69-3-32.14.25-7.14,6.9-5.97,12.63-5.52,9.16.73,7.34,4.77,11.83,11.15,2.51,3.56,5.65,6.65,8.05,9.94s6.46,11.41,8.54,13.43c8.47,8.25,4.67-14.35,4.6-17.01s.43-5.94.43-8.98c0-3.68-2.3-6.67.94-10.81,1.6-1.9,12.13-1.44,14.13.76,3.53,3.87.73,10.42.91,14.98.48,11.94,1.94,31.27,4,42.95,1.07,6.02,6.05,8.75,1.03,14.05-4.01,4.23-15.83,3.8-19.67-.86Z"/>
      <path d="M3103.85,380.19c-3.13,2.26-16.3,2.88-17.21-3.66-.77-5.51-.09-14.47-.62-20.63-1.25-14.53-3.43-29.35-3.98-43.94-.07-1.74.41-3.31.98-4.91,12.77-3.29,15.1-2.53,22.49,7.52,4.14,5.63,8.32,10.98,12.39,16.58,2.3,3.17,4.4,11.49,9.56,10.38,3.96-.85-.59-12.06-.86-14.12-.7-5.33-1.73-13.55-1.95-18.74-.08-1.91.12-6.38,2.05-7.02,4.91.98,11.61-3.31,14.85.89,2.42,3.14,2.04,20.2,2.56,25.49,1.48,15.11,3.46,30.27,4.35,45.38-3.19,5.62-13.48,4.47-18.35,1.46-4.23-2.61-3.76-7.4-6.61-11.38-2.33-3.26-6.12-6.49-8.84-10.14-2.05-2.75-6.79-14.14-11.06-12.88-1.81,1.08-1.49,2.77-1.61,4.49-.55,8.08,2.92,21.87,3.08,30.96.02,1.04-.5,3.74-1.23,4.27Z"/>
      <path d="M2814.92,317.75c1,5.67,5.78,10.74,8,15.46,1.18,2.51,3.98,13.84,5.76,14.25,13.31-8.38,8.97-37.95,31.3-26.78l5.17,68.19c-.67,6.52-13.44,5.12-15.48.51-.62-1.41-2.28-14.99-2.5-17.48-.33-3.77,1.52-17.58-2.53-18.45-3.68-.79-5.51,16.16-10.51,18.45-2.87,1.32-8.11-.57-10.01-2.94-1.74-2.17-5.44-19.57-9.94-16.51l-1.03,4.47,2.37,30.52c-1.27,5.76-14.82,4.9-17.27,1.36l.12-71.61,1.24-1.8c1.69-1.52,12.74,1.57,15.31,2.35Z"/>
      <path d="M2936.81,326.79c2.12,2.59,5.27,12,4.84,15.2-.39,2.93-6.84,6.83-6.32,9.78,5,7.09,10.76,9.68,10.21,19.79-.05.89-1.52,8.24-1.73,8.62s-1.7.61-2.1,1.25c-.85,1.37-2.52,4.82-3.83,5.56-.81.46-10.33,3.91-11.48,4.15-8.51,1.75-18.45.1-26.81.2-4.19.05-13.85,2.62-17.46.55l-3.49-70.41c3.81-3.95,7.91-.48,12.13-.14,12.49.99,28.84-4.68,40.61,1.4.76.39,5.04,3.56,5.44,4.05ZM2924.77,363.77c-4.41-4.72-11.93,1.19-14.15-3.34-.79-1.61-.95-11.79-.06-13.04,4.27-3.11,12.21,1.47,13.54-5.47,1.28-6.65-2.73-8.06-8.44-8.49-1.67-.13-16.24.12-17.03.45-6.89,2.88-1.89,12.84-1.53,18.08.39,5.54-1.29,21.97,2.32,25.18,3.12,2.77,38.07.26,25.33-13.37Z"/>
      <path d="M1976.16,466.03c-1.45,1.48-23.3,2.36-27.18,2.24-4.3-.13-11.81-3.61-10.6,5.42.58,4.28,11.61,4.55,15.47,4.6,10.6.13,20.3-5.16,19.64,11.45-.4,10.09-12.61,5.8-19.08,5.87-2.33.03-5.73,2.17-8.52,1.36-.3-.09-1.92-3.68-5.35-1.61-1.28,2.98-2.14,9.96-.24,12.42,2.26,2.79,4.98.46,7.6.41,8.01-.15,16.03.09,24.04.06,1.42,0,3.96-1,4.29-.88.27.1,3.64,4.03,3.72,4.3.2.75-.42,11.8-.73,12.33-4.6,3.24-8.39,1.11-13.27,1.13-12.09.06-24.31-.39-36.05.02-2.42.09-4.93.23-7.32-.16-.58-1.51-1.65-3.24-1.79-4.83-1.44-16.53,1.07-38.87.66-56.45-.09-3.92-2.57-8.23-.11-12.01,2.73-3.88,11.6-.72,15.65-.6,12.2.35,24.47-.38,36.7-.61,5.4,1.55,4.58,11.48,2.47,15.53Z"/>
      <path d="M1847.67,450.52c2.84-2.81,8.9-.23,12.23-.18,12.75.19,24.71-1.42,36.45,5.51,2.87,1.69,9.67,10.58,10.12,13.86,1.1,8.1.86,34.72-2.48,41.54-7.81,15.95-27.49,13.12-42.11,12.89-4.88-.07-10.33,2.71-14.35-1.55l.15-72.07ZM1865.42,467.76v36.94c0,.27,1.19,3.44,1.62,3.55l11.67.76c4.5-2.88,9.2-4.48,9.76-10.24.65-6.6.99-25.96-3.58-30.49-2.8-2.77-7.58-1.1-10.88-1.11-2.86-.01-6.46-2.31-8.59.59Z"/>
      <path d="M2097.05,326.8c.28.2,4.37,4.57,4.62,4.96,1.6,2.46,3.37,9.19,3.67,12.22,1.05,10.49,1.31,31.47-4.96,39.95-9.71,13.14-26.63,10.15-40.56,10.42-6.39.12-14.16,4.8-15.14-5.3-1.22-12.6.98-30.66.75-44.12-.11-6.62-1.26-13.87-1.53-20.3-.04-1.05.06-2.06.6-2.98,4.02-.16,8.37-1.09,12.34-1.19,9.44-.25,25.78.36,34.49,3.58,1.62.6,4.36,1.82,5.72,2.78ZM2083.08,376.12c6.14-5.13,6.25-34.23-.32-38.54-4.46-2.92-13.02-1.57-18.25-1.96l-1.97,39.06c1.61,5.64,17.41,4.06,20.55,1.44Z"/>
      <path d="M1797.1,516.84c-10.85,12.46-37.94,12.84-48.47-.34-10.87-13.58-6.29-24.01-6.13-39.81.07-7.18-2.12-7.09,2.15-14.73,12.29-21.99,48.51-18.36,57.52,5.06,2.05,5.32,2.17,37.15-.01,42.39-.48,1.15-4.1,6.31-5.06,7.42ZM1782.2,467.5c-3.7-3.99-18.83-4-21.07.99-2.94,6.55-.83,16.26-.59,23.21.1,2.76-1.18,5.09-.9,7.73,1.2,11.24,19.47,14.21,24.3,1.74,2.18-5.64,1.96-29.68-1.74-33.67Z"/>
      <path d="M2137.57,335.69c-1.28,3.63-2.28,8.13.77,11.28l28.45-1.54c5.17.67,5.57,11.81,4.39,15.34-2.18,6.51-27.58-.57-32.21,2.71-3.5,2.49-2.63,10.2-.7,13.25,2.11,3.34,17.49.39,20.92.24,4.6-.2,9.52.17,14.18-.14,6.77,2.06,3.37,11.94,2.04,17.11l-51.54.94c-8.17-1.83-4.47-12.53-4.44-17.96.11-15.74-.03-31.52,0-46.94,0-3.09-1.87-6.15-.94-9.35l51.29-2.15c7.49,3.03,8.12,14.12.68,17.47l-32.9-.27Z"/>
      <path d="M2797.83,507.86c-2.66,2.25-14.2,9.69-17.42,11.04-2.72,1.15-6.96,2.62-9.83,1.46-2.32-.94-.87-2.11-2.08-3.23-4.56-4.23-13.19-5.6-16.28-8.49-.44-.41-7.55-8.56-7.87-9.08-3.89-6.26-2.1-16.33-2.57-23.68-.22-3.46-2.09-7.23-2-11.76.15-7.5,1.74-12.35,7.89-16.84,11.52-8.41,40.57-4.08,49.34,7.63,1.66,2.22,6.11,16.21,7.09,19.88,1.31,4.93,2.16,20.25.85,24.69-.16.53-6.45,7.79-7.13,8.36ZM2766.41,495.95c.63.31,13.14,1.25,14.02,1.11,2.63-.44,4.32-2.69,5.1-5.05,1.4-4.25-2.68-27.02-5.34-30.26-3.25-3.96-15.4-5.12-19.03-.99-5.55,6.32-1.51,8.93-.9,13.99.44,3.66-.81,6.72.37,11.53.58,2.38,3.71,8.67,5.78,9.67Z"/>
      <path d="M2413.57,466.96c-1.35-1.47-1.73-5.02-4.32-6.17-4.96-2.22-18.06-.59-15.59,7.5,1.62,5.28,16.42,6.85,21.6,8.43,2.42.74,9.66,2.82,11.08,3.94,7.17,5.63,7.7,15.65,6.9,24.03-1,10.47-13.9,17.31-23.56,18.4-15.27,1.73-34.43-5.43-36.22-22.68-.82-7.95,10.71-6.41,15.86-4.75,5.7,1.83,4.02,9.73,10.39,10.59,4.07.55,13.92,1.01,15.34-3.76,3.04-10.19-10.86-9.15-16.61-10.95-3.96-1.24-14.47-5.26-17.18-7.81-7.62-7.18-8.07-17.52-3.73-26.68,8.03-16.95,42.23-16.95,51.74-1.3,8.71,14.34-8.68,18.84-15.72,11.21Z"/>
      <path d="M775.55,428.5c1.85,5.93,4.38,11.87,6.91,17.53.67,1.51,3.12,3.62,4.29,6.74,1.1,2.93,1.96,12.56,5.48,12.55,5.02,0,3.08-11.5,3.49-14.54.36-2.63,1.59-4.71,1.9-7.09.27-2.09.4-11.85.64-12.42,1.34-3.25,13.28-2.21,16.32-.8.88,7.91-1.99,15.58-2.84,23.34-.32,2.94.32,6.03-.03,8.96-.75,6.33-3.63,32.09-6.09,35.85-2.03,3.1-13.37,3.36-14.7,2.34-1.1-.84-9.84-20.65-11.37-24.02-1.74-3.82-2.96-8.97-4.61-12.37-1.95-4.03-5.56-5.26-6.13.3-.3,2.99.57,5.59.25,8.25-.46,3.85-2.98,20.28-4.45,22.51-2.78,4.24-15.85,2.58-16.76-.02l10.95-68.18,16.74,1.1Z"/>
      <path d="M1423.55,480.24c-.28,4.39.4,9.07-.06,13.42-.19,1.83-1.68,3.27-1.89,5.1-.62,5.35,1.15,18.16-5.03,19.95-.53.15-9.49.24-10.06.09-6.98-1.88-.66-14.28-.02-19.14,1.67-12.77,2.21-26.01,3.64-38.53.39-3.4,1.29-13.11,3.84-14.91,3.45-1.54,11.23-1.87,14.02,1.12,3.16,8.3,8.5,15.97,12.03,23.92,1.2,2.69,3.27,17.03,7.94,9.89,2.86-4.37,1.03-12.13,1.65-17.32.46-3.79,1.36-9,1.98-12.99.95-6.13,11.06-5.81,15.45-3.58.42,19.94-3.23,39.88-6.38,59.54-.68,4.22,1.18,8.74-3.15,11.83-4.37,3.13-10.22,1.45-14-1.95-3.33-6.94-6.9-13.85-10.15-20.82-.87-1.86-6.14-19.39-9.82-15.64Z"/>
      <path d="M331.62,342.23c-2.89,2.89-13.37.99-16.47-2.05l-13.52-32.93c-1.67-2.74-4.4-5.04-4.77-.25-.33,4.28.38,8.71-.02,12.98-.65,6.97-3.79,14.24-4.04,21.42-6.68-.88-17.63,1.97-16.88-7.29,1.06-12.95,5-26.09,7.28-38.81,1.49-8.3.04-18.08,5.58-25.22l14.58,1.47c2.99,9.23,7.68,17.72,11.24,26.71.97,2.46,2.15,10.68,4.75,11.24,3.57.76,3.35-10.19,3.74-12.22.69-3.62,3.9-21.14,5.23-22.73,1.87-2.23,17.34-1.25,15.47,5.41-3,16.74-6.38,33.45-9.84,50.14-.63,3.03.15,9.62-2.36,12.12Z"/>
      <path d="M3065.78,310.82c1.96,2.75,2.17,12.58-1.71,14.16l-34.3,1.46c-3.59,3.89-3.65,11.13,1.88,13.06l28.49-3.38c2.44.94,4.28,3.55,4.71,6.09,2.37,14.13-7.89,9.83-17.18,10.43-3.93.25-13.7.36-16.35,1.48-3.16,1.32-2.92,12.16-.99,14.08s18.38.36,22.2.11c4.24-.29,16.38-3.76,18.63-.2,1.4,2.22,1.43,10.38,0,12.64-2.65,4.2-9.37,1.51-12.58,1.67-12.86.62-26.14,2.92-38.98,3.08-10.76.13-6.26-6.8-6.46-12.52-.45-12.78-1.25-26.11-2.05-38.97-.22-3.47-3.5-19.67-.85-21.33,8.26,1.01,16.14-.53,24.3-1.1,4.63-.32,9.4.03,14.01-.33,4.34-.34,14.48-4.27,17.22-.41Z"/>
      <path d="M2672.91,310.81c3.59,2.89,8.97,12.68,10.16,17.33,1.48,5.76,2.21,21.55,2.2,27.8,0,2.62-1.68,13.08-2.77,15.21s-12.94,9.52-15.75,10.3c-5.2,1.45-8.96.56-13.96,1.03-1.64.16-5.25,2.01-5.48,1.84-.21-.16-.36-1.93-1.69-2.82-2.05-1.38-5.65-1.68-8.1-2.92-5.17-2.62-11.33-9.51-12.85-15.12-.83-3.07-2.11-35.38-1.56-37.48.5-1.91,7.73-12.77,9.14-13.92,3.58-2.92,17.56-7,22.35-6.47,2.19.25,17.13,4.27,18.3,5.22ZM2664.88,363.12c3.67-4.05,3.25-31.57-.22-36.59-2.7-3.91-15.71-5.02-19.88-1.95-5.79,4.26-2.37,30.66-.92,37.63,5.07,6.01,15.68,6.8,21.02.92Z"/>
      <path d="M1905.1,335.77c-2.89-3.26-15.39-4.52-17.96.94-4.35,9.25,10.64,9.73,15.82,11.69,12.24,4.64,25.36,10.22,24.44,25.48-.51,8.37-2.47,12.96-9.69,17.3-15.13,9.09-42.78,6.45-50.47-11.1-3.21-7.32-2.84-10.58,4.96-12.38,16.59-3.84,10.26,10.34,21.69,11.72,5.49.66,15.54.51,14.34-7.29-1.03-6.75-14.03-6.55-19.52-8.49-5.98-2.12-16.51-8.24-18.59-14.38-10.39-30.61,40.09-39.45,53.13-19.11,6.38,9.95.38,14.96-10.28,13.26-5.74-.92-5.38-4.84-7.86-7.63Z"/>
      <path d="M2311.61,515.87c-.75-.84-4.93-7.94-5.37-9.12-1.68-4.51-1.92-35.62-.44-40.49,5.2-17.03,26.02-24.02,41.98-18.42,20.42,7.16,18.51,25.44,18.08,43.88-.3,12.62-2.33,22.66-14.58,28.95-11.2,5.75-30.9,5.05-39.67-4.8ZM2335.04,461.51c-4.34.24-10.09,3.81-12.59,7.44,1.75,7.85-4.07,37.05,7.37,39.21,25.37,4.78,16.82-24.17,18.31-39.16-2.8-4.38-7.68-7.79-13.08-7.49Z"/>
      <path d="M534.07,324.22c.59.58,3.2,1.63,3.72,1.27,1.36-6.77,2.72-29.69,6.94-34.5,1.72-1.96,11.03-.76,11.86-.17.22.16,2.9,4.13,2.99,4.44,1.11,3.77-3.59,20.73-4.52,26-1.83,10.34-2.96,24.92-5.5,34.44-1.44,5.39-11.93,5.81-15.78,2.25-7.68-11.66-11.48-25.72-18.48-37.46-3.55,3.43-1.88,7.46-2.61,11.36-1.51,8.01-3.76,15.88-5.01,23.95-2.11,4-4.21,1.23-7.55,1.04-9.3-.54-9.68.02-8.04-10.63.97-6.32,3.36-13.38,4.45-19.51,2.25-12.66,3.62-25.95,6.65-38.2,2.85-1.89,12.24-.46,14.71,1.46s9.41,17.03,11.11,20.86c1.44,3.24,2.64,11,5.07,13.4Z"/>
      <path d="M2550.52,486.53c-5.12,6.62,14.77,18.81,14.34,26.2-.46,3.79-14.29,2.94-17.1,2.43-4.45-.8-4.63-6.22-6.68-9.3s-7.85-8.82-9.09-11.89c-.96-2.38-2.61-17.15-1.74-18.72,6.8.22,17.14-2.11,14.76-11.22-2.45-9.38-15.29-6.16-22.64-7.62-2.37,4.83-.17,10.43-.04,15.36.28,10.2-.39,20.59-.07,30.92.29,9.27,5.35,15.12-9.65,15.39-8.15.15-5.28-7.95-5.32-12.34-.12-16.31-.71-32.66-2.06-48.95-.42-5.11-2.8-10.32-.87-15.37,7.93,1.25,14.84-.3,22.45-.52,10.09-.3,22.91-2.02,30.44,6.87,2.86,3.37,5.63,14.89,5.31,19.34s-2.65,10.94-5.49,14.47c-2.17,2.7-5.56,3.67-6.55,4.95Z"/>
      <path d="M2609.82,343.08c-.42.74-3.9,5.24-4.57,5.9-2.63,2.61-7.63,3.07-7.05,7.92.12,1.01,6.36,9.68,7.6,11.43,2.67,3.77,8.12,6.67,7.27,12.34-.61,1.42-1.64,2.55-3.29,2.63-1.34.06-11.39-1.05-12.52-1.46-5-1.81-6.54-8.08-9.09-11.67-3.88-5.46-8.87-9.09-9.38-16.59-.13-1.86.7-12.61,1.43-13.12,7.62,5.99,18.99-5.11,12.48-11.98-6.37-6.73-14.04-2.25-22.4-3.91-.08,9.37-.49,19-.12,28.41.22,5.75,3.92,26.44.8,30.15-1.86,2.21-10.41-.42-13.54.04-4.23-4.54-1.21-9.8-1.41-14.26-.75-16.87-3.28-34.05-3.86-50.9-.13-3.85.09-8.17,4.52-9.05,7.9.69,16.16.89,24.09.58,2.38-.09,3.59-1.97,6.91-1.49,15.55,2.24,25.61,12.78,24.59,28.89-.16,2.48-1.31,4.11-2.46,6.13Z"/>
      <path d="M3295.42,354.13c.17.35,1.5.18,1.47.75-.03.62-1.05,4.35-1.48,4.67-5.3,1.3-14.02,2.09-18.45-1.55-2.69-2.21-4.3-8.84-6.62-9.4-8.71,2.75-17.67,1.33-26.09,5.07l-3.9,12.84c-4.37,1.54-18.01,2.71-17.35-4.49,4.88-8.55,6.48-17.91,8.87-27.19,2.64-10.26,6.19-21.68,8.52-31.39.64-2.66,1.42-14.71,2.56-15.45,5.63.49,14.21-5.04,18.52-.38,6.56,10.97,10.7,23.2,16.37,34.57,4.33,8.69,9.36,17.72,14.44,25.51,1.32,2.02,2.1,4.29,3.13,6.45ZM3250.27,333.23c2.61,2.51,11.58,1.79,13.31-2.22.7-1.62-4.41-13.07-5.71-14.85-1.67-2.3-2.71-3.15-5.8-2.6.06,3.69-3.82,17.75-1.81,19.68Z"/>
      <path d="M3215.61,428.78c3.92,2.9,6.03,12.6,8.25,17.19,6.53,13.49,12.76,27.21,19.3,40.63,2.4,4.93,7.35,8.83,7.36,14.65-1.4,3.22-13.06,2.18-16.05,1.02-5.52-2.14-3.16-6.75-6.9-10.09-5.37-4.79-11.69-.89-17.55-.4-2.49.21-5.47-.9-8.48-.6-9.04.91-4.19,10.68-9.1,13.91-1.7,1.12-4.04.35-4.83,2.96l-10.55-1.38-1.49-1.43c4.88-17.2,10.67-34.1,15.56-51.39.55-1.94,1.93-3.5,2.48-5.51,1.24-4.51,1.67-18.74,5.89-20.58.71-.31,11.9-1.08,13.07-.96s2.13,1.3,3.04,1.97ZM3211.78,454.56c-.6-.71-2.15-1.09-3.12-1.16-3.29.78-3.18,10.48-3.87,13.12s-5.72,6.59-1.11,9.6l14.36.13-.72-1.77c4.65-1.54-1.32-8.3-2.67-11.31-.9-2.01-1.91-7.45-2.87-8.59Z"/>
      <path d="M2003.84,389.04c.24.67,3.18,3.19.61,5.89-1.19.8-10.52.7-12.5.39-8.16-1.27-5.87-11.41-10.25-12.73-2.78-.83-26.01-.51-27.1,1.02-.75,3.13-1.13,10.45-4.89,11.57-.62.19-11.69.38-12.74.21-3.29-.51-4.48-3.51-3.65-6.5,2.08-7.41,7.82-17.39,10.83-25.22,3.65-9.5,6.6-19.34,10.2-28.75.96-2.51,4.6-13.07,6.04-13.94,5.17-.49,15.11-2.25,18.44,2.57,4.28,6.2,9.83,26.49,13.08,34.86,3.99,10.26,8.16,20.22,11.93,30.62ZM1962.49,365.33c3.18-.88,11.54,3.09,12.77-.56.55-3.22-4.23-18.31-6.38-19.31-1.83-.4-2.95,3.59-3.26,4.72-.47,1.76.06,3.77-.47,5.52-.88,2.87-4.9,5.74-2.66,9.64Z"/>
      <path d="M1860.42,322.54c.05,5.17-.67,9.12-3.16,13.76-6.92-.5-13.55.13-20.36.23-4.26.06-12.18-3.07-13.46,3.46-2.03,10.36,5.65,6.3,10.49,6.37,2.39.03,4.55,1.17,6.95,1.12,3.89-.07,7.16-3.3,11.08-.07,4.7,3.87,3.09,16.35-4.12,17-2.27.21-4.49-1.02-6.86-1.03-5.98-.03-11.92.43-17.91.18l-1.46,1.53c.19,3.47-2.34,7.64-.09,10.74,2.38,3.52,6.52.5,9.47.54,2.22.03,4.12,1.05,6,1.06,10.63.04,24.22-5.66,21.2,11.22-1.62,9.07-7.39,4.77-13.21,4.69-11.31-.16-25.26,1.32-36.06.54-1.48-.11-2.81-.55-4.02-1.43-2.8-2.51-1.64-10.71-1.44-14.53.56-10.9,1.81-23.94,3.11-34.82.6-5.03,1.56-19.13,5.89-21.08l47.96.53Z"/>
      <path d="M1165.27,500.88c-1.32,2.25-14.09,11.67-16.38,12.03-9.18,1.43-18.46-.21-27.6-.36-3.27-.06-6.99,3.12-9.56-.97-2.19-3.49,1.14-12.4,1.77-16.99,1.97-14.46,2.65-32.69,5.39-46.53,2.02-10.22,4.94-6.22,11.38-6.1,10.59.2,23.64-1.87,32.67,4.51,10.16,7.17,9.32,15.02,8.67,26.28-.46,7.88-2.35,21.33-6.34,28.14ZM1150.2,492.8c4.57-8.06,3.49-19.35,4.94-28.55-1.51-6.65-18.34-11.13-20.3-4.28l-5.04,35.52c2.19,4.76,6.55,1.84,10.34,1.63,5.64-.3,5.91,3,10.06-4.33Z"/>
      <path d="M736.41,430.65c1.57,1.6,4.74,7.84,5.38,10.1,2.25,7.89-.22,8.83-1.57,15.51-1.63,8.15-2.02,19.03-6.07,25.88-7.75,13.11-30.49,18.68-43.35,10.53-4.19-2.65-12.67-10.99-13-16.05-.49-7.6,5.57-34.58,9.51-41.26,6.24-10.59,24.67-15.14,36.11-12.18,2.89.75,10.97,5.41,13,7.48ZM698.03,476.96c2.97,2.94,11.18,3.79,15.06,2.11,10.38-4.49,7.71-15.4,9.22-24.26.91-5.37,4.79-5.55.26-12.84-3.77-6.06-9.79-5.58-16.05-3.39-8.49,2.96-6.84,13.37-7.89,20.07-.84,5.36-4.72,14.23-.6,18.32Z"/>
      <path d="M1010.52,437.45c1.75,3.54,2.19,13.41-1.86,15.34-2.42,1.15-18.55.67-22.54.54-8.54-.28-12.56-3.75-11.55,9.27,2.03,3.22,24.76-.73,28.42,1.59,4.47,2.84,1.17,11.56-1.6,14.78-2.66,1.75-13.62-.32-17.24-.49-1.1-.05-2.33.58-3.7.5-1.86-.11-4.88-1.57-6.32-1.35-4.16.64-5.23,14.58-.84,15.36,1.07.19,3.92-.81,5.84-.82,4.97-.03,9.78.64,14.47.72,3.74.06,8.06-2.84,11.05.86,3.09,3.82.64,15.4-5.43,15.51-1.6.03-3.36-1.01-5.06-1.05-7.41-.16-14.66-.76-21.94-1.04-10.53-.41-22.95,5.19-21.42-9.34,1.55-14.71,5.41-30.34,8-44.91.98-5.5,2.92-10.79,3.03-16.44,1.68-2.74,28.9,1.03,33.71,1.27,3.02.15,13.27-1.35,14.99-.28Z"/>
      <path d="M2955.78,515.85c-2.11,2.04-12.35,6.27-15.45,7.03-13.36,3.27-26.47.87-35.2-10.2-2.93-3.71-3.05-6.82-3.4-11.35-.57-7.36-.21-16.04-.65-23.64-.26-4.52-3.84-27.42-.82-29.28,5.29.41,13.59-3.19,16.11,3.13l2.2,46.63c3.99,13.85,24.52,14.09,26.45.44.92-6.48-.52-21.46-1.07-28.72-.27-3.6-.56-7.44-.94-11.03-.45-4.33-4.65-10.26,1.64-12.61,1.27-.47,10.91-.94,11.99-.5,2.84,1.14,3.45,3.61,3.88,6.38,2.41,15.28-.92,33.85,1.61,49.52-.28,3.7-3.75,11.67-6.36,14.19Z"/>
      <path d="M150.89,297.53c3.35-5.73.36-12.29.58-18.8.21-6.08,1.46-12.02,2.64-17.95,3.47-1.36,9.82-1,12.36,1.77,2.38,2.59,1.62,17.95,1.45,22.59-.23,6.37-1.71,13.51-2.05,19.85-.27,5.14,1.54,26.95-1.94,29-3.77,2.22-10.33-1.16-13.46-3.55l-17.06-35.89c-2.57-.58-2.53,4.97-2.52,6.45.05,4.49,1.12,8.39,1.08,13.06s-1.74,10.12-1.22,15.26c-5.62,3.74-14.96,2.18-15.84-5.31-1.31-11.19,1.31-28.17,2.01-39.88.23-3.77-.16-24.62,1.94-26.09,3.7-1.09,10.49.3,13.09,3.03,2.38,2.5,10.27,19.52,12.15,23.81.72,1.65,3.5,15.04,6.8,12.65Z"/>
      <path d="M2175.58,525.81c-4.52-2.59-5.24-13.07-9.79-13.65-2.8-.35-11.82,1.69-15.94,1.81-2.46.07-4.72-1.54-7.81-.59-4.45,1.36-1.78,10.5-9.63,12.36-3.31.78-11.82,1.67-13.34-1.83l27.21-74.09c4.3,1.91,11.01-1.53,14.38-.37,4.12,1.41,10.25,23.76,12.2,28.78,5.56,14.31,11.62,28.46,16.98,42.85-.53,7.56-8.95,4.01-14.27,4.74ZM2147.59,495.96c2.33,2.32,5.15.41,7.35.35,2.84-.08,5.72,2.67,6.97-2.07.84-3.21-5.21-11.76-5.06-16.01-7.28-9.1-5.6,2.54-6.72,7.29-.72,3.07-6.17,6.83-2.54,10.44Z"/>
      <path d="M1387.22,447.67c.84.46,8.71,9.5,9.12,10.33,1.12,2.3,1.84,8.25,1.69,10.78-.19,3.06-1.81,4.97-2.19,7.24-2.47,14.97-1.47,26.61-14.36,36.58-17.61,13.62-39.26,6.73-46.43-13.88,4.71-13.13,2.07-36.25,12.59-45.88,8.62-7.89,18.96-10.22,30.37-8.48,1.42.22,7.89,2.59,9.22,3.31ZM1354.84,499.95c4.31,4.48,17.11,3.89,19.98-1.99.75-1.53,3.33-12.97,3.67-15.31.44-2.97,1.25-11.07,1.17-13.9-.31-10.94-15.41-12.89-20.4-5.21-2.2,3.37-4.05,14.84-4.56,19.31-.34,3.02-1.37,15.52.14,17.1Z"/>
      <path d="M1097.36,480.96c-1.82,2.84-13.52,2.48-17.2,2.27-3.87-.22-12.5-3.3-14.6-.58-1.43,2.91-2.12,13.67,1.71,14.35,1.45.26,3.88-1.25,5.86-1.26,8.4-.04,16.93,1.23,25.37.62,2.01,5.78,3.07,15.9-5.32,15.86-10.1-.05-21.86-1.78-32.04-2.07-5.44-.15-16.49,4.07-15.94-5.08.51-8.54,4.12-20.59,5.37-29.42.77-5.47,2.68-33.84,5.34-36.12,2.41-2.06,6.13.63,8.39.74,8.04.37,16.8,1.08,24.84,1.1,7.9.02,17-5.51,16.61,7.44-.32,10.79-8.99,7.26-16.57,7.49-2.18.07-4.42,1.01-6.99,1.06-4.59.1-12.3-3.66-13.49,2.46-.51,2.6-.26,6.29,2.72,7.25,1.77.57,16.47-1.28,20.81-.86,3.75.36,6.11,1.44,6.52,5.53.17,1.75-.53,7.94-1.36,9.23Z"/>
      <path d="M1266.55,444.34c-.36,9.12,1.38,14.98-9.41,15.97-8.34.76-16.87-.14-25.09-.63-14.31,20.96,19.76,4.5,27.38,12.72-2.57,4.32.59,10.74-4.45,13.71-3.65,2.15-5.38.06-8.84.06-4.13,0-14.36-.4-17.63.49s-3.82,8.17-2.42,10.55c2.22,3.76,12.13.93,15.99.9,2.25-.02,4.11.83,6.01.88,2.9.09,6.51-2.07,9.84.12,2.46,1.56,2.17,11.2.73,13.62-3.05,5.16-8.26,2.39-12.52,2.38-9.68-.02-19.4-.09-29.08,0-3.44.03-6.22,2.36-9.49-.48l9.27-71.1,49.7.79Z"/>
      <path d="M1682.16,331.79c6.41,7.83,3.24,14.32,2.42,22.26-1.07,10.27.22,22.49-7.58,30.36-12.44,12.55-33.43,10.48-49.57,9.52-2.72-1.83.53-15.54.78-19.06.32-4.51-.15-9.56.29-13.93,1.25-12.5,3.95-24.84,5.1-37.34,13.14-.31,39.5-2.89,48.56,8.19ZM1649.72,337.68c-3.79,12.6-3.99,26.02-5.09,39.1,1.32,3.83,16.44,3.41,19.35-.37,4.05-5.26,6.8-26.16,4.47-32.41-2.48-6.67-12.86-7.23-18.73-6.31Z"/>
      <path d="M2760.91,314.73l26.68,72.52-.5,4.05-17.25-1.83c-1.51-.96-2.44-7.15-3.81-9.42-3.63-6.03-5.71-2.42-10.35-2.64-3.95-.19-14.19-3.72-16.59-.29-.89,1.26-.33,5.69-1.1,7.56-1.96,4.76-17.39,3.57-18.66-.99-.84-3.02,2.31-6.41,3.34-9.3,6.94-19.53,12.22-39.64,20.09-58.86l1.39-1.41,16.78.62ZM2745.42,359.21c2.69,1,12.63,2.6,13.64-.42-.03-2.57-5.36-20.08-6.41-20.32-3.72-.84-4.04,8.1-4.78,10.18-1.24,3.46-5.61,6.28-2.45,10.55Z"/>
      <path d="M1530.21,453.59c3.2,3.79,4.9,11.28,4.75,16.17s-3.48,32.51-5.01,35.36c-1.69,3.16-10.93,12.29-14.41,13.56-3.25,1.19-14.25,2.81-17.86,2.9-8.34.2-21.95-10.78-23.11-18.96-.66-4.66,2.28-15.47,2.96-20.9,1.22-9.69-1.29-11.21,4.2-20.77,3.52-6.13,13.36-13.8,20.4-15.57,7.98-2,22.75,1.89,28.08,8.19ZM1515.22,463.57c-1.61-1.46-7.78-3.56-9.96-3.15-1.43.27-9.18,6.3-9.56,7.48-.7,2.21.14,5.22-.29,7.73-1.07,6.25-5.81,19.86-2.75,24.99.57.95,5.47,5.08,6.63,5.34,5.8,1.35,12.99-2.77,15.45-8.05,1.12-2.41,4.1-21.95,3.83-25.14-.24-2.78-1.23-7.29-3.34-9.2Z"/>
      <path d="M2410.03,314.75c.9.9,1.1,2.95,1.24,4.23,1.33,12.47,1.34,36,1.09,48.93-.12,5.9-8.51,20.57-14.03,22.04-13.28,3.54-39.51,2.57-42.61-14.51-1.47-8.08-.24-16.09-.55-23.54-.23-5.46-2.92-32.06-.67-35.18,1.32-1.83,16.79-3.71,17.31,4.24.79,12.25-1.3,26.66-.57,39.02.58,9.96.69,15.9,12.56,15.48,16.42-.58,10.45-13.91,10.44-24.5,0-4.98.88-9.91.85-14.88s-2.39-15.85-.26-19.53c1.46-2.52,13.06-3.96,15.22-1.81Z"/>
      <path d="M1118.8,388.22c-2.65-8.08-11.05-18.82-11.15-27.29-.02-1.73,1.4-9.46,2.47-10.52,2.39-2.37,7.94.99,13.05-3.94,6.39-6.15,3.35-11.87-5.03-13.01-2.54-.35-12.68-1.39-13.84,1.22l-7.58,52.04c-1.66,2.62-14.81,3.11-15.93-2.06l6.81-52.62,4.28-14.88c3.37-1.53,4.25.79,6.5,1.1,9.78,1.37,23.14-.23,31.32,1.67,16.05,3.72,14.85,28.14,4.49,37.57-2.32,2.11-4.67,1.64-6.06,2.92-6.32,5.84,9.92,19.79,8.37,25.26-3.48,6.02-11.81,1.62-17.7,2.54Z"/>
      <path d="M596.35,293.15c10.41-.87,20.53,1.5,27.4,9.9,4.38,5.35,4.1,7.29,4.03,14.03s-3.47,29.48-6.99,34.88c-1.38,2.12-7.61,7.74-9.96,9.03-16.47,9.06-45.4,3.17-45.12-19.02.06-5.09,5.04-32.01,7.23-35.79,1.32-2.27,11.16-10.26,13.57-11.41,2.91-1.39,6.66-1.34,9.84-1.61ZM604.46,346.14c3.73-4.52,9.44-31.42,3.75-35.55-7.66-5.55-17.57-3.25-21.12,5.71-1.28,3.24-4.71,23.55-4.26,26.58,1.26,8.59,16.91,8.98,21.64,3.25Z"/>
      <path d="M1423.21,362.09c-2.18,2.11-7.06,2.73-6.69,6.76.18,1.94,3.19,4.8,4.21,6.88s1.32,4.49,2.39,6.6c1.39,2.73,5.95,4.63,4.32,9.42-1.02,3.08-14.09,1.04-16.45-.3-2.21-1.25-10.8-16.44-11.66-19.3-1.69-5.66.1-11.43,1.13-17.05l1.93-1.11c8.15,1.51,18.58-6.48,11.72-14.58-2.08-2.45-16.63-4.44-18.55-3.47-1.4.71-1.53,1.81-1.93,3.12-3.12,10.12-2.6,28.41-4.2,39.73-1.61,11.36-.47,15.95-13.32,13.54-10-1.88-2.89-15.42-1.81-22.66.78-5.23,1.44-10.6,2.12-15.85,1.14-8.76.64-19.37,2.15-27.8.24-1.33.76-2.34,1.97-3.02l32.43-.52c15.87,1.32,21.79,9.72,19.61,25.52-.52,3.79-6.57,11.37-9.38,14.09Z"/>
      <path d="M2610.96,438.53l27.84,65.58,5.39,5.56c-3.69,11.48-13.49.58-21.85,2.38-2.21-3.52-.44-9.88-5.08-11.42-1.98-.66-20.03.21-22.58.51-4.89.58-2.56,9.45-5.89,12.12-3.52,2.82-19.29,4.74-16.37-4.31l12.13-32.87,9.56-37.19,16.86-.36ZM2605.98,463.53l-2.28-1.03-1.95,1.78c.3,3.67-5.37,18-2.38,19.81,19.9,4.55,8.76-9.53,6.62-20.57Z"/>
      <path d="M1363.26,335.16c-3.98,3.52-7.89,1.23-12.15,1.37-3.68.12-6.75,1.24-11.04.94-2.45-.17-4.86-1.72-7.02-1.63-6.32.25-5.01,7.01-3.33,11.47l25.87-.38c2.99,1.83,2.91,13.09,1.01,15.02-8.56,4.62-31.38-7.34-32.06,8-.48,10.67,11.85,4.33,18.55,7,13.74.28,19.47-5.61,15.4,15.38-9.76-.79-19.6-.9-29.45-1-5.43-.05-11.9,1.14-17.6.51-.71-.08-4.57-1.39-4.71-1.6l8.09-67.52c3.38-3.25,30.15-.48,36.3-.35,3.46.07,11.92-3.05,13.95,1.12,1.69,3.47,1.17,9.04-1.8,11.67Z"/>
      <path d="M1206.47,319.64c2.2,4.59,2.16,15.65-4.4,15.76-1.95.04-3.84-.98-5.92-.98-7.97-.02-14.98.7-22.88-1.01-9.8,20.88,17.96,6.74,25.75,12.11,2.72,1.87,2.71,11.44.65,13.45l-3.54,1.53-26.42-.97c-.46,3.32-2.88,11.11-.85,13.65l31.74.67c2.98,1.48,2.67,11.85,1.08,14.09-3.08,4.35-8.81,1.39-12.56,1.35-10.96-.12-23.08,1.38-34.02.09-4.58-.54-6.68-2.67-6.43-7.36,5.07-19.94,6.14-40.83,9.85-61.13,1.27-1.14,2.86-1.83,4.56-1.91,5.81-.28,15.48,1.52,22.03,1.56,7.09.04,14.24-.91,21.35-.92Z"/>
      <path d="M384.75,399.48l1.1,6.39-3.74,44.63c1.31,4.67,4.21,9.24,9.37,9.71,14.79,1.36,13.29-24.87,14.38-34.38.37-3.24,2.35-20.89,3.06-21.9,2.32-3.29,5.49-.66,8.48-.54s7.54-2.46,8.47,2.47c.85,4.5-4.05,24.04-4.9,30.05-1.68,11.91,1.64,24.13-8.6,33.35-15.19,13.66-42.17,6.16-47.47-13.58,2.99-15.57-1.3-38.65,4.9-52.89,2.48-5.69,9.47-1.91,14.96-3.33Z"/>
      <path d="M831.02,374.11c-1.02-1.1-4.85-8.29-5.49-9.99-2.76-7.4,1.09-16.67,2.91-24.42.62-2.62.18-5.78.89-8.32,2.41-8.54,7.13-15.77,15.66-19.09,10.77-4.19,26.22-3.32,35.18,4.24,11.54,9.74,4.93,20.39,2.59,32.47-.56,2.9.16,6.1-.51,9.5-1.11,5.64-8.63,16.61-13.84,19.12-9.11,4.38-30.16,4.28-37.4-3.51ZM852.42,323.71c-9.72,2.19-7.73,24.56-10.79,32.25-.23,11.43,17.54,12.11,22.3,4.21,1.13-1.87,4.94-25.4,4.87-28.18-.23-8.5-9.52-9.82-16.38-8.27Z"/>
      <path d="M188.2,392.69c5.03-4.49,16.36-6.91,22.92-5.02,12.98,3.74,24.3,13.56,22.81,28.22-2.84,11.76,1.16,26.74-6.62,36.31-15.72,19.34-44.61,11.61-47.41-13.39-.68-6.06.68-29.12,2.33-34.62.59-1.97,4.65-10.33,5.97-11.51ZM202.61,403.58c-2.54.58-4.93,2.92-5.49,5.49-.61,2.75-1.14,11.4-1.25,14.72-.36,10.16-1.91,23.83,12.45,22.49,7.21-.67,8.26-11.76,8.62-17.42.28-4.31.3-18.21-1.61-21.43-2.53-4.27-8.26-4.87-12.71-3.85Z"/>
      <path d="M1692.75,466.53c-1.41,1.39-2.51,6.27-2.84,8.39-.87,5.5-.87,22.31,1.05,27.29,2.82,7.3,14.79,8.23,19.52,2.49,5.29-6.41,2.25-10.9,15.05-8.07,13.04,2.87,1.44,17.72-4.59,22.51-10.88,8.64-30.18,8-40.49-1.45-4.15-3.81-8.63-10.28-9.01-15.96s.83-29.65,2.06-34.87c4.45-18.9,37.49-27.44,50.95-13.09,7.27,7.75,11.55,19.23-3.61,19.36-8.05.07-7.28-9.17-16.13-10.67-3.5-.59-9.59,1.69-11.98,4.05Z"/>
      <path d="M2490.6,379.05c-1.48-1.48-3.96-5.08-4.3-7.19-1.24-7.6-.02-19.17-.5-27.36-.35-5.93-4.24-28.74-1.65-32.36,3.25-1.84,12.49-1.76,14.5,1.33,2.38,3.66.04,39.42,1.84,46.22,2.43,15.47,20.71,15.5,22.66,1.15l-2-48.68c.45-2.18,16.14-5.16,17.07,3.94.17,1.65-.75,3.27-.62,4.72.89,10.08,2.39,20.99,2.64,31.05.21,8.38,1.27,14.69-2.98,22.06-7.53,13.04-21.24,15.67-35.05,11.99-2.47-.66-9.73-5.01-11.6-6.88Z"/>
      <path d="M2732.17,466.26c-6.37-1.48-12.64-4.1-17.63-8.34-2-1.69-2.2-4.72-5.88-5.6-5.73-1.37-14.3-.59-15.41,6.51-.9,5.75-.41,24.63,1.73,30.11,2.46,6.32,9.3,7.55,15.46,6.02,6.93-1.72,4.53-8.19,4.85-8.63,2.56-3.49,17.5-3.39,18.82,4.44,2.18,12.89-9.12,18.48-20.15,20.7-8.78,1.76-16.56-.11-24.46-4.09-8.46-4.27-12.3-10.01-13.32-19.64-.88-8.27-1.94-31.17.81-38.15,3.52-8.97,10.69-13.19,20.1-14.67,16.37-2.59,37.45,14.01,35.08,31.34Z"/>
      <path d="M399.94,279.65c1.86,1.06,13.16-.26,13.71.15.25.19,2.91,4.9,3.01,5.46l-10.15,48.39c-2.38,4.65-10.36,12.31-15.4,13.57-7.48,1.87-16.75,2.12-24.25-.27s-16.92-9.32-16.91-17.85c0-6.25,2.9-18.17,4.18-24.8.69-3.56,4.79-25.27,5.62-26.34,1.96-2.52,13.13-2.31,14.89,1.34,3.24,6.71-5.97,36.99-6.85,45.66-.21,5.34,8.19,9.43,12.57,9.34,6.08-.12,11.45-7.57,12.79-13,2.48-10.09,2.79-24.62,4.74-35.2.41-2.21,1.98-4.12,2.05-6.46Z"/>
      <path d="M544.49,412.63c2.85,2.61,1.76,6.05,2.55,8.96,2.89,10.71,4.04,20.86,6.2,31.75,1.86,9.36,5.75,17.19,5.65,27.42-.09,8.61-4.55,4.03-7.63,3.51-4.12-.7-8.15,1.65-10-3.99-1.05-3.18.19-8.44-4.41-9.61-1.68-.43-3.47.69-5.39.52-4.54-.41-14.44-3.17-17.73-.51-5.87,4.75-1.62,11.96-15.47,10.61-10.31-1-4.16-8.1-1.61-12.71,8.35-15.05,20.62-41.66,30.75-54.15,5.68-7,9.48-2.3,17.1-1.8ZM531.06,434.58c-.52,4.34-9.43,16.13-7.21,19.08,1.97,2.62,12.05,3.29,13.28-1.56.2-.78-1.26-15.12-1.53-16.08-.25-.87-1.42-2.33-2.28-2.45l-2.26,1.02Z"/>
      <path d="M448.68,478.11c-1.75,1.83-14.82.32-16.31-1.9-2.79-4.15,2.54-24.49,3.33-30.54,1.64-12.61,2.92-25.4,3.88-38.03,2.84-5.92,6.1-2.02,9.98-1.5,9.36,1.26,26.46,1.25,33.94,5.04,15.7,7.96,11.29,30.22.32,40.61-3.83,3.63-13.4,5.53-18.49,5.5-4.41-.03-10.66-4.27-14.49.51-2.28,2.85-1.99,16.16-2.15,20.32ZM474.47,424.67c-2.92-3.12-6.45-1.6-9.78-1.9-2.99-.27-5.99-2.93-9.72-.3,1.37,5.65-5.55,16.03,1.1,19.08,2.24,1.03,13.15.98,15.17-.35.49-.32,5.22-6.8,5.36-7.58.64-3.54.4-6.25-2.12-8.96Z"/>
      <path d="M862.51,492.43l-22.22-2.17c-7.66,1.05-5.36,9.84-10.52,11.51-2.13.69-13.53,1.12-14.1-1.22-1.09-4.48,7.14-15.48,9.58-20.26,7.51-14.72,14.19-30.48,22.06-44.86,3.63-6.64,10.2-5.61,16.63-2.83,5.86,2.54,2.98,7.57,3.82,12.16,1.08,5.9,4.24,13.2,5.66,19.32,2.85,12.36,5.53,24.95,7.14,37.44-6.49,8.32-19.07.68-18.04-9.07ZM857.46,475.01c3.03-3.01-.17-6.18-.53-8.47-.32-2-.03-12.04-3.71-11.25-3.16,2.45-3.35,6.73-4.75,10.25-.87,2.2-3.32,2.47-2.8,6.16.63,4.49,9.03,6.05,11.79,3.31Z"/>
      <path d="M2306.3,361.43c-.8,3.08-1.32,6.31-1.43,9.49-.17,4.76,3.49,20.98-3.18,22.22-1.06.2-12.48-1.09-12.92-1.72l-1.91-70.98,4.32-3.43c12.23.05,25.33,1.63,37.49.34,2.53-.27,7.97-2.63,9.15-2.51,4.52.47,8.59,15.37,2.46,18.11-5.55,1.04-12.07-.55-17.47-.57-2.29,0-4.5,1.04-7.01,1.09-8.86.17-11.24-3.87-10.36,10.36.33,1.29,1.41,1.31,2.42,1.65,1.22.42,10.05.67,11.78.59,4.29-.18,12.66-3.47,16.25-.72,2.88,2.21,3.56,16.07-.09,16.07h-29.49Z"/>
      <path d="M98.66,260.86c.37.37,5.29,8.02,5.66,8.82,3.05,6.52,2.25,37.14-.21,44.51-3.89,11.68-12.63,15.82-24.7,15.26-15.67-.73-22.9-15.43-22.91-29.43-.01-10.12,1.43-21.97,2.2-32.18,4.01-9.79,17.44-15.57,27.48-13,.67.17,11.98,5.52,12.47,6.02ZM80.7,270.78c-13.11,1.8-7.56,18.11-9.49,27.23.69,7.57-.22,16,10.2,15.58,12.75-.51,8.58-18.05,8.43-25.53-.05-2.56,1.26-5.13,1.18-7.99-.17-5.79-4.4-10.1-10.32-9.28Z"/>
      <path d="M466.69,283.69c.69,2.92,2.3,5.55,3.01,8.46,3.93,15.97,5.61,33.37,9.36,49.56,1.16,5.02,7.08,11.58-.3,14.28-2.82-2-9.62-.3-11.63-1.32-4.8-2.45-2.57-4.62-3.53-8.5-1.78-7.19-12.85-4.65-18.23-4.68-2.89-.02-5.32-1.86-8.83-.82-3.82,1.13-3.53,6.36-5.73,8.27-3.75,3.26-15.49,3.36-16.87-2.19-.75-3.01,4.59-7.02,5.86-9.02,7.21-11.35,14.33-22.74,21.19-34.53,2.87-4.94,5.07-12.08,8.4-16.57,5.43-7.32,9.66-1.63,17.3-2.93ZM452.84,305.53c-.91,3.02-1.03,6.33-2.22,9.28-1.42,3.52-9.44,9.78-1.81,12.28.69.23,7.8.44,8.31.29,4.36-1.35,1.67-18.27-.79-20.85-1.12-1.18-1.99-1.14-3.5-.98Z"/>
      <path d="M708.49,300.78c3.08,2.61,6.01,25.22,7.36,31.09,1.5,6.53,4.27,13.85,5.63,20.34.77,3.68,3.64,16.77,1.79,19.22-1.47,1.94-11.37.39-13.49-.55-4.58-2.02-2.05-7.77-3.95-10.78s-6.17-.63-8.47-.76c-5.35-.3-11.24-1.84-16.91-.71-2.78.84-3.77,6.06-5.65,8.05-4.14,4.39-11.77.97-17.04,1.74-1-6.7,5.3-11.43,8.41-17.07,5.29-9.6,10.81-19.23,16.13-28.82,2.3-4.14,6.88-17.16,9.4-19.56,3.21-3.07,6.23-1.17,9.45-1.48,2.41-.23,4.41-2.76,7.35-.71ZM695.99,324.73c-.57.63-6.88,14.48-7.04,15.48-1.06,6.59,11.5,5.28,12.64-.49.2-.99-.75-12.52-1.04-13.53-.61-2.15-2.97-3.23-4.56-1.46Z"/>
      <path d="M606.44,451.95l-15.7,14.76-.87,3.93c1.15,3.5,8.51.16,11.42.16,3.85,0,8.05.3,12.02.36,9.51.15,5.91,10.17,3.84,16.16-11.04,1.85-22.67-.48-33.85-1.17-6.03-.37-19.03,3.57-18.44-7.26.63-11.67,15.78-22.34,23.45-30.58,1.75-1.88,12.41-13.57,12.52-14.53.71-6.32-7.38-2.03-10.52-1.97-1.29.02-13.96-1.48-14.51-1.96-2.4-2.08-.4-12.72,2.46-14.6l47.05,3c4.36,15.09-13.15,21.9-18.86,33.7Z"/>
      <path d="M1572.28,324.73l15.74,67.65c-1.32,2.64-11.43,2.66-13.85,1.83-3.92-1.34-2.62-10.96-4.6-12.38-4.45-.76-9.11-.51-13.62-.47-2.87.02-9.92-.09-11.84,1.14-3.52,2.26-1.83,9.05-6.32,10.65-2.79,1-10.45,1.21-13.28-.23-2.78-2.7,3.39-10.34,4.74-13.29,2.1-4.59,4.37-9.03,6.45-13.53,6.49-14.05,12.04-28.55,19.07-42.35,5.61-2.17,12.09-1.45,17.5.97ZM1559.03,346.48c-1.55,3.94-7.63,15.78-6.03,18.95,1.92,3.81,11.51,2.19,12.35-2.75.45-2.67-1.96-17.61-6.31-16.21Z"/>
      <path d="M1071.56,387.33c-5.91-.94-14.01,2.89-17.13-4.2-.94-2.14-.7-6.15-2-7.49-2.18-2.25-22.31-1.92-25.06-.28-2.07,1.23-2.71,6.3-4.22,8.02-3.37,3.84-12.1,2.52-16.34.89-1.92-7,2-6.65,4.89-11.32,9.68-15.67,16.55-37.01,26.77-52.13.98-1.45,2.09-3.56,3.9-4.09,4.74-1.39,12.77-.51,15.03,4.55,4.01,8.98,6.15,29.41,8.75,40.18,1.23,5.11,8.28,22.21,5.42,25.89ZM1049.52,358.3l-3.8-19.39-3.04-.43-6.08,19.31c.52,2.26,10.83,2.11,12.92.52Z"/>
      <path d="M335.57,452.98c2.34-1.86,3.75-7.95,4.96-8.77,17.5-2.04,14.84,2.1,14.28,17.02-6.89-.36-10.08,7.08-16.39,9.08-14.46,4.58-33.7-4.04-36.31-19.77-.44-2.65-.93-10.23-.74-12.77s1.99-5.4,2.15-8.1c.34-6-1.84-11.05.29-17.88,5.71-18.32,35.97-20.8,47.47-7.35,7.99,9.35,8.19,24.06-7.15,17.13-4.7-2.13-5.99-7.97-12.45-9.61-7.91-2-11.91,3.71-12.86,10.91,1.99,7.53-3.56,26.03,3.67,30.29,3.7,2.18,9.61,2.58,13.09-.18Z"/>
      <path d="M1295.96,460.68c-1.56,1.01-3.74,4.29-4.31,6.14-1.81,5.89-3.82,21.86-2.97,27.8.81,5.62,3.84,7.17,9.42,7.06,11.61-.22,9.76-9.53,16.07-11.39,10-2.96,14.37,1.32,9.96,10.97-6.88,15.05-28.46,21.9-42.87,12.76-10.49-6.65-11.44-13.48-10.11-25.3.75-6.66,3.15-19.96,5.12-26.29,4.6-14.73,22.32-21.05,36.73-19.05,7.21,1,22.14,15.36,18.11,21.89-1.32,2.14-12.65,2.44-15.03,1.98-3.89-.74-3.02-7.09-7.43-8.54-4.43-1.46-8.9-.47-12.69,1.97Z"/>
      <path d="M1293.24,324.88c1.37.75,6,7.25,6.58,8.86,3.45,9.5,1.13,17.88-4.8,25.63-9.24,12.08-20.33,9.05-33.75,9.97-4.32,12.12,1.73,26.48-18.27,20.15-1.15-.96-1.43-2.1-1.45-3.54-.1-6.08,3.16-15.86,3.93-22.13,1.04-8.56,1.08-17.29,2.13-25.82.28-2.24,2.06-14.83,2.46-15.51,1.77-2.99,8.12-.86,11-.92,10.02-.21,23.01-1.66,32.17,3.32ZM1282.24,337.82c-3.07-3.23-12.95-5.06-16.25-2.44-1.75,1.39-5.42,16.78-3.2,18.83,2.56,2.36,10.66,1.61,13.88.82,7-1.73,10.74-11.78,5.58-17.2Z"/>
      <path d="M292.62,418.13c-1.35,1.45-10.62-.69-12.49-1.54-4.53-2.07-2.96-7.01-8.99-7.95s-12.2.6-13.21,7.26c-.73,4.77-2.07,16.42-2.06,20.92.03,14.43,18.83,22.08,21.15,4.62,2.45.43,15.45-1.56,15.91.5,1.25,10.63-7.81,22.44-17.87,25.04-4.36,1.13-19.14-.89-22.7-3.69-3.98-3.13-10.21-11.63-11.37-16.63s.04-29.57.91-35.81,4.76-11.14,10.05-14.92c9.38-6.7,20.64-6.39,30.29-.42,5.2,3.22,15.38,17.26,10.39,22.61Z"/>
      <path d="M2951.88,73.1c.2.32-.71,1.3-.52,1.58.68.97,3.16,1.45,4.1,4.19.52,1.54-.38,4.09-.14,5.54.09.52,1.66.3,1.66.91.09,15.01-.09,36.24-9.2,49.08-.96,1.35-5.66,5.05-6.24,7.33-.26,1.04.54,2.59.36,2.88-.63,1.04-10.58,6.87-12.05,7.82-.15.09-.85.2-2.49,1.28-2.65,1.75-9.7,6.07-11.36,8.48s1.06,7.87-1.88,9.53c-.45-3.07-5.76-3.4-8.01-6.47,3.44-3.12,4.97-7.85,7.33-11.11.78-1.07,2.68-1.42,3.74-2.88s1.42-6.8,3.71-4.76l3.21-2.76c-2.08-2.35-3.88-1.95-2.99-5.96,2.83.31,4.31,2.28,7.53,2.1,1.63-.09,1.21-1.44,2.26-2.01.89-.49,2.9.12,3.8-1.06.67-.89-.63-2.44-.37-2.86.64-1.05,2.25-3.49,3.14-4.83.73-1.1,4.15-3.74,4.57-5.09,1.81-5.75.12-6.77-1.9-11.79l-3.88-.26c-2.94,2.72,3.47,13.37-4.14,12.82,1.04-5.63-4.86-7.66-4.97-12.92l6.87-2.71-.14-10.74c-6.45-4.43-3.63-8.18-3.22-14.07.07-1.05-1.29-2.08-1.11-3.59.23-1.92,2.32-3.81,2.64-5.84l2.91.96,1.02-2.52c-2.31-.42-1.89-2.96-3.02-3.93-1.45-1.24-6.79-2.29-8.78-3.7l1.79-6.82-2.49,1.99c-2.66-1.33-1.51-5.52-2.72-6.72-3.08-3.07-16.31-1.64-15.78-10.24,1.79-.04,3.59-.11,5.39.1,12.84,1.53,34.77,18.76,41.36,29.04Z"/>
      <path d="M1797.19,322.71c1.92,2.01.19,10.72-1.3,12.71-2.74,3.67-6.61.95-9.95.96-1.77,0-3.41.89-5,.89-4.3.02-16.85-2.19-19.57,1.62-1.77,2.48-1.76,9.36,1.79,10.38,5.03.61,21.7-3.22,25.01-.55.65.53,2.13,4.31,2.25,5.32,2.29,18.9-20.73,6.62-31.34,11.29-4.93,13.83,5.2,34.5-18.69,27.6-1.04-.72-1.53-4.31-1.4-5.69.99-10.47,4-21.03,5.33-31.43.71-5.58.75-30.15,4.28-33.12h48.58Z"/>
      <path d="M3092.8,438.59c.66,1,.99,9.44.57,10.45-1.57,3.7-6.94,2.35-9.85,4.18-2.02,2.8,1.51,26.7,1.98,31.88.21,2.34-.87,4.79-.38,7.39.97,5.17,13.5-.97,13.63,9.77.17,15.24-11.98,10.33-23.21,10.89-2.69.13-14.15,2.31-15.46,1.48-4.56-2.91-4.61-12.67-2.9-17.36l8.95-.51c3.47-3.89.74-7.78.53-11.34-.59-9.9-1.05-19.83-1.93-29.7-1.85-3.53-12.55.5-11.58-9.8,1.03-11.03,6.72-7.22,13.48-7.54s16.21-2.23,22.01-1.95c.87.04,3.77,1.55,4.17,2.17Z"/>
      <path d="M3307.3,357.16c-.64-.42-2.08-3.36-2.23-4.27-2.04-12.61-1.59-27.81-3.15-40.77-1.17-9.71-4.7-20-4.4-29.57,1.08-2.19,14.43-3.54,16.51-2.5.89.44,1.49,1.29,1.76,2.24l7.76,57.21c2.1,2.42,31.61-3.53,36.79-3.92,3.66,1.15,4.8,13.9,2.77,16.47-1.41,1.79-18.26,2.06-22.45,2.55-5.93.7-29.26,5.22-33.35,2.57Z"/>
      <path d="M3168.3,313.81c-1.98.69-3.62,1.99-7.74,1.79-9.5-.45-10.36-12.91-4.78-15.86,7.04-.61,14-3.08,20.89-4.1,7.28-1.08,16.28-1.19,23.81-2.18,4.68-.61,8.82-4.93,11.65,2.5,5.59,14.66-6.04,14.55-17.43,14.69-.84.2-1.24.71-1.5,1.5-.41,1.21,1.01,16.46,1.31,19.63,1.06,11.36,2.94,22.78,4.09,34.17-1.01,1.87-3.18,5.69-5.23,6.26-.95.27-8.59.85-9.43.68-6.87-1.39-3.55-15.5-3.88-20.93-.48-7.95-1.49-23.35-3.25-30.71-1.01-4.25-3.21-9.27-8.5-7.44Z"/>
      <path d="M3162.86,431.53c2.6,1.52,3.27,9.53,4.04,12.32-2.17.66-1.82,2.87-2.84,3.91-4.37,4.41-17.31-2.54-18.85,2.17l2.4,54.75c-3.19,5.75-12.74,7.87-17.58,3.06-4.48-4.47-1.06-5.7-.9-8.97.71-14.92-2.09-29.69-2.51-44.54-3.38-11.01-21.48,6.48-23.46-9.53-.79-6.41-.02-9.25,6.51-9.31,14.34-.12,29.43.08,43.79-2.19,2.66-.42,6.59-3.31,9.4-1.67Z"/>
      <path d="M31.66,307.24c1.58-1.61,1.66-5.82,2.93-6.79,2.75-2.1,8.32-1.76,11.58-.96,8.36,12.32-10.5,26.8-21.73,26.82-10.93.03-22.49-10.95-24.26-21.52-.77-4.64,1.01-29.06,1.75-34.72,2.82-21.54,28.95-25.92,42-9.97,3.18,3.89,10.53,16.28,1.45,17.49-9.93,1.32-10.49-9.89-19.22-10.83-7.34-.78-10.7,5.85-11.27,12.26-.39,4.43-.26,22.24,1.31,25.73,2.48,5.53,11.62,6.38,15.45,2.49Z"/>
      <path d="M2060.67,525.89c-4.6-3.88-1.32-15.6-1.24-21.19.25-17.55.1-35.23-1.1-52.75.55-2.34,18.78-3.58,19.01,2.85-.18,13.97.31,27.98.06,41.95-.09,4.87-3.75,11.28,3.8,12.9,6.92.51,23.79-2.27,29.51-.33,3.24,1.1,3.83,12.85.58,15.28-3.71,2.79-20.48.55-26.46.59-4.07.03-22.65,1.97-24.17.69Z"/>
      <path d="M1992.65,523.9c-2.45-5.02-.29-9.96-.23-15.15.19-16,.01-32.02.02-48.02,0-3.35-1.45-6.61.01-10.38,4.17.4,13.69-1.58,16.39,1.99,4.53,6.01-.19,44.82,2.05,54.86l3.07,1.96,30.47-.5c3.13.34,3.17,8.21,2.89,10.91s-1.59,6.27-4.5,6.63c-7.22-.93-14.86-1.58-22.11-1.65-3.98-.04-8.25-.38-11.83-.37-5.18,0-11.35,3.58-16.23-.27Z"/>
      <path d="M2993.96,316.63c-1.94,3,1.89,8.65.25,11.16-2.64,4.04-11-2.73-11.15,5.14l2.06,38.49,1.81-.72c.22,2.84,3.36.48,5.69.71,7.82.75,7.11,14.79.97,15.96-9.65.01-20.49,2.2-29.99,2.11-6.82-.06-6.97-7.62-5.98-13.09,1.5-3.02,6.34-1.27,8.93-3.06,3.74-2.58.23-7.58.13-10.76-.2-6.01,1.31-24.84-1.66-29.51-2.41-3.78-8.81-1.58-10.22-4.82-1.61-3.7-.15-7.82.54-11.53,2.75-2.39,5.87-.31,8.29-.42,7.01-.32,17.5-2.18,24.01-1.91,2.71.11,4.08,1.14,6.34,2.23Z"/>
      <path d="M2494,458.03l-17.78,2.9,1.29,56.01c-2.37,5.12-12.89,3.66-17.05,1.08-.88-4.56.98-9.15.89-13.32-.05-2.37-1.09-4.57-1.13-6.95-.1-6.19,1.23-33.37-1.45-36.49-2.97-3.46-11,1.12-14.07.94-5.8-.34-6.83-11.93-4.94-15.91,2.47-5.19,10.86-1.59,14.99-1.56,8.2.07,19.44-1.23,27.83-1.85,2.68-.2,5.13-1.9,7.93-1.42,6.78,1.16,5.38,11.81,3.49,16.57Z"/>
      <path d="M1650.7,504.96c1.85,1.21,7.91,2.12,8.76,3.99,2.25,4.95,1.84,14.58-5.42,14.27-6.36-.28-13.73-1.01-20.08-1.1-2.3-.03-6.3,1.35-7.93,1.04-4.75-.9-5.43-10.97-4.05-14.98,1.81-3.29,7.56-2.15,9.52-3.46,2.62-1.76,1.65-13.71,1.99-16.98.51-4.93,4.69-20.7.57-23.55-4.57-3.16-9.1,1.27-7.51-10.34,1.48-10.78,16.52-5.47,24.41-5.48,6.56,0,12.73-3.8,13.03,7.4.27,10.09-10.91,5.94-12.29,12.22l-1,36.98Z"/>
      <path d="M2917.43,172.36c2.88,1.83,9.78,2.79,11.38,4.67,1.19,1.39,1.3,3.66,2.29,4.96,8.26,10.78,19.91,20.75,27.61,32.08,1.37,2.01,1.42,5.24,1.63,5.44.69.66,2.42.43,3.86,1.9s3.22,8.31,1.65,9.97c-2.63,2.77-12.12.82-16.23,1.26-3.3.35-7.1,2.63-10.01,2.54-2.31-.08-4.97-2.24-7.77-1.58-1.09.26-2.37,5.25-5.01,4.88-3.48-3.77-8.53-4.93-12.19-7.83-4.77-3.78-6-8.67-8.88-11.98-2.02-2.3-4.41-2.93-5.61-4.01-.61-.55,6.54-5.8,9.27-4,2,1.32,4.2,14.21,13.72,10-.68-1.83.16-4.98-.08-6.35-.12-.65-1.47-.62-1.6-.88-.22-.46.64-1.36.47-1.57-2.74-3.29-9.73-2.22-6.03-11.82,1.11-2.87,3.92-4.45,4.05-4.86,1.22-4.04-5.65-8.97-4.63-11.96.2-.6,1.75-.07,1.93-1.97.31-3.24-1.38-7.16-1.1-10.51,1.54-.42.79,1.3,1.29,1.62ZM2932.95,203.46c.16-.24,0-5.31-.27-5.74-1.33-2.14-4.52-1.24-6.53-2.04l-1.01,12c.47.8,7.41-3.64,7.81-4.22ZM2947.11,221.65c2.03-4.38-.52-6.4-4.99-5.97l1.01,1.97-6.58,1.97-1.91-1.95c-3.46,2.62-4.27,7.76,1.24,5.63.29-.11.14-1.46.7-1.49,2.43-.15,8.42,2.47,8.56-2.14l1.97,1.99Z"/>
      <path d="M2208.15,320.67l.67,54.74c1.74,3.55,9.54.99,12.93.97,3.68-.03,7.11.54,10.52.58,8.22.11,13.29-4.29,13.12,8.92-.06,5.12-1.01,7.76-6.53,7.53-9.38-.38-20.71-1.67-30.08-1.07-7.7.49-17.68,6.37-18.53-5.46-.77-10.66,3.08-25.52,1.03-36.97,1.81-9.4-.72-19.14-.78-28.71,1.56-5.13,14.06-2.85,17.65-.54Z"/>
      <path d="M663.01,436.55c-1.5,1.36-6.77,33.37-5.8,37.77l8.56.93c-.14,3.74.19,11.13-1.94,14.3-2.14,3.19-6.99.73-9.58.68-8.84-.15-17.54-.71-26.34-1.14-2.21-5.02-1.01-10.54.03-15.65,3.62-2.01,5.97,1.83,9.71.7,2.19-4.05,1.4-9.19,2.34-13.13s2.83-7.53,3.63-12.35c.4-2.43,1.6-10.97,1-12.71-1.07-3.1-8.66-.47-8.88-8.1-.14-4.88,2.5-6.76,6.86-7.99,5.79,2.41,24.99-1.03,29.15.97s2.36,14.22-1.7,15.31c-1.49.4-5.17-1.29-7.05.41Z"/>
      <path d="M2473.25,311.51c.57,6.47,3.44,12.24.07,18.56-2.64,1.98-15.44-5.65-17.57,1.37l.84,55.72c-1.56,3.44-13,1.43-14.26-.34-2.01-2.83-.01-16.15-.07-20.97-.13-11.13-2.74-23.43-3.14-34.72-1.76-5.27-14.81,1.9-18.62-1.88-1.98-3.64-1.87-11.95,1.24-14.76,3.63-3.28,4.42-.04,8.03.1,2.26.09,4.53-1.08,6.94-1.12,12.26-.2,24.61,1.2,36.53-1.96Z"/>
      <path d="M225.66,281.33c-5.6,4.21-12.18-4.23-16.55,1.95l-3.14,52.52c-2.18,3.41-11.77-.47-14.93-1.46l1.83-51.26c-1.47-7.81-12.02,1.4-16.03-4.95-1.77-2.8-3.1-17.38,3.51-16.58l45.82,4.22c3.8,2.08,1.02,11.93-.52,15.57Z"/>
      <path d="M909.94,488.98c1.07,1.04,13.84,1.68,16.25,1.67,5.96-.02,14.45-4.47,15.48,4.16.21,1.76-1.24,11.11-2.65,11.43-10.24-.43-20.59.45-30.82-.05-3.96-.19-10.19-.58-13.95-1.08-1.23-.16-2.94-.47-3.63-1.57-2.45-3.88,2.98-22.15,3.92-27.98,2.15-13.38,3.58-26.99,5.17-40.49.95-2.1,16.33-1.93,16.46,2.12l-7.21,47.84c-.18,1.26.08,3.07.99,3.95Z"/>
      <path d="M269.6,268.9c3.66,1.16,2.75,15.25-2.35,15.37-3.71.08-5.28-3.93-7.35,1.82-1.46,4.05-3.82,24.79-4.04,29.95-.53,12.15,6.59,6.33,9.12,10.14l-.59,10.32c-2.79,4.76-24.93,1.29-30.48,1.4-5.1-1.11-5.45-12.15-2.42-14.36,3.37-.98,7.5.34,8.94-3.97-.68-6.49,4.38-32.42,1.53-36.36-1.14-1.57-6.09-.7-6.95-3.27-.37-4.71-1.52-13.85,5.35-13.93,2.12-.02,4.78,2.15,7.61,2.32,4.26.25,8.42.43,12.74.7,2.99.19,5.71-1.11,8.87-.11Z"/>
      <path d="M1727.29,380.56l-1,12.15-1.47,1.55c-3.4.6-6.41-.93-9.84-.96-5.79-.06-14.74,1.67-20.04,1.15-3.73-.37-4.56-2-4.52-5.5.14-13.37,7.63-7.1,11.51-12.57,4.23-5.95,2.05-27.28,4.56-35.39-.75-4.58-7.11-2.69-8.16-4.11-1.69-2.29-1.53-12.12,1.78-13.23,7.26-.04,14.52-.07,21.76-.15,5.43-.06,10.49-3.45,11.6,5.52,1.32,10.75-8.72,6.3-10.77,11.19-1.69,4.02-.74,9.53-1.37,13.61-.57,3.69-4.23,18.44-3.41,20.59,1.41,3.72,6.06,4.55,9.36,6.15Z"/>
      <path d="M982.47,383.18c-1.29,1.82-14.65,1.67-15.65.07l6.88-51.21c-1.81-6.57-8.47-2.25-12.53-2.47-7.78-.41-4.23-9.85-2.6-14.47l49.83.12c5.63,2.39,3.89,15.01-4.25,15.32-3.93.15-12.4-3.86-14.27,2.64-1.45,5.06-1.45,14.83-2.34,20.62-1.51,9.8-3.01,19.66-5.07,29.38Z"/>
      <path d="M813.58,360.57c2.5,3.8-.34,15.45-4.59,16.66l-45.81-3.78,10.65-67.82,12.18.06,3.05,4.96c-1.71,12.32-3.26,24.89-5.46,37.18-.56,3.13-4.48,8.93-1.41,11.61,2.18,1.91,9.62.8,13.01.99,6.35.37,11.66,1.34,18.36.13Z"/>
      <path d="M1491.39,323.64l-4.46,51.79c1.8,5.27,5.61,2.04,9.16,1.95,4.85-.12,10.77.76,15.44.64,2.25-.06,4.99-2.37,7.96-.58-.77,3.65-.61,15.69-4.68,16.81h-45.13s-.71-1.82-.71-1.82l6.7-67.3,1.51-1.49c4.92.21,9.57-2.5,14.21,0Z"/>
      <path d="M906.92,380.19c-1.39-3.4,1.08-6.58,1.53-9.52.67-4.41.69-9.39,1.37-13.61.76-4.73,6.64-26.97,3.77-29.46-6.66.5-11.74,1.53-17.41-3.09-2.19-3.56,2.03-8.2,3.42-11.34l49.08.79c3.63,1.84,2.64,9.97.58,12.62-5.38,6.93-15.81-3.42-18.13,3.86l-7.95,49.96c-1.15,3.98-15.3,1.46-16.27-.2Z"/>
      <path d="M648.37,185.47c-1.35,3.74-7.47,15.3-10.93,18.95-1.44,1.52-7.82,3.75-9.74,5.69-1.6,1.62-1.58,3.73-2.61,4.63-1.74,1.52-8.59,3.61-10.71,2.01l-.6-3.06c9.26.11,12.53-9.63,17.21-14.66.23-.24,3.15-1.04,5.07-3.59,3.57-4.73,2.51-5.95,4.07-9.48.22-.5,3.49-2.26,3.93-3.46,1.05-2.82.38-6.67.93-8.27,2.26-6.68,2.69-4.41,3.9-13.91,1.52-11.92,2.94-25.7,3.86-38s-.19-29.17,1.53-40.9c.16-1.07,1-4.48,2.46-4.5,2.83,11.5.19,23.34-.47,34.9-1.13,19.92-1.49,55.94-7.92,73.67Z"/>
      <path d="M3459.17,358.15c-.36-.26-3.11-4.49-3.15-5.15-.19-2.85,3.85-6.86,2.85-9.86-7.85-4.83-10.13-12.13-4.92-20.16,12.05-1.2,18.83-7.21,19.99,9.02.42,5.9-3.35,24.84-9.74,26.25-.53.12-4.83.05-5.04-.1Z"/>
      <path d="M2213.03,136.51c-1.74,2.46-3.08,3.72-5.28,7.2-6.97,11.02-7.72,11.59-18.04,18.46-1.99,1.32-2.36,4.17-3,4.64-1.96,1.45-8.56,2.67-10.42.5l.69-6.65c3.49-1.58,6.81-.91,10.31.08-.63-5.61,8.72-9.89,9.81-12.24,2.63-5.67,3.62-6.45,6.66-11.43,5.15-8.44,9.7-22.58,9.61-32.77-.02-2.59-2.73-18.36-.54-18.44,2.34,5.89,5.33,14.09,5.55,20.45.15,4.13-3.41,27.45-5.35,30.19Z"/>
      <path d="M745.73,41.95l-.56,32.09c-2.21,30.03-4.76,59.86-9.01,89.68-.64,4.51,1.46,11.66-3.4,14-1.48-5.14,1.4-11.06,1.71-15.87,2.17-34.53,4.85-72.01,8.19-104.35l-1.53-13.09,1.02-1.51,3.59-.95Z"/>
      <path d="M2009.83,93.5c1.37,2.64.3,1.15.79,3.57,2.52,12.56,5.08,36.42,5.19,49.2.09,11.53-.93,27.52-3.13,38.12-.73,3.52,1.92,7.71-1.79,10.3-1.35-.47-1.06-7.37-.97-8.85.17-2.52,3.41-6.76-.55-7.62l1.92-.91c-2.03-8.19-.67-17.34-1.12-25.72-1.1-20.47-5.94-41.27-2.78-61.72,1.63.35,1.74,2.29,2.44,3.63Z"/>
      <path d="M797.72,235.65l-1.45,2.65c-9.24-2.05-19.95.48-29.06-.64-20.09-2.46-40.38-3.67-60.91-5.04-3.54-.24-16.62,1.56-16.54-3.49l3.45-3.36c5.68,1.23,12.53,2.85,18.23,3.51,22.45,2.63,45.94,2.21,68.61,4.07,6.15.5,12.13-1.75,17.67,2.3Z"/>
      <path d="M2540.24,75.88c-.67-6.49,4.56-1.96,6.49-2.02,1.57-.05,3.28-2.13,5.34-2.43,5.16-.77,12.34,2.56,18.73-2.46.46,2.86,6.87,1.68,8.69-.01,2-1.87,1.57-6.66,1.7-9.51.13-2.7.25-8.57.11-11.04-.12-2.16-1.93-3.05-1.45-5.21,1.03-4.64,5.86-5.41,7.87-1.25s.2,21.65-.23,27.08c-.17,2.16,1.4,4.38-.67,5.94-3.3,2.48-7.29-.52-11.01-.06-6.98.88-13.93,2.15-21.13,2.03-4.36-.08-9.88-.96-14.44-1.05Z"/>
      <path d="M1790.12,184.51c-1.6,6.7-5.05,14.45-7.4,21.96-2.58,8.22-3.7,20.91-6.97,29.19-1.08,2.74-5.08,5.74-5.88,7.96-2.33,6.4,3.69,11.34-11.4,7.98-1.13-1.25,5.27-8.26,6.06-9.49,5.42-8.48,8.06-20.26,10.55-30.46.74-3.02,6.01-7.22,6.95-9.91,1.82-5.22.92-10.68.99-16.06l7.94-7.94-.83,6.78Z"/>
      <path d="M3200.8,396.7c1.29.51,4.11,6.41,5.29,7.89,3.07,3.85,11.69,8.85,4.67,12.97-8.24,4.84-18.94-3.9-25.19-9.23-2.47-2.1-5.31-4.29-4.49-7.94.65-.96,9.82-.78,11.41-1.08,2.05-.39,5.98-3.54,8.31-2.62Z"/>
      <path d="M2099.19,243.48c-.04.12-1.42.13-1.86.82-.6.95-.56,2.46-1.13,3.08-1.3,1.4-10.25-1.2-12.83.23l.58-3.09,6.21-2.12c.47-1.19,1.65-2.42,1.92-3.57.57-2.46,1.52-10.75,1.76-13.65.28-3.48.09-8.77.37-13.16.59-9.3-.13-18.93,1.17-28.3,1.41.23,2.34,5.62,2.41,6.47,1.25,15.64,1.09,34.1.55,49.9-.04,1.25,1.04,2.91.86,3.39Z"/>
      <path d="M457.24,188.16c-3.02,4.02-5.84,11.88-11.34,9.45-1.74-2.92,4.63-7.83,6.22-10.17,3.4-4.98,12.94-28.76,12.69-34.11-.22-4.74-3-9.92-.5-14.55,2.06,1.42,2.27,2.95,2.81,5.15.44,1.8.86,20.36.61,22.22-.9,6.68-6.62,16.84-10.49,22Z"/>
      <path d="M2876.94,133.99c.81,1.02-3.09,7.31-3.51,9.1-.19.84-.5,15.91-.39,17.19.15,1.82,1.69,1.39,1.84,1.98,1.6,6,2.28,11.77-1.23,17.44-1.4-1.11-1.7-1.35-1.98-3.1-2.13-13.12-4.34-24.38-5.02-39.28-.06-1.33.53-3.01.62-4.4,2.71-.52,7.71-1.41,9.68,1.07Z"/>
      <path d="M3076.39,143.52c.08.33,2.75,2.65,2.79,5.75.05,3.61-2.64,6.01-4.88,1.78-1.13-2.14-2.26-5.63-2.66-7.55-2.45-11.91-1.65-30.87-2.53-44.17-.09-1.32-.57-2.29-1.03-3.45l3.8,1.72c-.13,5.66,2.59,11.6,3.28,16.74,1.11,8.23-.56,21.78,1.22,29.19Z"/>
      <path d="M1825.06,94.5c-4.17,10.81-9.88,21.54-13.37,33.09-.3,1.01.73,2.46.49,3.02-.07.15-1.32.2-1.67.94-1.15,2.4-.2,4.5-4.05,5.24-.32-3.48.99-6.34,1.8-9.47.17-.66-.79-1.82-.6-2.36.09-.24,2.39-.74,3.28-3.65.64-2.09-.44-5.09.73-7.7,2.51-5.56,7.76-11.13,10.07-17.75,3-8.62,2.92-19.05,5.71-27.96l4.56,1.95.41,2.43c-3.15,7.2-4.55,14.92-7.36,22.22Z"/>
      <path d="M1199.61,106.85l-7.95,74.2-3.03,1.67c-1.25-8.38.71-16.95,1.63-25.34.84-7.69,1.44-8.16,3.01-15.3,1.69-7.69-.64-21.94.91-29.37.31-1.47,3.19-8.06,5.44-5.87Z"/>
      <path d="M2098.37,135.8c-.78-10.42-2.6-20.91-3.01-31.37-.18-4.74,1.18-9.29,1.05-13.02-.09-2.59-1.77-4.64-1.89-7-.42-8.71,9.07-3.95,8.7-.19-.15,1.54-2.59,3.16-2.94,6.14-.79,6.68.91,17.99.62,25.44-.14,3.51-1.15,7.32-1.4,10.68-.19,2.56,1.81,7.83-1.13,9.32Z"/>
      <path d="M468.55,78.62c-.78.96-7.93,3.08-9.3,3.15-.5.02.03-1.79-1.87-1.99-3.38-.35-10.52-.32-14.54-.49-1.72-.07-3.31,1.42-5.11,1.1-2.84-.5-9.07-4.72-7.89-8.48,6.67-1.28,6.41,6.55,13.33,5.02.93-.21,1.48-2.04,6.83-1.43,4.25.48,4.96,2.42,5.28,2.39.54-.06,6.49-2.46,7.08-2.94,2.05-1.64,3.41-8.56,5.94-8.02,2.6,1.64,1.64,9.98.25,11.71Z"/>
      <path d="M2918.82,110.63c-.1.2-1.53.11-1.7.88-.27,1.25.98,4.47,0,6.32l-6.86-2.13c.36-9.89,1.47-19.29-2.13-28.81.17-.22,5.15-.77,5.51-.65,2.09.7,2.97,12.47,3.42,15.18.3,1.81,2.69,7.41,1.76,9.21Z"/>
      <path d="M1402.56,250.62l-1.25,2.22c-21.68-1.11-44.62,1.26-66.27-.18-2.7-.18-7.18-.35-4.96-4.02l72.48,1.98Z"/>
      <path d="M607.78,221.64c-12.77,3.88-26.81,9.38-39.98,3.5,3.84-2.99,8.83-1.42,13.4-1.91,6.21-.67,10.59-1.45,15.88-3.53.6-.24.47-1.61,1.2-1.81,2.16-.62,9.95-.36,9.5,3.75Z"/>
      <path d="M1018.65,159.75c-1.94-.29-1.6-6.76-1.41-8.13,1.84-12.98,4.93-25.8,3.47-39.31l1.94-8.46c.15,1.72,1.37,3.1,1.74,4.75,1.44,6.31-1.89,33.67-3.33,41.64-.54,2.98-2.11,6.4-2.41,9.5Z"/>
      <path d="M1522.21,242.41c-.21.36-1.85.72-2.54,1.82-.87,1.4-3.95,7.94-4.34,8.19-.36.23-7.49,1.67-8.29,1.72-2.97.17-8.05-2.32-11.51-1.55,2.3-4.91,8.71.02,12.27-1.16,1.88-.62,2.27-2.93,4.01-4.21,1.52-1.12,3.39-.74,3.52-.87,1.46-1.36,1.39-5.2,2.31-7.01s7.58-13.62,8.38-13.67c3.18,4.38-1.69,10.4-3.72,14.29-.41.79.18,1.99-.09,2.45Z"/>
      <path d="M1193.62,250.61c.03-4.84,4.71-1.75,7.49-2.5,2.11-.57,4.53-3.66,7.02-4.5-.42-5.82,1.42-10.72,2.19-16.48.48-3.57-1.71-8.61,2.28-10.45,2.14,11.78-2.39,22.5-2.41,33.96-2.56,3.56-12.64-.45-16.57-.02Z"/>
      <path d="M1017.28,181.48c-.63,2.57-.65,3.26-1.18,6.39-1.27,7.51-2.19,18.09-8.42,22.8-.89-7.63.24-11.76,4.75-17.71l3.55-27.74c.59-1.97,2.27-1.28,2.65.03.23.78-.96,14.68-1.34,16.23Z"/>
      <path d="M3094.84,41.2c2.22,3.29-1.01,16.43,2.2,20.26l-3.54,4.46-5.22-1.19-.77-2.3c3.35-4.13,1.47-9.04,1.72-13.03.04-.57,1.81-.35,1.9-1.07.27-2.12-1.5-5.12.96-8.37.12-.09,2.63,1.07,2.75,1.25Z"/>
      <path d="M2121.17,79.2c2.81.16,8.05,1,12.67,1.01,3.29,0,7.26-.92,2.61,3.36-4.06,1.07-8.2-.77-11.38-.49-5,.44-12.07,4.89-17.28.84l-.31-2.92c1.08-1.88,11.37-1.95,13.68-1.81Z"/>
      <path d="M2220.25,244.52c-6.49.27-12.54,2.96-18.92,1.09l1.16-3.83c2.06-.47,4.2.09,6.29-.24,6.46-1.03,3.38-7.13,6.06-7.89,4.45-1.26,5.72,7.86,5.42,10.88Z"/>
      <path d="M391.77,51.86c-.47.43-9.58-.55-12.69.73-1.35.55-4.63,6.08-7.74,7.32-3.15-3.26-1.52-5.2-.47-8.98,4.33,3.47,11.12-4.58,13.48-4.65.83-.03,2.03,1.2,3.23,1.41,1.33.23,2.43-.73,3.8.17,1.47.97,1.16,3.3.39,4Z"/>
      <path d="M1001.67,220.67c0,3.53-1.14,2.54-2.49,3.96-2.17,2.29-4.2,4.93-6.24,7.05-2.98,3.1-9.86,6.05-14.27,5.94,1.91-1.91,3.46-4.81,5.33-6.64,3.23-3.15,11.01-4.68,9.81-7.17l7.85-3.14Z"/>
      <path d="M441.83,201.7c.47.62-.71,3.29-1.77,3.97-.62.4-12.98,5.42-13.71,5.51-1.48.19-3.73-.94-5.5-.51-.37-1.61.56-2.04,1.46-3.02,2.27-2.46,18.2-7.71,19.52-5.96Z"/>
      <path d="M1380.56,136.8c-4.82.02-1.27-6.71-1.06-8.55.95-8.58,1.47-17.36,2.6-25.85.13-.96.03-2.82,1.45-2.54,1.08,12.42-.05,24.87-2.99,36.94Z"/>
      <path d="M2262.06,245.38c-2.51,2.35-13.37-2.55-17.63,1.14l-2.11-3.86,3.52-2.82c2.99-.27,5.22,1.52,8,1.87,1.24.16,13.43-1.21,8.23,3.67Z"/>
      <path d="M2533.09,235.49l-3.77.07c-1.1-2.89.28-4.95.5-7.85.25-3.38-2.21-6.46,1.93-9.04,1.64-.7,3.12,15.73,1.34,16.82Z"/>
      <path d="M1226.6,84.88c-2,.26-1.64.19-2.25-1.24-1.88-4.4.53-11.8.27-16.74,8.52,0,1,12.71,1.99,17.97Z"/>
      <path d="M1800.77,141.02c.75-1.31,5.59-4.96,6.35-1.74.36,5.36-3.46,9.11-6.18,13.48-3.81-2.97-1.04-4-.58-6.57.22-1.23.28-4.94.41-5.16Z"/>
      <path d="M1459.36,249.42c-.98,1.67-9.06,5.31-9.81,1.68-.41-1.96,8.99-6.53,7-11.47,2.21.48,3.39,8.79,2.81,9.79Z"/>
      <path d="M1830.7,54.18c5.34-5.18,8.39,8.3,1.23,10.72-3.22-2.15-4.02-8.02-1.23-10.72Z"/>
      <path d="M2289.3,237.64l-.13,4.35-11.43,3.57-.62-1.64c-2.57,1.11-1.32-.2-2.8-1.8l14.99-4.48Z"/>
      <path d="M1799.19,163.57c-.05.12-1.36.11-1.67.94-.94,2.57-.44,5.34-3.58,7.21-4.08-2.46,1.39-14.75,4-14.94l1.25,6.79Z"/>
      <path d="M2295.3,210.67c-.5,5.34,3.1,11.25-1.49,14.98-5.43-3.23-1.44-8.75-.21-14.01.41-1.73.64-2.22,1.7-.97Z"/>
      <path d="M1748.23,249.96l2.22,2.64c-5.94-.23-11.34,1.55-16.98-1.01,2.95-5.58,9.52-.03,14.76-1.63Z"/>
      <path d="M1462.4,225.52l-3.82,1.13-2.81-6.5,5.3-3.44c1.06-.24,2.09,7.56,1.33,8.81Z"/>
      <path d="M2532.23,168.75l-.85,15.5,1.8.9c-1.45.09-.48,9.05-2.95,6.56-.74-.74-.88-18.9-.59-20.9.27-1.8.73-2.32,2.57-2.06Z"/>
      <path d="M2919.62,116.85c2.58,1.3,5.48,3.82,4.04,6.93-2.56,5.56-9.43-2.76-4.04-6.93Z"/>
      <path d="M1650.47,246.63c.15.1.98,3.12.96,3.52-.3,4.59-7.7,5.76-7.46.45,1.16-1.28,4.64-5.28,6.5-3.97Z"/>
      <path d="M2176.33,246.61l-7.9-1.08c-1.26-8.19,8.15-5.22,7.9,1.08Z"/>
      <path d="M2072.36,244.63c-.7,6.25-8.2,2.53-11.99,1.98l4.45-3.88,7.55,1.9Z"/>
      <path d="M1223.59,92.87c.98,3.21.1,5.02-1.04,7.96l-4.73-1.16-.78-2.85c2.63-1.19,3.43-4.68,6.55-3.96Z"/>
      <path d="M2195.33,245.61c-4.15,1.53-7.07,2.25-10.99-.48,1.14-3.94,9.48-3.91,10.99.48Z"/>
      <path d="M1188.62,248.63l-1.01,2.99c-4.65-1.71-10.03-.28-14.98-1.01.62-.33,3.24-2.78,3.46-2.81.79-.1,12.06.42,12.53.83Z"/>
      <path d="M977.67,238.61c-4.3,1.54-1.36,6.5-8.99,6-.28-4.26,5.35-10.74,8.99-6Z"/>
      <path d="M1988.38,229.65c.91,4.19-3.15,7.49-6.98,5.98-.68-4.23,4.01-5.26,6.98-5.98Z"/>
      <path d="M2407.44,238.5l3.81.62c-1.44,4.14-5.34,3.12-8.97,2.49-.44-4.31,4.52-2.09,4.01-4.97l1.16,1.86Z"/>
      <path d="M1006.39,216.4c-.52.55-3.67,1.14-4.71,2.27-.25-2.98.74-8.39,4.5-7.94,2.02.24,1.05,4.78.21,5.68Z"/>
      <path d="M2976.07,234.69l-.8,1.83,1.83.13-3.49,3.96c-2.07-2.67-3.79-3.29-3.5-6.96l5.96,1.05Z"/>
      <path d="M2903.12,44.94c-3.68-1.54-9.21.84-11.98-2.98,3.48-.38,11.04-2.33,11.98,2.98Z"/>
      <path d="M1378.56,156.76c-2.53,3.14-3.01-7.45-2.74-8.47.14-.54,2.22-.97,1.77-2.49,3.23,1.73-.17,7.82.97,10.97Z"/>
      <path d="M1900.36,141.73l-2,.58c2.46,5.6,1.03,11.85,1.24,17.88.15,4.33,2.56,18.64-.1,20.9-.97.82-1.13.88-2.55.61l-2.01-5.1,2.49-64.75c.32-.25,1.29.57,1.51.99.74,1.43-.85,21.67-.15,25.96.22,1.31,1.84,2.52,1.57,2.93Z"/>
      <path d="M539.81,152.77c0-17.24-.83-34.71,1.73-51.76l1.75-5.14,2.06,3.06c-.64,10.68-.37,21.71-1.11,32.41-.11,1.6-1.28,4.27-1.47,6.94-.34,4.81,2.75,11.76-2.95,14.48Z"/>
      <path d="M2321.05,145.53c-4.06,4.1-7.58-1.09-5.01-6.5,3.68-7.79,9.31,2.16,5.01,6.5Z"/>
      <path d="M2327.28,114.84c2.65,2.57,1.33,16.38-4.98,14.96,2.44-4.2.58-9.74,2.88-13.5.38-.62.33-3.18,2.1-1.46Z"/>
      <path d="M1560.39,150.64l-3.81.07-.93-4.8c6.18-1.89,1.65-10.93,6.84-14.11,2.72,6.92-.09,12.41-2.11,18.83Z"/>
      <path d="M1550.78,156.03c4.45-5.16,7.98,3.29,2.13,6.68-3.42-.23-3.87-4.65-2.13-6.68Z"/>
      <path d="M907.69,146.78c-2.69.27-1.61-.02-1.98-1.52-1.34-5.35,2.38-10.97,2.49-16.45,1.99,2.13.41,16.98-.5,17.97Z"/>
    </g>
  </g>
</svg>