<?xml version="1.0" encoding="UTF-8"?>
<svg id="Livello_2" data-name="Livello 2" xmlns="http://www.w3.org/2000/svg" viewBox="0 0 151 109.31">
  <defs>
    <style>
      .cls-1 {
        fill: #fff;
      }
    </style>
  </defs>
  <g id="Livello_2-2" data-name="Livello 2">
    <g>
      <rect class="cls-1" x="20.04" y="69.37" width="10.02" height="10.02" rx="5" ry="5"/>
      <rect class="cls-1" x="30.05" y="69.37" width="10.02" height="10.02" rx="5" ry="5"/>
      <rect class="cls-1" x="20.04" y="9.78" width="10.02" height="10.02" rx="5" ry="5"/>
      <rect class="cls-1" x="30.05" y="9.78" width="10.02" height="10.02" rx="5" ry="5"/>
      <rect class="cls-1" x="40.07" y="69.37" width="10.02" height="10.02" rx="5" ry="5"/>
      <rect class="cls-1" x="50.11" y="39.55" width="10.02" height="10.02" rx="5" ry="5"/>
      <rect class="cls-1" x="60.13" y="39.55" width="10.02" height="10.02" rx="5" ry="5"/>
      <rect class="cls-1" x="50.11" y="79.25" width="10.02" height="10.02" rx="5" ry="5"/>
      <rect class="cls-1" x="60.13" y="79.25" width="10.02" height="10.02" rx="5" ry="5"/>
      <rect class="cls-1" x="70.15" y="39.55" width="10.02" height="10.02" rx="5" ry="5"/>
      <rect class="cls-1" x="80.17" y="39.55" width="10.02" height="10.02" rx="5" ry="5"/>
      <rect class="cls-1" x="50.11" y="0" width="10.02" height="10.02" rx="5" ry="5"/>
      <rect class="cls-1" x="40.08" y="0" width="10.02" height="10.02" rx="5" ry="5"/>
      <rect class="cls-1" x="60.13" y="0" width="10.02" height="10.02" rx="5" ry="5"/>
      <rect class="cls-1" x="70.15" y="0" width="10.02" height="10.02" rx="5" ry="5"/>
      <rect class="cls-1" x="80.17" y="0" width="10.02" height="10.02" rx="5" ry="5"/>
      <rect class="cls-1" x="90.54" y="0" width="10.02" height="10.02" rx="5" ry="5"/>
      <rect class="cls-1" x="70.85" y="89.27" width="10.02" height="10.02" rx="5" ry="5"/>
      <rect class="cls-1" x="80.87" y="89.27" width="10.02" height="10.02" rx="5" ry="5"/>
      <rect class="cls-1" x="80.87" y="79.25" width="10.02" height="10.02" rx="5" ry="5"/>
      <rect class="cls-1" x="120.94" y="79.25" width="10.02" height="10.02" rx="5" ry="5"/>
      <rect class="cls-1" x="130.96" y="69.8" width="10.02" height="10.02" rx="5" ry="5"/>
      <rect class="cls-1" x="130.96" y="59.78" width="10.02" height="10.02" rx="5" ry="5"/>
      <rect class="cls-1" x="130.96" y="19.82" width="10.02" height="10.02" rx="5" ry="5"/>
      <rect class="cls-1" x="120.94" y="59.78" width="10.02" height="10.02" rx="5" ry="5"/>
      <rect class="cls-1" x="120.94" y="9.78" width="10.02" height="10.02" rx="5" ry="5"/>
      <rect class="cls-1" x="110.93" y="9.78" width="10.02" height="10.02" rx="5" ry="5"/>
      <rect class="cls-1" x="110.93" y="59.78" width="10.02" height="10.02" rx="5" ry="5"/>
      <rect class="cls-1" x="100.91" y="59.78" width="10.02" height="10.02" rx="5" ry="5"/>
      <rect class="cls-1" x="100.91" y=".07" width="10.02" height="10.02" rx="5" ry="5"/>
      <rect class="cls-1" x="90.89" y="69.8" width="10.02" height="10.02" rx="5" ry="5"/>
      <rect class="cls-1" x="90.89" y="89.27" width="10.02" height="10.02" rx="5" ry="5"/>
      <rect class="cls-1" x="100.91" y="99.29" width="10.02" height="10.02" rx="5" ry="5"/>
      <rect class="cls-1" x="110.93" y="99.29" width="10.02" height="10.02" rx="5" ry="5"/>
      <rect class="cls-1" x="110.93" y="89.27" width="10.02" height="10.02" rx="5" ry="5"/>
      <rect class="cls-1" x="40.07" y="59.5" width="10.02" height="10.02" rx="5" ry="5"/>
      <rect class="cls-1" x="0" y="39.58" width="10.02" height="10.02" rx="5" ry="5"/>
      <rect class="cls-1" x="0" y="29.7" width="10.02" height="10.02" rx="5" ry="5"/>
      <rect class="cls-1" x="10.02" y="59.5" width="10.02" height="10.02" rx="5" ry="5"/>
      <rect class="cls-1" x="10.02" y="19.66" width="10.02" height="10.02" rx="5" ry="5"/>
      <rect class="cls-1" x="0" y="49.62" width="10.02" height="10.02" rx="5" ry="5"/>
      <rect class="cls-1" x="140.98" y="39.58" width="10.02" height="10.02" rx="5" ry="5"/>
      <rect class="cls-1" x="140.98" y="29.7" width="10.02" height="10.02" rx="5" ry="5"/>
      <rect class="cls-1" x="140.98" y="49.62" width="10.02" height="10.02" rx="5" ry="5"/>
      <rect class="cls-1" x="40.07" y="49.48" width="10.02" height="10.02" rx="5" ry="5"/>
    </g>
  </g>
</svg>